<?xml version="1.0" encoding="UTF-8"?>
<!DOCTYPE svg PUBLIC "-//W3C//DTD SVG 1.1//EN" "http://www.w3.org/Graphics/SVG/1.1/DTD/svg11.dtd">
<!-- Creator: CorelDRAW Home & Student 2018 -->
<svg xmlns="http://www.w3.org/2000/svg" xml:space="preserve" width="84.667mm" height="84.667mm" version="1.1" style="shape-rendering:geometricPrecision; text-rendering:geometricPrecision; image-rendering:optimizeQuality; fill-rule:evenodd; clip-rule:evenodd"
viewBox="0 0 8466.7 8466.7"
 xmlns:xlink="http://www.w3.org/1999/xlink">
 <defs>
  <style type="text/css">
   <![CDATA[
    .fil0 {fill:white}
   ]]>
  </style>
 </defs>
 <g id="Capa_x0020_1">
  <metadata id="CorelCorpID_0Corel-Layer"/>
  <path class="fil0" d="M1440.3 7195.39c299.97,0 543.15,-243.18 543.15,-543.15 0,-299.97 -243.18,-543.16 -543.15,-543.16 -299.97,0 -543.15,243.19 -543.15,543.16 0,299.97 243.18,543.15 543.15,543.15zm3480.55 -33.67c-39.39,-163.39 -60.27,-334 -60.27,-509.48 0,-944.39 604.49,-1747.65 1447.62,-2043.94l-114.97 -199.11c-910.33,338.29 -1558.92,1214.96 -1558.92,2243.05 0,174.84 18.78,345.29 54.38,509.48l232.16 0zm569.31 0c-53.09,-160.16 -81.85,-331.48 -81.85,-509.48 0,-741.94 499.39,-1367.27 1180.31,-1558.23l169.63 293.83c-584.95,123.48 -1024.04,642.68 -1024.04,1264.4 0,180.92 37.22,353.16 104.31,509.48l-348.36 0zm-3216.61 -2752.53l-114.96 199.11c843.12,296.29 1447.61,1099.55 1447.61,2043.94 0,175.5 -20.9,346.09 -60.27,509.48l232.16 0c35.6,-164.19 54.38,-334.64 54.38,-509.48 0,-1028.11 -648.61,-1904.76 -1558.92,-2243.05zm-395.39 684.82l-169.65 293.83c584.95,123.48 1024.06,642.68 1024.06,1264.4 0,180.92 -37.22,353.16 -104.3,509.48l348.35 0c53.09,-160.16 81.85,-331.48 81.85,-509.48 0,-741.94 -499.39,-1367.27 -1180.31,-1558.23zm3880.83 -1436.94c-414.07,343.22 -945.77,549.56 -1525.61,549.56 -579.84,0 -1111.52,-206.34 -1525.61,-549.56l114.95 -199.07c378.98,325.57 871.86,522.36 1410.66,522.36 538.82,0 1031.7,-196.77 1410.69,-522.36l114.92 199.07zm-564.84 -978.39c-236.55,262.79 -579.36,428.05 -960.77,428.05 -381.39,0 -724.2,-165.26 -960.75,-428.03l-169.55 293.69c291.65,284.74 690.49,460.24 1130.3,460.24 439.81,0 838.67,-175.48 1130.32,-460.24l-169.55 -293.71zm1832.33 4516.71c299.97,0 543.16,-243.18 543.16,-543.15 0,-299.97 -243.19,-543.16 -543.16,-543.16 -299.97,0 -543.15,243.19 -543.15,543.16 0,299.97 243.18,543.15 543.15,543.15zm-2793.1 -4837.78c299.97,0 543.15,-243.19 543.15,-543.15 0,-299.97 -243.18,-543.16 -543.15,-543.16 -299.97,0 -543.15,243.19 -543.15,543.16 0,299.96 243.18,543.15 543.15,543.15z"/>
 </g>
</svg>
