<?xml version="1.0" encoding="UTF-8"?>
<!DOCTYPE svg PUBLIC "-//W3C//DTD SVG 1.1//EN" "http://www.w3.org/Graphics/SVG/1.1/DTD/svg11.dtd">
<!-- Creator: CorelDRAW Home & Student 2018 -->
<svg xmlns="http://www.w3.org/2000/svg" xml:space="preserve" width="84.6666mm" height="84.6666mm" version="1.1" style="shape-rendering:geometricPrecision; text-rendering:geometricPrecision; image-rendering:optimizeQuality; fill-rule:evenodd; clip-rule:evenodd"
viewBox="0 0 8466.66 8466.66"
 xmlns:xlink="http://www.w3.org/1999/xlink">
 <defs>
  <style type="text/css">
   <![CDATA[
    .fil0 {fill:white}
   ]]>
  </style>
 </defs>
 <g id="Capa_x0020_1">
  <metadata id="CorelCorpID_0Corel-Layer"/>
  <g id="_895767416">
   <path class="fil0" d="M2451.81 3811.9l-696.18 0 563.22 -409.23 -563.22 -409.22 696.18 0 -215.11 -662.13 563.22 409.19 215.15 -662.09 215.15 662.13 563.22 -409.23 -215.11 662.13 696.18 0 -563.22 409.22 563.22 409.23 -696.18 0 215.11 662.13 -563.22 -409.23 -215.15 662.13 -215.15 -662.13 -563.22 409.23 215.11 -662.13zm-339.16 -1064.88l-1115.46 0 902.42 655.65 -902.42 655.66 1115.46 0 -344.67 1060.86 902.38 -655.66 344.71 1060.85 344.71 -1060.85 902.38 655.66 -344.67 -1060.86 1115.46 0 -902.42 -655.66 902.42 -655.65 -1115.46 0 344.67 -1060.86 -902.38 655.66 -344.71 -1060.85 -344.71 1060.81 -902.38 -655.62 344.67 1060.86z"/>
   <path class="fil0" d="M5708.45 5968.07l-476.67 0 385.63 -280.19 -385.63 -280.19 476.67 0 -147.29 -453.35 385.63 280.17 147.31 -453.33 147.31 453.35 385.63 -280.19 -147.28 453.35 476.66 0 -385.63 280.19 385.63 280.19 -476.66 0 147.28 453.35 -385.63 -280.19 -147.31 453.35 -147.31 -453.35 -385.63 280.19 147.29 -453.35zm-232.22 -729.11l-763.74 0 617.87 448.92 -617.87 448.92 763.74 0 -235.99 726.35 617.85 -448.92 236.01 726.35 236.02 -726.35 617.85 448.92 -235.99 -726.35 763.74 0 -617.87 -448.92 617.87 -448.92 -763.74 0 235.99 -726.35 -617.85 448.92 -236.02 -726.35 -236.01 726.32 -617.85 -448.89 235.99 726.35z"/>
  </g>
 </g>
</svg>
