<?xml version="1.0" encoding="UTF-8"?>
<!DOCTYPE svg PUBLIC "-//W3C//DTD SVG 1.1//EN" "http://www.w3.org/Graphics/SVG/1.1/DTD/svg11.dtd">
<!-- Creator: CorelDRAW Home & Student 2018 -->
<svg xmlns="http://www.w3.org/2000/svg" xml:space="preserve" width="84.6666mm" height="84.6666mm" version="1.1" style="shape-rendering:geometricPrecision; text-rendering:geometricPrecision; image-rendering:optimizeQuality; fill-rule:evenodd; clip-rule:evenodd"
viewBox="0 0 8466.66 8466.66"
 xmlns:xlink="http://www.w3.org/1999/xlink">
 <defs>
  <style type="text/css">
   <![CDATA[
    .fil0 {fill:white}
    .fil1 {fill:white;fill-rule:nonzero}
   ]]>
  </style>
 </defs>
 <g id="Capa_x0020_1">
  <metadata id="CorelCorpID_0Corel-Layer"/>
  <g id="_702067992">
   <path class="fil0" d="M4251.6 7858.87l607.58 -328.33 900.58 -1793.23 -1047.38 883.55 389.48 -1292.12 -571.47 889.61 -92.2 -1036.49 0 -2540.32c0,-102.77 -83.82,-186.59 -186.59,-186.59 -102.76,0 -186.58,83.82 -186.58,186.59l0 2540.32 -92.2 1036.49 -571.47 -889.61 389.47 1292.12 -1047.37 -883.55 900.57 1793.23 607.58 328.33z"/>
   <path class="fil1" d="M4438.19 771.29l0 1088.86c0,102.76 -83.82,186.58 -186.59,186.58 -102.76,0 -186.58,-83.82 -186.58,-186.58l0 -1088.86c0,-102.76 83.82,-186.58 186.58,-186.58 102.77,0 186.59,83.82 186.59,186.58z"/>
   <path class="fil1" d="M5347.07 1532.01l-95.76 981.53c-9.04,92.63 -91.97,160.82 -184.61,151.78 -92.63,-9.04 -160.82,-91.97 -151.78,-184.6l95.77 -981.53c9.03,-92.64 91.96,-160.83 184.6,-151.79 92.64,9.04 160.82,91.97 151.78,184.61z"/>
   <path class="fil1" d="M5030.64 4775.96c-9.04,92.63 -91.97,160.81 -184.6,151.77 -92.26,-8.99 -160.78,-92.35 -151.77,-184.61l150.1 -1539.01c9.04,-92.63 91.97,-160.81 184.61,-151.77 92.23,9.02 160.77,92.38 151.76,184.61l-150.1 1539.01z"/>
   <path class="fil1" d="M3156.13 1532.01l95.77 981.53c9.04,92.63 91.97,160.82 184.6,151.78 92.64,-9.04 160.83,-91.97 151.79,-184.6l-95.77 -981.53c-9.04,-92.64 -91.97,-160.83 -184.61,-151.79 -92.63,9.04 -160.82,91.97 -151.78,184.61z"/>
   <path class="fil1" d="M3472.57 4775.96c9.04,92.63 91.97,160.81 184.6,151.77 92.26,-8.99 160.78,-92.35 151.77,-184.61l-150.1 -1539.01c-9.05,-92.63 -91.98,-160.81 -184.61,-151.77 -92.23,9.02 -160.78,92.38 -151.77,184.61l150.11 1539.01z"/>
  </g>
 </g>
</svg>
