<?xml version="1.0" encoding="UTF-8"?>
<!DOCTYPE svg PUBLIC "-//W3C//DTD SVG 1.1//EN" "http://www.w3.org/Graphics/SVG/1.1/DTD/svg11.dtd">
<!-- Creator: CorelDRAW Home & Student 2018 -->
<svg xmlns="http://www.w3.org/2000/svg" xml:space="preserve" width="84.6666mm" height="84.6666mm" version="1.1" style="shape-rendering:geometricPrecision; text-rendering:geometricPrecision; image-rendering:optimizeQuality; fill-rule:evenodd; clip-rule:evenodd"
viewBox="0 0 8466.66 8466.66"
 xmlns:xlink="http://www.w3.org/1999/xlink">
 <defs>
  <style type="text/css">
   <![CDATA[
    .fil0 {fill:white}
   ]]>
  </style>
 </defs>
 <g id="Capa_x0020_1">
  <metadata id="CorelCorpID_0Corel-Layer"/>
  <path class="fil0" d="M6822.66 4755.59c288.45,0 522.27,-233.81 522.27,-522.27 0,-288.43 -233.82,-522.24 -522.27,-522.24 -288.43,0 -522.25,233.81 -522.25,522.24 0,288.46 233.82,522.27 522.25,522.27zm-1785.01 -67.72l361.16 -361.15 -3240.76 0c-44.03,243.9 -257.35,428.87 -513.9,428.87 -288.45,0 -522.27,-233.81 -522.27,-522.27 0,-288.43 233.82,-522.24 522.27,-522.24 256.55,0 469.87,184.97 513.9,428.85l3240.76 0 -361.16 -361.16 132.05 -132.05 586.6 586.6 -586.6 586.6 -132.05 -132.05z"/>
 </g>
</svg>
