<?xml version="1.0" encoding="UTF-8"?>
<!DOCTYPE svg PUBLIC "-//W3C//DTD SVG 1.1//EN" "http://www.w3.org/Graphics/SVG/1.1/DTD/svg11.dtd">
<!-- Creator: CorelDRAW Home & Student 2018 -->
<svg xmlns="http://www.w3.org/2000/svg" xml:space="preserve" width="84.6666mm" height="84.6666mm" version="1.1" style="shape-rendering:geometricPrecision; text-rendering:geometricPrecision; image-rendering:optimizeQuality; fill-rule:evenodd; clip-rule:evenodd"
viewBox="0 0 8466.66 8466.66"
 xmlns:xlink="http://www.w3.org/1999/xlink">
 <defs>
  <style type="text/css">
   <![CDATA[
    .fil1 {fill:white}
    .fil0 {fill:white;fill-rule:nonzero}
   ]]>
  </style>
 </defs>
 <g id="Capa_x0020_1">
  <metadata id="CorelCorpID_0Corel-Layer"/>
  <g id="_823769600">
   <path class="fil0" d="M6807.05 4109.5l-944.33 0 0 247.61 944.33 0c51.95,157.51 200.26,271.19 375.17,271.19 218.14,0 394.97,-176.82 394.97,-394.99 0,-218.15 -176.83,-394.97 -394.97,-394.97 -174.91,0 -323.22,113.66 -375.17,271.16z"/>
   <polygon class="fil1" points="4233.4,2955.73 4025.84,3594.49 3482.5,3199.72 3690.04,3838.51 3018.4,3838.51 3561.76,4233.31 3018.4,4628.1 3690.04,4628.1 3482.5,5266.89 4025.84,4872.1 4233.4,5510.89 4440.97,4872.1 4984.31,5266.89 4776.77,4628.1 5448.41,4628.1 4905.05,4233.31 5448.41,3838.51 4776.77,3838.51 4984.31,3199.72 4440.97,3594.52 "/>
   <path class="fil0" d="M1659.78 4109.5l944.33 0 0 247.61 -944.33 0c-51.95,157.51 -200.26,271.19 -375.17,271.19 -218.13,0 -394.97,-176.82 -394.97,-394.99 0,-218.15 176.84,-394.97 394.97,-394.97 174.91,0 323.22,113.66 375.17,271.16z"/>
  </g>
 </g>
</svg>
