<?xml version="1.0" encoding="UTF-8"?>
<!DOCTYPE svg PUBLIC "-//W3C//DTD SVG 1.1//EN" "http://www.w3.org/Graphics/SVG/1.1/DTD/svg11.dtd">
<!-- Creator: CorelDRAW Home & Student 2018 -->
<svg xmlns="http://www.w3.org/2000/svg" xml:space="preserve" width="84.6666mm" height="84.6666mm" version="1.1" style="shape-rendering:geometricPrecision; text-rendering:geometricPrecision; image-rendering:optimizeQuality; fill-rule:evenodd; clip-rule:evenodd"
viewBox="0 0 8466.66 8466.66"
 xmlns:xlink="http://www.w3.org/1999/xlink">
 <defs>
  <style type="text/css">
   <![CDATA[
    .fil0 {fill:white}
   ]]>
  </style>
 </defs>
 <g id="Capa_x0020_1">
  <metadata id="CorelCorpID_0Corel-Layer"/>
  <g id="_1010008272">
   <path class="fil0" d="M2277.95 5470.33l-408.11 676.98c94.8,81.7 161.37,195.23 183.08,323.99l790.69 0 0 184 -790.69 0c-43.75,259.37 -269.38,456.92 -541.18,456.92 -303.16,0 -548.91,-245.76 -548.91,-548.92 0,-303.16 245.75,-548.91 548.91,-548.91 70.88,0 138.55,13.47 200.74,37.9l408.08 -676.87 157.39 94.91zm1433.29 -2377.38l408.59 -677.79c62.2,24.44 129.91,37.91 200.78,37.91 65.55,0 128.44,-11.52 186.69,-32.61l2101.14 3716.77c-101.2,82.28 -172.48,199.9 -195.12,334.07l-790.68 0 0 184 790.68 0c43.76,259.37 269.38,456.92 541.19,456.92 303.15,0 548.91,-245.76 548.91,-548.92 0,-303.16 -245.76,-548.91 -548.91,-548.91 -65.55,0 -128.44,11.51 -186.69,32.6l-2101.14 -3716.76c123.76,-100.65 202.84,-254.11 202.84,-426.08 0,-303.16 -245.75,-548.91 -548.91,-548.91 -303.15,0 -548.91,245.75 -548.91,548.91 0,166.3 74.01,315.34 190.81,415.99l-408.7 677.9 157.43 94.91z"/>
   <polygon class="fil0" points="4233.1,5615.51 4079.11,6089.39 3676.02,5796.52 3829.99,6270.42 3331.7,6270.42 3734.82,6563.3 3331.7,6856.18 3829.99,6856.18 3676.02,7330.08 4079.11,7037.2 4233.1,7511.1 4387.09,7037.2 4790.19,7330.08 4636.22,6856.18 5134.5,6856.18 4731.39,6563.3 5134.5,6270.42 4636.22,6270.42 4790.19,5796.52 4387.09,6089.4 "/>
   <polygon class="fil0" points="2915.88,3286.69 2761.94,3760.41 2358.98,3467.64 2512.9,3941.38 2014.77,3941.38 2417.76,4234.17 2014.77,4526.95 2512.9,4526.95 2358.98,5000.7 2761.94,4707.91 2915.88,5181.65 3069.82,4707.91 3472.79,5000.7 3318.87,4526.95 3816.99,4526.95 3414.01,4234.17 3816.99,3941.38 3318.87,3941.38 3472.79,3467.64 3069.82,3760.43 "/>
  </g>
 </g>
</svg>
