<?xml version="1.0" encoding="UTF-8"?>
<!DOCTYPE svg PUBLIC "-//W3C//DTD SVG 1.1//EN" "http://www.w3.org/Graphics/SVG/1.1/DTD/svg11.dtd">
<!-- Creator: CorelDRAW Home & Student 2018 -->
<svg xmlns="http://www.w3.org/2000/svg" xml:space="preserve" width="84.6666mm" height="84.6666mm" version="1.1" style="shape-rendering:geometricPrecision; text-rendering:geometricPrecision; image-rendering:optimizeQuality; fill-rule:evenodd; clip-rule:evenodd"
viewBox="0 0 8466.66 8466.66"
 xmlns:xlink="http://www.w3.org/1999/xlink">
 <defs>
  <style type="text/css">
   <![CDATA[
    .fil0 {fill:white}
   ]]>
  </style>
 </defs>
 <g id="Capa_x0020_1">
  <metadata id="CorelCorpID_0Corel-Layer"/>
  <path class="fil0" d="M3970.21 1352.66l167.61 1730.79c-0.39,41.17 33.87,74.9 76.52,75.3 42.69,0.42 77.61,-32.61 78.01,-73.8l83.49 -1749.3c1.05,-106.28 -89.14,-193.36 -201.41,-194.46 -115.95,-1.13 -216.64,92.63 -204.22,211.47zm462.77 2458.36l-320.77 898.65c-20.27,63.54 -43.13,116.18 -118.52,119.04 -89.64,-5.21 -70.06,-74.92 -67.02,-138.4l58.42 -958.36c13.48,-103.83 125.59,-174.82 250.38,-158.6 128.85,16.76 227.65,123.73 197.51,237.67zm-505.15 1274.22c59.46,10.36 104.09,42.05 125.61,124.62 26.64,102.27 -71.61,545.06 -228.78,517.68 -167.18,-29.1 -140.21,-463.02 -64.2,-571.94 47.91,-68.63 108.71,-80.56 167.37,-70.36zm-191.58 949.87c59.46,10.36 104.09,42.04 125.6,124.62 26.65,102.27 -71.61,545.06 -228.78,517.68 -167.17,-29.11 -140.2,-463.02 -64.19,-571.95 47.9,-68.63 108.71,-80.55 167.37,-70.35zm-222.87 1289.51c106.88,0 193.52,-86.65 193.52,-193.52 0,-106.86 -86.64,-193.51 -193.52,-193.51 -106.86,0 -193.5,86.65 -193.5,193.51 0,106.87 86.64,193.52 193.5,193.52zm2716.96 -4347l-1003.61 292.31c-63.36,20.83 -101.4,44.46 -147.91,-14.93 -48.32,-75.68 -6.73,-89.27 46.49,-124.03l906.58 -562.58c92.02,-49.93 215.25,-0.7 275.25,109.91 61.94,114.21 33.19,256.96 -76.8,299.32zm-3826.03 -223.65l1033.26 508.16c67.56,44.08 81.68,54.35 58.06,122.07 -24.43,69.98 -78.36,56.8 -159.99,34.86l-1075.22 -306.57c-83.94,-29.32 -123.4,-134.91 -88.14,-235.81 36.41,-104.18 142.56,-167.65 232.03,-122.71zm3346.66 2132.36c-343.42,-303.54 -686.86,-607.08 -1030.27,-910.61 -38.5,-38.15 -96.83,-89.81 -162.33,-29.92 -55.58,50.81 18.23,136.85 40,162.66l886.16 1046.3c66.76,73.01 184.52,75.64 261.65,5.13 79.62,-72.81 88.65,-200.54 4.79,-273.56zm-612.27 1082.13l-666.76 -1474.98c-21.01,-44.47 -39.63,-75.7 -96.56,-62.64 -56.91,13.05 -60.74,54.26 -50.16,100.37l277.91 1584.75c27.29,119.04 170.89,187.71 320.69,153.37 154.69,-35.46 263.46,-172.09 214.88,-300.87zm-2146.99 -16.76l739.1 -1394.08c21.32,-30.62 9.34,-75.81 -26.75,-100.94 -36.09,-25.16 -82.66,-20.71 -103.96,9.89l-962.22 1261.87c-55.04,79.02 -22.63,196.73 72.36,262.87 98.05,68.31 231.5,56.61 281.47,-39.61zm-393.37 -1073.67l1155.82 -887.12c29.65,-17.54 36.94,-60.09 16.27,-95.06 -20.65,-34.95 -61.45,-49.12 -91.1,-31.57l-1292.47 690.43c-76.54,45.24 -94.52,156.53 -40.13,248.53 56.14,94.99 172.69,136.42 251.61,74.79zm-1047.95 -1208.58l1996.31 -79.74c46.79,-6.89 90.53,26.83 97.67,75.33 7.15,48.51 -25,93.41 -71.82,100.3l-1978.12 368.49c-120.83,17.8 -234.03,-71.26 -252.84,-198.9 -19.41,-131.77 71.6,-261.03 208.8,-265.48zm909.26 -2044.77l1337.42 1514.9c35.67,31.78 34.59,91.19 -2.39,132.67 -36.99,41.46 -95.89,49.29 -131.54,17.49l-1573.11 -1287.22c-92.08,-82.12 -87.79,-237.16 9.55,-346.28 100.48,-112.7 269,-136.45 360.07,-31.56zm3181.12 170.71l-983.49 1202.42c-26.48,25.45 -23.92,71.07 5.69,101.86 29.63,30.8 75.09,35.09 101.55,9.6l1171.12 -1034.33c68.35,-65.75 60.55,-184.72 -17.38,-265.73 -80.45,-83.65 -210.58,-97.01 -277.49,-13.82zm1240.88 1543.95l-1986.6 212.03c-47.32,0 -85.67,39.74 -85.67,88.76 0,49.04 38.35,88.78 85.67,88.78l2010.7 76.29c122.14,0 221.16,-104.6 221.16,-233.62 0,-133.2 -108.87,-247.82 -245.26,-232.24zm-684.55 1436.17c123.01,0 222.72,-99.71 222.72,-222.72 0,-123.01 -99.71,-222.72 -222.72,-222.72 -123.01,0 -222.72,99.71 -222.72,222.72 0,123.01 99.71,222.72 222.72,222.72zm-2604.76 -2199.2c106.24,0 192.35,-86.11 192.35,-192.35 0,-106.22 -86.11,-192.33 -192.35,-192.33 -106.22,0 -192.33,86.11 -192.33,192.33 0,106.24 86.11,192.35 192.33,192.35zm1545.47 -809.11c127.32,0 230.52,-103.21 230.52,-230.52 0,-127.31 -103.2,-230.51 -230.52,-230.51 -127.3,0 -230.5,103.2 -230.5,230.51 0,127.31 103.2,230.52 230.5,230.52z"/>
 </g>
</svg>
