<?xml version="1.0" encoding="UTF-8"?>
<!DOCTYPE svg PUBLIC "-//W3C//DTD SVG 1.1//EN" "http://www.w3.org/Graphics/SVG/1.1/DTD/svg11.dtd">
<!-- Creator: CorelDRAW Home & Student 2018 -->
<svg xmlns="http://www.w3.org/2000/svg" xml:space="preserve" width="84.6666mm" height="84.6666mm" version="1.1" style="shape-rendering:geometricPrecision; text-rendering:geometricPrecision; image-rendering:optimizeQuality; fill-rule:evenodd; clip-rule:evenodd"
viewBox="0 0 8466.66 8466.66"
 xmlns:xlink="http://www.w3.org/1999/xlink">
 <defs>
  <style type="text/css">
   <![CDATA[
    .fil0 {fill:white}
   ]]>
  </style>
 </defs>
 <g id="Capa_x0020_1">
  <metadata id="CorelCorpID_0Corel-Layer"/>
  <path class="fil0" d="M4320.6 2452.8c65.52,0 128.4,-11.51 186.64,-32.59l2100.66 3715.89c-101.17,82.27 -172.44,199.85 -195.07,334l-4359.42 0c-21.71,-128.74 -88.26,-242.24 -183.04,-323.92l2249.49 -3731.27c62.18,24.43 129.87,37.89 200.74,37.89zm-2607.55 3598.39c-62.18,-24.43 -129.84,-37.9 -200.7,-37.9 -303.09,0 -548.78,245.7 -548.78,548.79 0,303.09 245.69,548.78 548.78,548.78 271.75,0 497.32,-197.49 541.06,-456.8l4359.42 0c43.75,259.31 269.32,456.8 541.06,456.8 303.1,0 548.79,-245.69 548.79,-548.78 0,-303.09 -245.69,-548.79 -548.79,-548.79 -65.52,0 -128.4,11.52 -186.64,32.6l-2100.66 -3715.9c123.73,-100.62 202.79,-254.04 202.79,-425.97 0,-303.09 -245.69,-548.79 -548.78,-548.79 -303.1,0 -548.79,245.7 -548.79,548.79 0,166.26 73.99,315.27 190.76,415.89l-2249.52 3731.28z"/>
 </g>
</svg>
