<?xml version="1.0" encoding="UTF-8"?>
<!DOCTYPE svg PUBLIC "-//W3C//DTD SVG 1.1//EN" "http://www.w3.org/Graphics/SVG/1.1/DTD/svg11.dtd">
<!-- Creator: CorelDRAW Home & Student 2018 -->
<svg xmlns="http://www.w3.org/2000/svg" xml:space="preserve" width="84.6666mm" height="84.6666mm" version="1.1" style="shape-rendering:geometricPrecision; text-rendering:geometricPrecision; image-rendering:optimizeQuality; fill-rule:evenodd; clip-rule:evenodd"
viewBox="0 0 8466.66 8466.66"
 xmlns:xlink="http://www.w3.org/1999/xlink">
 <defs>
  <style type="text/css">
   <![CDATA[
    .fil1 {fill:white}
    .fil0 {fill:white;fill-opacity:0.549020}
   ]]>
  </style>
 </defs>
 <g id="Capa_x0020_1">
  <metadata id="CorelCorpID_0Corel-Layer"/>
  <g id="_928031112">
   <path class="fil0" d="M4232.97 959.31l2834.99 1636.79 0 1300.66c-131.97,-296.33 -405.17,-515.91 -734.09,-573.23l0 -331.78 -4201.8 0 0 331.78c-328.92,57.32 -602.12,276.9 -734.09,573.23l0 -1300.66 2834.99 -1636.79zm2834.99 3742.6l0 1167.74 -2834.99 1636.79 -2834.99 -1636.79 0 -1167.74c131.97,296.33 405.17,515.91 734.09,573.24l0 87.45c0,242.49 197.43,439.92 439.92,439.92l1291.04 0c154.98,0 291.55,-80.65 369.94,-202.16 78.39,121.51 214.96,202.16 369.94,202.16l1291.04 0c242.49,0 439.92,-197.43 439.92,-439.92l0 -87.45c328.92,-57.33 602.12,-276.91 734.09,-573.24zm-734.09 -109.88c100.39,-58.87 167.8,-167.91 167.8,-292.69 0,-124.79 -67.41,-233.83 -167.8,-292.7l0 585.39zm-4201.8 -585.39l0 585.39c-100.4,-58.87 -167.81,-167.91 -167.81,-292.69 0,-124.79 67.41,-233.83 167.81,-292.7z"/>
   <path class="fil1" d="M4232.97 418.82l3303.07 1907.03 0 3814.05 -3303.07 1907.03 -3303.07 -1907.03 0 -3814.05 3303.07 -1907.03zm-101.27 4943.78c0,147.98 -120.69,268.68 -268.67,268.68l-1291.04 0c-147.98,0 -268.67,-120.7 -268.67,-268.68l0 -268.01c-437.23,0 -795.26,-354.07 -795.26,-795.25 0,-441.19 358.03,-795.26 795.26,-795.26l0 -341.08 1828.38 0 0 2199.6zm-1828.38 -528.93l0 -1068.66c-293.39,0 -534.33,237.51 -534.33,534.33 0,296.82 240.94,534.33 534.33,534.33zm2030.91 528.93c0,147.98 120.7,268.68 268.68,268.68l1291.04 0c147.97,0 268.67,-120.7 268.67,-268.68l0 -268.01c437.23,0 795.26,-354.07 795.26,-795.25 0,-441.19 -358.03,-795.26 -795.26,-795.26l0 -341.08 -1828.39 0 0 2199.6zm1828.39 -528.93l0 -1068.66c293.39,0 534.33,237.51 534.33,534.33 0,296.82 -240.94,534.33 -534.33,534.33zm-1929.65 -4093.07l3024.39 1746.14 0 3492.27 -3024.39 1746.14 -3024.4 -1746.14 0 -3492.27 3024.4 -1746.14z"/>
  </g>
 </g>
</svg>
