<?xml version="1.0" encoding="UTF-8"?>
<!DOCTYPE svg PUBLIC "-//W3C//DTD SVG 1.1//EN" "http://www.w3.org/Graphics/SVG/1.1/DTD/svg11.dtd">
<!-- Creator: CorelDRAW Home & Student 2018 -->
<svg xmlns="http://www.w3.org/2000/svg" xml:space="preserve" width="84.6666mm" height="84.6666mm" version="1.1" style="shape-rendering:geometricPrecision; text-rendering:geometricPrecision; image-rendering:optimizeQuality; fill-rule:evenodd; clip-rule:evenodd"
viewBox="0 0 8466.66 8466.66"
 xmlns:xlink="http://www.w3.org/1999/xlink">
 <defs>
  <style type="text/css">
   <![CDATA[
    .fil0 {fill:white}
   ]]>
  </style>
 </defs>
 <g id="Capa_x0020_1">
  <metadata id="CorelCorpID_0Corel-Layer"/>
  <path class="fil0" d="M4231.01 6072.31l680.81 -367.91 1009.13 -2009.38 -1173.62 990.06 436.42 -1447.87 -640.35 996.84 -312.39 -3511.76 -312.39 3511.76 -640.35 -996.84 436.42 1447.87 -1173.62 -990.06 1009.12 2009.38 680.82 367.91zm-1064.13 -367.65l80.76 160.83 -1189.35 0 0 -160.83 1108.59 0zm-1618.86 510.76c186.82,0 338.28,-151.47 338.28,-338.29 0,-186.82 -151.46,-338.28 -338.28,-338.28 -186.82,0 -338.28,151.46 -338.28,338.28 0,186.82 151.46,338.29 338.28,338.29zm850.97 -855c186.82,0 338.28,-151.46 338.28,-338.28 0,-186.82 -151.46,-338.28 -338.28,-338.28 -186.82,0 -338.28,151.46 -338.28,338.28 0,186.82 151.46,338.28 338.28,338.28zm170.22 1873.39c186.82,0 338.28,-151.47 338.28,-338.29 0,-186.82 -151.46,-338.28 -338.28,-338.28 -186.82,0 -338.28,151.46 -338.28,338.28 0,186.82 151.46,338.29 338.28,338.29zm1663.92 510.01c186.82,0 338.29,-151.46 338.29,-338.28 0,-186.82 -151.47,-338.29 -338.29,-338.29 -186.82,0 -338.28,151.47 -338.28,338.29 0,186.82 151.46,338.28 338.28,338.28zm-1074.62 -2231.41l-357.32 -157.68 47.02 -101.96 312.52 140.75 -2.22 118.89zm-52.91 1105.68l512.85 -427.96 -169.06 -91.38 -593.68 308.56 249.89 210.78zm1451.08 275.41l-182.76 -513.27 -285.79 0 -182.73 513.27 651.28 0zm742.7 -1188.84l-80.76 160.83 1189.35 0 0 -160.83 -1108.59 0zm1618.86 510.76c-186.82,0 -338.28,-151.47 -338.28,-338.29 0,-186.82 151.46,-338.28 338.28,-338.28 186.82,0 338.29,151.46 338.29,338.28 0,186.82 -151.47,338.29 -338.29,338.29zm-850.97 -855c-186.82,0 -338.28,-151.46 -338.28,-338.28 0,-186.82 151.46,-338.28 338.28,-338.28 186.82,0 338.29,151.46 338.29,338.28 0,186.82 -151.47,338.28 -338.29,338.28zm-170.22 1873.39c-186.82,0 -338.28,-151.47 -338.28,-338.29 0,-186.82 151.46,-338.28 338.28,-338.28 186.82,0 338.29,151.46 338.29,338.28 0,186.82 -151.47,338.29 -338.29,338.29zm-536.39 -615.72l-512.85 -427.96 169.07 -91.38 593.67 308.56 -249.89 210.78zm-52.91 -1105.68l357.32 -157.68 -47.02 -101.96 -312.52 140.75 2.22 118.89z"/>
 </g>
</svg>
