<?xml version="1.0" encoding="UTF-8"?>
<!DOCTYPE svg PUBLIC "-//W3C//DTD SVG 1.1//EN" "http://www.w3.org/Graphics/SVG/1.1/DTD/svg11.dtd">
<!-- Creator: CorelDRAW Home & Student 2018 -->
<svg xmlns="http://www.w3.org/2000/svg" xml:space="preserve" width="84.6666mm" height="84.6666mm" version="1.1" style="shape-rendering:geometricPrecision; text-rendering:geometricPrecision; image-rendering:optimizeQuality; fill-rule:evenodd; clip-rule:evenodd"
viewBox="0 0 8466.66 8466.66"
 xmlns:xlink="http://www.w3.org/1999/xlink">
 <defs>
  <style type="text/css">
   <![CDATA[
    .fil0 {fill:white}
   ]]>
  </style>
 </defs>
 <g id="Capa_x0020_1">
  <metadata id="CorelCorpID_0Corel-Layer"/>
  <path class="fil0" d="M4451.85 6296.27l2632.64 478.67 -2181.93 300.52 -450.71 -779.19zm-2830.08 -3999.4l682.78 -684.04 -433.82 1647.47 -248.96 -963.43zm631.38 2443.51l524.73 -1600.2 -801.23 529.99 276.5 1070.21zm267.26 -2781.86l-288.43 1095.28 1431.44 -1663.06 -1143.01 567.78zm184.03 2631.71l615.63 1375.29 -846.3 -671.79 230.67 -703.5zm-1483.15 -2319.68l0 2028.98 659.54 523.56 -659.54 -2552.54zm811.13 4062.22l957.45 -174.09 -1986.15 -1576.56 1028.7 1750.65zm1982.1 -36.5l-2632.63 478.67 2181.93 300.52 450.7 -779.19zm2830.09 -3999.4l-682.79 -684.04 433.82 1647.47 248.97 -963.43zm-631.39 2443.51l-524.73 -1600.2 801.23 529.99 -276.5 1070.21zm-267.26 -2781.86l288.44 1095.28 -1431.45 -1663.06 1143.01 567.78zm-184.03 2631.71l-615.63 1375.29 846.31 -671.79 -230.68 -703.5zm1483.15 -2319.68l0 2028.98 -659.54 523.56 659.54 -2552.54zm-811.13 4062.22l-957.45 -174.09 1986.16 -1576.56 -1028.71 1750.65z"/>
 </g>
</svg>
