<?xml version="1.0" encoding="UTF-8"?>
<!DOCTYPE svg PUBLIC "-//W3C//DTD SVG 1.1//EN" "http://www.w3.org/Graphics/SVG/1.1/DTD/svg11.dtd">
<!-- Creator: CorelDRAW Home & Student 2018 -->
<svg xmlns="http://www.w3.org/2000/svg" xml:space="preserve" width="84.6666mm" height="84.6666mm" version="1.1" style="shape-rendering:geometricPrecision; text-rendering:geometricPrecision; image-rendering:optimizeQuality; fill-rule:evenodd; clip-rule:evenodd"
viewBox="0 0 8466.66 8466.66"
 xmlns:xlink="http://www.w3.org/1999/xlink">
 <defs>
  <style type="text/css">
   <![CDATA[
    .fil0 {fill:white}
   ]]>
  </style>
 </defs>
 <g id="Capa_x0020_1">
  <metadata id="CorelCorpID_0Corel-Layer"/>
  <path class="fil0" d="M7195.12 2103.06c187.81,0 340.99,153.19 340.99,341l0 3577.61c0,187.81 -153.18,341 -340.99,341 -1099.45,0 -2171.19,0 -2962.18,0 -877.5,0 -1168.97,0 -2962.18,0 -187.81,0 -340.99,-153.19 -340.99,-341l0 -3577.61c0,-187.81 153.18,-341 340.99,-341 1481.09,0 1481.13,0 2962.18,0 808.74,0 1869.88,0 2962.18,0zm-4838.2 3691.81c-144.67,0 -288.18,-21.61 -424.21,-72.62 -129.61,-48.56 -237.86,-128.04 -317.5,-242.95 -87.8,-126.6 -116.32,-281.95 -116.32,-434.26l0 -1616.2c0,-149.17 30.53,-295.73 113.35,-421 77.83,-117.76 184.99,-201.38 313.84,-255.36 138.32,-57.92 286.21,-81.58 435.3,-81.58l623.02 0c159.21,0 332.48,20.93 475.78,95.88 118.57,62.05 214.4,150.69 276.7,271.02 62.69,121.18 87.59,254.97 87.59,391.04l0 1616.2c0,221.67 -57.27,438.52 -239.5,575.76 -173.66,130.81 -388.1,174.07 -600.57,174.07l-627.48 0zm44.82 -333.04l533.34 0c128.77,0 298.02,-18.32 394.49,-115.84 86.39,-87.35 114.47,-204.31 114.47,-325.24l0 -1575.72c0,-123.03 -27.31,-247.01 -122.5,-330.35 -101.46,-88.81 -248.13,-110.73 -377.5,-110.73l-546.8 0c-136.07,0 -275.48,27.47 -382.92,117.6 -98.64,82.81 -134.99,195.64 -134.99,323.48l0 1575.72c0,128.32 33.17,247.33 135.83,328.42 109.73,86.55 250.71,112.66 386.58,112.66zm3097.69 333.04c-144.67,0 -288.17,-21.61 -424.21,-72.62 -129.61,-48.56 -237.85,-128.04 -317.5,-242.95 -87.79,-126.6 -116.31,-281.95 -116.31,-434.26l0 -1616.2c0,-149.17 30.52,-295.73 113.34,-421 77.84,-117.76 185,-201.38 313.84,-255.36 138.33,-57.92 286.21,-81.58 435.3,-81.58l623.03 0c159.21,0 332.48,20.93 475.78,95.88 118.57,62.05 214.4,150.69 276.69,271.02 62.7,121.18 87.6,254.97 87.6,391.04l0 1616.2c0,221.67 -57.27,438.52 -239.5,575.76 -173.67,130.81 -388.1,174.07 -600.57,174.07l-627.49 0zm44.83 -333.04l533.34 0c128.76,0 298.01,-18.32 394.49,-115.84 86.39,-87.35 114.47,-204.31 114.47,-325.24l0 -1575.72c0,-123.03 -27.32,-247.01 -122.51,-330.35 -101.45,-88.81 -248.13,-110.73 -377.5,-110.73l-546.79 0c-136.08,0 -275.49,27.47 -382.92,117.6 -98.65,82.81 -135,195.64 -135,323.48l0 1575.72c0,128.32 33.18,247.33 135.84,328.42 109.73,86.55 250.7,112.66 386.58,112.66zm-1311.32 740.18l0 -3938.29c-933.85,0 -2028.32,0 -2962.18,0 -99.12,0 -180.33,81.21 -180.33,180.34l0 3577.61c0,99.13 81.21,180.34 180.33,180.34 933.86,0 2028.33,0 2962.18,0z"/>
 </g>
</svg>
