<?xml version="1.0" encoding="UTF-8"?>
<!DOCTYPE svg PUBLIC "-//W3C//DTD SVG 1.1//EN" "http://www.w3.org/Graphics/SVG/1.1/DTD/svg11.dtd">
<!-- Creator: CorelDRAW Home & Student 2018 -->
<svg xmlns="http://www.w3.org/2000/svg" xml:space="preserve" width="84.6666mm" height="84.6666mm" version="1.1" style="shape-rendering:geometricPrecision; text-rendering:geometricPrecision; image-rendering:optimizeQuality; fill-rule:evenodd; clip-rule:evenodd"
viewBox="0 0 8466.66 8466.66"
 xmlns:xlink="http://www.w3.org/1999/xlink">
 <defs>
  <style type="text/css">
   <![CDATA[
    .fil0 {fill:black;fill-rule:nonzero}
    .fil1 {fill:#E73F6F;fill-rule:nonzero}
   ]]>
  </style>
 </defs>
 <g id="Capa_x0020_1">
  <metadata id="CorelCorpID_0Corel-Layer"/>
  <g id="_703697248">
   <g>
    <path class="fil0" d="M2557.85 3598.17c453.54,905.41 906.59,1811.08 1359.88,2716.63l-2861.95 -1306.15 0 -2495.88 1502.07 1085.4z"/>
    <polygon class="fil0" points="4106.46,6069.63 3044.71,3948.59 5421.55,3948.59 4233.11,6322.67 "/>
    <path class="fil0" d="M5936.68 3577.74l1473.82 -1064.97 0 2495.88 -2861.97 1306.15c148.81,-297.26 1311.03,-2681.35 1388.15,-2737.06z"/>
   </g>
   <g>
    <polygon class="fil1" points="2335.79,3787.3 1340.21,3067.9 1340.21,4826.95 3305.1,5723.68 "/>
    <polygon class="fil1" points="3503.84,4233.03 4233.13,5689.93 4962.44,4233.03 "/>
    <polygon class="fil1" points="7126.07,3067.9 6130.49,3787.3 5161.18,5723.68 7126.07,4826.95 "/>
   </g>
  </g>
 </g>
</svg>
