<?xml version="1.0" encoding="UTF-8"?>
<!DOCTYPE svg PUBLIC "-//W3C//DTD SVG 1.1//EN" "http://www.w3.org/Graphics/SVG/1.1/DTD/svg11.dtd">
<!-- Creator: CorelDRAW Home & Student 2018 -->
<svg xmlns="http://www.w3.org/2000/svg" xml:space="preserve" width="169.333mm" height="169.333mm" version="1.1" style="shape-rendering:geometricPrecision; text-rendering:geometricPrecision; image-rendering:optimizeQuality; fill-rule:evenodd; clip-rule:evenodd"
viewBox="0 0 16933.32 16933.32"
 xmlns:xlink="http://www.w3.org/1999/xlink">
 <defs>
  <style type="text/css">
   <![CDATA[
    .fil1 {fill:white}
    .fil0 {fill:white;fill-opacity:0.549020}
   ]]>
  </style>
 </defs>
 <g id="Capa_x0020_1">
  <metadata id="CorelCorpID_0Corel-Layer"/>
  <g id="_698477848">
   <path class="fil0" d="M6915.29 10187.27l4992.6 0 -1015.07 525.07 -4134.68 0 -4162.86 -1520.71 617.91 -356.75 3702.1 1352.39zm3053.28 -4388.19l-3790.57 0 -3582.72 1342.17 443.95 256.24 3090.56 -1118.35 3358.72 0 480.06 -480.06z"/>
   <path class="fil1" d="M8521.17 8164.84l1088.14 -1088.14 1088.15 1088.14 -1088.15 1088.14 -1088.14 -1088.14zm0 0l-1088.15 1088.14 -1088.14 -1088.14 1088.14 -1088.14 1088.15 1088.14zm-653.28 -1094.27l650.94 -650.95 650.95 650.95 -650.95 650.94 -650.94 -650.94zm5.98 2188.56l650.94 650.95 650.95 -650.95 -650.95 -650.94 -650.94 650.94zm3335.42 -3642.93l-5048.2 0 -3707.58 1354.37 -88.57 -252.64 4124.37 -2326.23 4719.98 290.52 0 933.98zm-8614.01 1525.05l887.84 512.59 0 369.72 2665.42 0 0 285.75 -2665.42 0 0 369.73 -887.84 512.59 -887.84 -512.59 0 -1025.2 887.84 -512.59zm12632.24 2147.32l-3846.53 3010.2 -3968.82 244.28 -3416.81 -2013.59 -1654.41 -846.67 113.88 -324.83 4589.02 1676.37 3558.33 0 4625.34 -2392.54 0 646.78z"/>
  </g>
 </g>
</svg>
