<?xml version="1.0" encoding="UTF-8"?>
<!DOCTYPE svg PUBLIC "-//W3C//DTD SVG 1.1//EN" "http://www.w3.org/Graphics/SVG/1.1/DTD/svg11.dtd">
<!-- Creator: CorelDRAW Home & Student 2018 -->
<svg xmlns="http://www.w3.org/2000/svg" xml:space="preserve" width="169.333mm" height="169.333mm" version="1.1" style="shape-rendering:geometricPrecision; text-rendering:geometricPrecision; image-rendering:optimizeQuality; fill-rule:evenodd; clip-rule:evenodd"
viewBox="0 0 16933.32 16933.32"
 xmlns:xlink="http://www.w3.org/1999/xlink">
 <defs>
  <style type="text/css">
   <![CDATA[
    .fil1 {fill:white}
    .fil0 {fill:white;fill-opacity:0.650980}
   ]]>
  </style>
 </defs>
 <g id="Capa_x0020_1">
  <metadata id="CorelCorpID_0Corel-Layer"/>
  <g id="_692316864">
   <path class="fil0" d="M7536.22 8064.85l2510.63 0 0 -1880.66 -1044.41 0 0 -823.62 1044.41 0 0 -1248.89 -2510.63 0 0 1248.89 843.7 0 0 1647.24 -843.7 0 0 1057.04zm2510.63 823.62l-2510.63 0 0 2272.51 639.39 0 0 -1031.15 1871.24 0 0 -1241.36zm0 2272.51l-836.95 0 0 622.52 -1673.68 0 0 1242.69 2510.63 0 0 -1865.21zm0 2688.83l-2510.63 0 -2212.82 0 -1077.9 -1077.9 0 -3562.02 -649.81 -649.82 0 -2471.72 649.81 -649.82 0 -2355.02 7603.03 0 1489.12 1489.12 0 9277.18 -3290.8 0z"/>
   <path class="fil1" d="M10635.1 3671.76l973.35 0 1140.96 1140.96 0 8448.84 -2114.31 0 0 -9589.8zm-3098.88 10178.05l0 -10766.3 -3290.72 0 0 2355.02 -649.81 649.82 0 2471.72 649.81 649.82 0 3562.02 1077.9 1077.9 2212.82 0zm-2702.47 -10178.05l2114.23 0 0 9589.8 -1384.5 0 -729.73 -729.73 0 -3562.02 -588.25 -588.25 0 -2114.7 588.25 -588.25 0 -2006.85zm5213.1 10178.05l3290.8 0 0 -9277.18 -1489.12 -1489.12 -1801.68 0 0 10766.3z"/>
  </g>
 </g>
</svg>
