<?xml version="1.0" encoding="UTF-8"?>
<!DOCTYPE svg PUBLIC "-//W3C//DTD SVG 1.1//EN" "http://www.w3.org/Graphics/SVG/1.1/DTD/svg11.dtd">
<!-- Creator: CorelDRAW Home & Student 2018 -->
<svg xmlns="http://www.w3.org/2000/svg" xml:space="preserve" width="169.333mm" height="169.333mm" version="1.1" style="shape-rendering:geometricPrecision; text-rendering:geometricPrecision; image-rendering:optimizeQuality; fill-rule:evenodd; clip-rule:evenodd"
viewBox="0 0 16933.32 16933.32"
 xmlns:xlink="http://www.w3.org/1999/xlink">
 <defs>
  <style type="text/css">
   <![CDATA[
    .fil2 {fill:#FF25AD}
    .fil1 {fill:#FFD35D}
    .fil0 {fill:#FFF6C3;fill-rule:nonzero}
   ]]>
  </style>
 </defs>
 <g id="Capa_x0020_1">
  <metadata id="CorelCorpID_0Corel-Layer"/>
  <g id="_925717120">
   <path class="fil0" d="M3595.67 6088.34l0 2471.74 649.82 649.81 0 3562.03 1077.9 1077.9 2212.83 0 0 -10766.32 -2996.61 0 -294.12 0 0 2355.03 -649.82 649.81zm6451.19 7761.48l3290.81 0 0 -9277.19 -1489.13 -1489.13 -1801.68 0 0 10766.32z"/>
   <path class="fil1" d="M6947.97 13261.58l0 -9589.83 -2114.23 0 0 2006.86 -588.25 588.25 0 2114.7 588.25 588.25 0 3562.03 729.74 729.74 1384.49 0zm3687.13 -9589.83l0 9589.83 2114.32 0 0 -8448.87 -1140.96 -1140.96 -973.36 0z"/>
   <path class="fil2" d="M7536.22 8064.85l2510.64 0 0 823.62 -2510.64 0 0 -823.62zm1466.23 -2704.29l1044.41 0 0 823.63 -1044.41 0 0 -823.63zm-1466.23 7665.64l2510.64 0 0 823.62 -2510.64 0 0 -823.62zm0 -9942.7l2510.64 0 0 1028.18 -2510.64 0 0 -1028.18zm639.39 7046.33l1871.25 0 0 1031.16 -836.96 0 0 622.52 -1673.68 0 0 -622.52 639.39 0 0 -1031.16zm-639.39 -4769.27l843.7 0 0 1647.25 -843.7 0 0 -1647.25z"/>
  </g>
 </g>
</svg>
