<?xml version="1.0" encoding="UTF-8"?>
<!DOCTYPE svg PUBLIC "-//W3C//DTD SVG 1.1//EN" "http://www.w3.org/Graphics/SVG/1.1/DTD/svg11.dtd">
<!-- Creator: CorelDRAW Home & Student 2018 -->
<svg xmlns="http://www.w3.org/2000/svg" xml:space="preserve" width="169.333mm" height="169.333mm" version="1.1" style="shape-rendering:geometricPrecision; text-rendering:geometricPrecision; image-rendering:optimizeQuality; fill-rule:evenodd; clip-rule:evenodd"
viewBox="0 0 16933.32 16933.32"
 xmlns:xlink="http://www.w3.org/1999/xlink">
 <defs>
  <style type="text/css">
   <![CDATA[
    .fil1 {fill:white}
    .fil0 {fill:white;fill-opacity:0.549020}
   ]]>
  </style>
 </defs>
 <g id="Capa_x0020_1">
  <metadata id="CorelCorpID_0Corel-Layer"/>
  <g id="_928052712">
   <path class="fil0" d="M8466.67 2922.93l4801.01 2771.87 0 2202.66c-223.49,-501.84 -686.15,-873.69 -1243.17,-970.77l0 -561.85 -7115.68 0 0 561.85c-557.02,97.08 -1019.68,468.93 -1243.17,970.77l0 -2202.66 4801.01 -2771.87zm4801.01 6338.03l0 1977.56 -4801.01 2771.87 -4801.01 -2771.87 0 -1977.56c223.49,501.84 686.15,873.69 1243.17,970.77l0 148.1c0,410.66 334.34,745 745,745l2186.35 0c262.46,0 493.74,-136.58 626.49,-342.36 132.75,205.78 364.03,342.36 626.49,342.36l2186.35 0c410.66,0 745,-334.34 745,-745l0 -148.1c557.02,-97.08 1019.68,-468.93 1243.17,-970.77zm-1243.17 -186.08c170.02,-99.69 284.18,-284.35 284.18,-495.67 0,-211.32 -114.16,-395.98 -284.18,-495.67l0 991.34zm-7115.68 -991.34l0 991.34c-170.02,-99.69 -284.18,-284.35 -284.18,-495.67 0,-211.32 114.16,-395.98 284.18,-495.67z"/>
   <path class="fil1" d="M8295.18 10379.83c0,250.6 -204.4,455 -455,455l-2186.35 0c-250.6,0 -455,-204.4 -455,-455l0 -453.87c-740.43,0 -1346.75,-599.61 -1346.75,-1346.75 0,-747.14 606.32,-1346.75 1346.75,-1346.75l0 -577.62 3096.35 0 0 3724.99zm342.98 0c0,250.6 204.4,455 455,455l2186.35 0c250.6,0 455,-204.4 455,-455l0 -453.87c740.43,0 1346.75,-599.61 1346.75,-1346.75 0,-747.14 -606.32,-1346.75 -1346.75,-1346.75l0 -577.62 -3096.35 0 0 3724.99zm-171.49 -8372.22l5593.7 3229.53 0 6459.04 -5593.7 3229.53 -5593.7 -3229.53 0 -6459.04 5593.7 -3229.53zm0 544.94l5121.77 2957.06 0 5914.1 -5121.77 2957.06 -5121.77 -2957.06 0 -5914.1 5121.77 -2957.06zm3267.84 6931.54l0 -1809.76c496.84,0 904.88,402.22 904.88,904.88 0,502.66 -408.04,904.88 -904.88,904.88zm-6535.68 0l0 -1809.76c-496.84,0 -904.88,402.22 -904.88,904.88 0,502.66 408.04,904.88 904.88,904.88z"/>
  </g>
 </g>
</svg>
