<?xml version="1.0" encoding="UTF-8"?>
<!DOCTYPE svg PUBLIC "-//W3C//DTD SVG 1.1//EN" "http://www.w3.org/Graphics/SVG/1.1/DTD/svg11.dtd">
<!-- Creator: CorelDRAW Home & Student 2018 -->
<svg xmlns="http://www.w3.org/2000/svg" xml:space="preserve" width="169.333mm" height="169.333mm" version="1.1" style="shape-rendering:geometricPrecision; text-rendering:geometricPrecision; image-rendering:optimizeQuality; fill-rule:evenodd; clip-rule:evenodd"
viewBox="0 0 16933.32 16933.32"
 xmlns:xlink="http://www.w3.org/1999/xlink">
 <defs>
  <style type="text/css">
   <![CDATA[
    .fil2 {fill:white}
    .fil0 {fill:white;fill-rule:nonzero;fill-opacity:0.101961}
    .fil1 {fill:white;fill-rule:nonzero;fill-opacity:0.501961}
   ]]>
  </style>
 </defs>
 <g id="Capa_x0020_1">
  <metadata id="CorelCorpID_0Corel-Layer"/>
  <g id="_926774464">
   <path class="fil0" d="M10961.63 3540.43l1197.16 0 0 9852.82 -1221.28 0 -246.1 -246.09 -309.64 0 0 -9360.63 309.64 0 246.1 -246.1 24.12 0zm-651.91 304.3l0 9302.43 -3686.1 0 0 -9360.63 3686.1 0 0 58.2zm-5476.96 -304.3l1163.07 0 246.1 246.1 309.64 0 0 9360.63 -309.64 0 -246.12 246.09 -1221.26 0 0 -9852.82 58.21 0z"/>
   <path class="fil1" d="M12042.38 3656.84l-1056.63 0 -246.1 246.1 -241.46 0 0 9127.8 241.46 0 246.1 246.1 1056.63 0 0 -9620zm-1732.66 187.89l0 9302.43 -3686.1 0 0 -9360.63 3686.1 0 0 58.2zm-5476.96 -304.3l1163.07 0 246.1 246.1 309.64 0 0 9360.63 -309.64 0 -246.12 246.09 -1221.26 0 0 -9852.82 58.21 0zm1114.83 116.41l-1056.63 0 0 9620 1056.63 0 246.1 -246.1 241.46 0 0 -9127.8 -241.46 0 -246.1 -246.1zm4245.71 9373.9l0 -9127.8 -3453.26 0 0 9127.8 3453.26 0zm768.33 -9490.31l1197.16 0 0 9852.82 -1221.28 0 -246.1 -246.09 -309.64 0 0 -9360.63 309.64 0 246.1 -246.1 24.12 0z"/>
   <path class="fil2" d="M8466.67 8466.42l1010.74 -1010.73 1010.73 1010.73 -1010.73 1010.74 -1010.74 -1010.74 -1010.73 1010.74 -1010.74 -1010.74 1010.74 -1010.73 1010.73 1010.73zm-606.81 -1016.42l604.64 -604.64 604.64 604.64 -604.64 604.64 -604.64 -604.64zm5.56 2032.87l604.63 604.64 604.64 -604.64 -604.64 -604.64 -604.63 604.64zm2685.18 -5790.87l-4167.86 0 -369.61 -369.61 4907.08 0 -369.61 369.61zm1848.28 -305.44l-1052.3 -1052.3 -5759.82 0 -1052.3 1052.3 1087.04 0 369.61 -369.61 1048.55 0 310.59 -310.59 2232.84 0 310.59 310.59 1048.55 0 369.61 369.61 1087.04 0zm-1359.19 -1359.19l124.49 124.49 -5395.02 0 124.49 -124.49 5146.04 0zm-489.09 11214.31l-4167.86 0 -369.61 369.61 4907.08 0 -369.61 -369.61zm1848.28 305.45l-1052.3 1052.3 -5759.82 0 -1052.3 -1052.3 1087.04 0 369.61 369.61 1048.55 0 310.59 310.58 2232.84 0 310.59 -310.58 1048.55 0 369.61 -369.61 1087.04 0zm-1359.19 1359.18l124.49 -124.49 -5395.02 0 124.49 124.49 5146.04 0z"/>
  </g>
 </g>
</svg>
