<?xml version="1.0" encoding="UTF-8"?>
<!DOCTYPE svg PUBLIC "-//W3C//DTD SVG 1.1//EN" "http://www.w3.org/Graphics/SVG/1.1/DTD/svg11.dtd">
<!-- Creator: CorelDRAW Home & Student 2018 -->
<svg xmlns="http://www.w3.org/2000/svg" xml:space="preserve" width="169.333mm" height="169.333mm" version="1.1" style="shape-rendering:geometricPrecision; text-rendering:geometricPrecision; image-rendering:optimizeQuality; fill-rule:evenodd; clip-rule:evenodd"
viewBox="0 0 16933.32 16933.32"
 xmlns:xlink="http://www.w3.org/1999/xlink">
 <defs>
  <style type="text/css">
   <![CDATA[
    .fil0 {fill:white}
    .fil1 {fill:white;fill-opacity:0.549020}
   ]]>
  </style>
 </defs>
 <g id="Capa_x0020_1">
  <metadata id="CorelCorpID_0Corel-Layer"/>
  <g id="_701689944">
   <path class="fil0" d="M7544.71 9017.09l548.45 -548.45 -548.45 -548.43 -548.43 548.43 548.43 548.45zm5836.49 4422.62l-771.1 771.11 -8286.87 0 -771.1 -771.11 0 -296.02 2664.55 0 533.86 533.87 3432.25 0 533.86 -533.87 2664.55 0 0 296.02zm-3344.7 89.77l-3139.67 0 -533.53 -533.53 4206.73 0 -533.53 533.53zm3344.7 -10035.86l-771.1 -771.1 -8286.87 0 -771.1 771.1 0 296.02 2664.55 0 533.86 -533.86 3432.25 0 533.86 533.86 2664.55 0 0 -296.02zm-3344.7 -89.76l-3139.67 0 -533.53 533.52 4206.73 0 -533.53 -533.52zm-647.86 5608.19l548.45 -548.45 -548.45 -548.43 -548.43 548.43 548.43 548.45zm-921.98 1288.21l-916.78 -916.78 916.78 -916.81 916.81 916.81 -916.81 916.78zm0 -1833.59l-916.78 -916.79 916.78 -916.8 916.81 916.8 -916.81 916.79zm0 -181.26l-735.52 -735.53 735.52 -735.55 735.55 735.55 -735.55 735.53zm921.98 545.36l-367.17 -367.17 367.17 -367.17 367.17 367.17 -367.17 367.17zm-921.98 1288.23l-735.52 -735.52 735.52 -735.55 735.55 735.55 -735.55 735.52zm-921.95 -1283.19l-367.17 -367.17 367.17 -367.17 367.17 367.17 -367.17 367.17z"/>
   <path class="fil1" d="M12196.18 14624.73l-7459.04 0 -179.04 -179.05 7817.13 0 -179.05 179.05zm-2668.7 -1776.25l-2121.6 0 -125.08 -412.93 2371.75 0 -125.07 412.93zm-529.48 -2781.75l-1062.67 0 -513.08 2189.76 2088.83 0 -513.08 -2189.76zm3198.18 -7758.12l-7459.04 0 -179.04 179.04 7817.13 0 -179.05 -179.04zm-4023.68 2040.81l-1955.76 -289.33 0 372.27 1955.76 289.33 0 -372.27zm-307.43 2518.19l-287.71 0 -1360.62 -1968.78 0 -222.36 677.33 100.19 971 2090.95zm895.76 -2518.19l1955.75 -289.33 0 372.27 -1955.75 289.33 0 -372.27zm307.43 2518.19l287.71 0 1360.61 -1968.78 0 -222.36 -677.33 100.19 -970.99 2090.95z"/>
  </g>
 </g>
</svg>
