<?xml version="1.0" encoding="UTF-8"?>
<!DOCTYPE svg PUBLIC "-//W3C//DTD SVG 1.1//EN" "http://www.w3.org/Graphics/SVG/1.1/DTD/svg11.dtd">
<!-- Creator: CorelDRAW Home & Student 2018 -->
<svg xmlns="http://www.w3.org/2000/svg" xml:space="preserve" width="169.333mm" height="169.333mm" version="1.1" style="shape-rendering:geometricPrecision; text-rendering:geometricPrecision; image-rendering:optimizeQuality; fill-rule:evenodd; clip-rule:evenodd"
viewBox="0 0 16933.32 16933.32"
 xmlns:xlink="http://www.w3.org/1999/xlink">
 <defs>
  <style type="text/css">
   <![CDATA[
    .fil1 {fill:white}
    .fil0 {fill:white;fill-opacity:0.549020}
   ]]>
  </style>
 </defs>
 <g id="Capa_x0020_1">
  <metadata id="CorelCorpID_0Corel-Layer"/>
  <g id="_918125512">
   <path class="fil0" d="M9516.65 11112.4l-587.35 2054.08 -966.77 0 -587.35 -2054.08 -2167.05 1067.03 337.89 262.37 -3061.76 0 3907.74 -2375.13 425.15 0 384.23 -235.34 2489.06 0 384.22 235.34 425.16 0 3907.74 2375.13 -3061.75 0 337.89 -262.37 -2167.05 -1067.03zm-2314.61 -3522.38l2489.04 0 384.23 -235.34 545.78 0 311.28 -189.2 0 -268.62 1407.26 -855.33 441.95 0 1810.26 -1100.27 -441.96 0 404.34 -245.76 -1760.13 0 -3197.15 1574.22 -634.09 -2217.48 -156.69 0 -84.54 -295.64 -550.11 0 -84.54 295.64 -156.7 0 -634.08 2217.48 -3197.16 -1574.22 -1760.13 0 404.34 245.76 -441.96 0 1810.27 1100.27 441.95 0 1407.26 855.33 0 268.62 311.27 189.2 545.78 0 384.23 235.34z"/>
   <path class="fil1" d="M8445.92 8710.67l540.18 -540.18 540.18 540.18 -540.18 540.18 -540.18 -540.18zm-1080.37 0l540.18 -540.18 540.18 540.18 -540.18 540.18 -540.18 -540.18zm756.06 -543.22l323.14 -323.15 323.15 323.15 -323.15 323.14 -323.14 -323.14zm2.97 1086.45l323.14 323.15 323.15 -323.15 -323.15 -323.14 -323.14 323.14zm-162.05 3912.58l-886.38 -3099.81 2739.52 0 -886.37 3099.81 -966.77 0zm-2037.75 -1577.42l1163.83 -573.06 -271.46 -949.33 -425.15 0 -3907.74 2375.13 3061.76 0 -882.02 -684.86 276.21 -167.88 984.57 0zm5042.27 0l-1163.84 -573.06 271.45 -949.33 425.16 0 3907.74 2375.13 -3061.75 0 882.02 -684.86 -276.21 -167.88 -984.57 0zm-3959.72 -5234.86l-286.08 1000.48 -449.22 0 -311.27 -189.2 0 -772.82 -577.72 -351.13 -1271.49 0 -1810.27 -1100.27 1836.43 0 2869.62 1412.94zm2896.48 988.71l-2914.49 0 940.95 -3290.67 1032.58 0 940.96 3290.67zm-18.01 -988.71l286.08 1000.48 449.21 0 311.28 -189.2 0 -772.82 577.71 -351.13 1271.5 0 1810.26 -1100.27 -1836.43 0 -2869.61 1412.94z"/>
  </g>
 </g>
</svg>
