<?xml version="1.0" encoding="UTF-8"?>
<!DOCTYPE svg PUBLIC "-//W3C//DTD SVG 1.1//EN" "http://www.w3.org/Graphics/SVG/1.1/DTD/svg11.dtd">
<!-- Creator: CorelDRAW Home & Student 2018 -->
<svg xmlns="http://www.w3.org/2000/svg" xml:space="preserve" width="169.333mm" height="169.333mm" version="1.1" style="shape-rendering:geometricPrecision; text-rendering:geometricPrecision; image-rendering:optimizeQuality; fill-rule:evenodd; clip-rule:evenodd"
viewBox="0 0 16933.32 16933.32"
 xmlns:xlink="http://www.w3.org/1999/xlink">
 <defs>
  <style type="text/css">
   <![CDATA[
    .fil1 {fill:white}
    .fil0 {fill:white;fill-opacity:0.549020}
   ]]>
  </style>
 </defs>
 <g id="Capa_x0020_1">
  <metadata id="CorelCorpID_0Corel-Layer"/>
  <g id="_914721728">
   <path class="fil0" d="M5337.81 11423.84l-56.73 920.53 -2703.37 -2104.3 2103.34 357.63 656.76 826.14zm2077.8 -6174.24l-573.46 517.49 168.06 3088.69 641.82 807.36 258.3 2648.76 538.07 -1152.56 -215.87 -2009.71 -649.15 -816.58 -167.77 -3083.45zm-2971.45 -143.25l822.31 637.24 -570.77 -2388.66 -822.31 -637.23 570.77 2388.65zm7147.31 6317.49l56.73 920.53 2703.37 -2104.3 -2103.34 357.63 -656.76 826.14zm-2077.8 -6174.24l573.46 517.49 -168.06 3088.69 -641.82 807.36 -258.3 2648.76 -538.07 -1152.56 215.87 -2009.71 649.15 -816.58 167.77 -3083.45zm2971.45 -143.25l-822.31 637.24 570.77 -2388.66 822.31 -637.23 -570.77 2388.65z"/>
   <path class="fil1" d="M6374.94 12055.37l-45.27 734.61 375.53 423.31 360.59 0 880.6 1178.65 -1005.86 -243.48 -1444.53 -1628.29 89.19 -1447.18 789.75 982.38zm1707.43 2607l380.18 1122.92 -1245.15 -1332.29 864.97 209.37zm-5310.72 -7454.81l-1085.56 -641.21 544.16 -368.37 902.45 533.05 3313.51 4168.08 -50.34 816.62 -3624.22 -4508.17zm4836.22 3816.57l-371.21 1982.47 687.68 920.43 -316.47 -2902.9zm-2248.82 -4893.09l-822.31 -637.24 898.15 3758.74 957.99 1205.06 -1033.83 -4326.56zm2846.19 487.87l-129.88 -1810.38 -552.61 -655.19 181.27 3029.19 501.22 -563.62zm2349.1 5436.46l45.27 734.61 -375.53 423.31 -360.59 0 -880.6 1178.65 1005.86 -243.48 1444.53 -1628.29 -89.19 -1447.18 -789.75 982.38zm-1707.43 2607l-380.18 1122.92 1245.15 -1332.29 -864.97 209.37zm5310.72 -7454.81l1085.56 -641.21 -544.16 -368.37 -902.45 533.05 -3313.51 4168.08 50.34 816.62 3624.22 -4508.17zm-4836.22 3816.57l371.21 1982.47 -687.68 920.43 316.47 -2902.9zm2248.82 -4893.09l822.31 -637.24 -898.15 3758.74 -957.99 1205.06 1033.83 -4326.56zm-2846.19 487.87l129.88 -1810.38 552.61 -655.19 -181.27 3029.19 -501.22 -563.62zm-257.36 2949.97l947.33 -947.34 947.34 947.34 -947.34 947.33 -947.33 -947.33zm-1894.68 0l947.34 -947.34 947.33 947.34 -947.33 947.33 -947.34 -947.33zm1325.93 -952.67l566.71 -566.71 566.71 566.71 -566.71 566.71 -566.71 -566.71zm5.2 1905.36l566.72 566.71 566.71 -566.71 -566.71 -566.72 -566.72 566.72z"/>
  </g>
 </g>
</svg>
