<?xml version="1.0" encoding="UTF-8"?>
<!DOCTYPE svg PUBLIC "-//W3C//DTD SVG 1.1//EN" "http://www.w3.org/Graphics/SVG/1.1/DTD/svg11.dtd">
<!-- Creator: CorelDRAW Home & Student 2018 -->
<svg xmlns="http://www.w3.org/2000/svg" xml:space="preserve" width="169.333mm" height="169.333mm" version="1.1" style="shape-rendering:geometricPrecision; text-rendering:geometricPrecision; image-rendering:optimizeQuality; fill-rule:evenodd; clip-rule:evenodd"
viewBox="0 0 16933.32 16933.32"
 xmlns:xlink="http://www.w3.org/1999/xlink">
 <defs>
  <style type="text/css">
   <![CDATA[
    .fil0 {fill:white}
    .fil1 {fill:white;fill-opacity:0.549020}
   ]]>
  </style>
 </defs>
 <g id="Capa_x0020_1">
  <metadata id="CorelCorpID_0Corel-Layer"/>
  <g id="_922906664">
   <path class="fil0" d="M8481.46 8719.86l929.8 -929.82 929.81 929.82 -929.81 929.79 -929.8 -929.79 -929.82 929.79 -929.81 -929.79 929.81 -929.82 929.82 929.82zm-558.22 -935.05l556.22 -556.22 556.22 556.22 -556.22 556.24 -556.22 -556.24zm5.1 1870.11l556.24 556.21 556.22 -556.21 -556.22 -556.22 -556.24 556.22zm5313.96 72.05l387.8 7.83 22.83 -1131.52 -2758.72 -55.67 -7.86 389.62 2370.92 47.84 -14.97 741.9zm1166.19 -2417.43l-31.54 2064.54 387.84 5.92 37.49 -2454.19 -4334.42 -66.21 327.98 -1028.47 600.33 191.44 117.85 -369.55 -971.6 -309.84 -605.3 1898.05 4471.37 68.31zm-5621.9 6194.27l119.88 368.89 1076.34 -349.78 -852.78 -2624.19 -370.62 120.45 732.91 2255.29 -705.73 229.34zm2666.27 308.23l-1960.54 647.76 121.68 368.3 2330.58 -770.01 -1359.95 -4116.07 1079.15 -27.72 16.17 629.9 387.76 -9.96 -26.18 -1019.46 -1991.58 51.14 1402.91 4246.12zm-7742.99 -3333.99l-315.94 225.04 656.61 921.81 2247.44 -1600.83 -226.1 -317.41 -1931.5 1375.8 -430.51 -604.41zm505.93 2635.91l-1206.15 -1675.87 -314.82 226.59 1433.78 1992.17 3518.43 -2532.24 350.21 1021.12 -596.03 204.41 125.84 366.91 964.65 -330.85 -646.32 -1884.47 -3629.59 2612.23zm6720.25 -8618.1l134.27 -363.91 -1061.79 -391.75 -955.14 2588.69 365.62 134.89 820.86 -2224.79 696.18 256.87zm-1902.89 -1892.89l1940.62 705.22 132.48 -364.56 -2306.88 -838.33 -1480.59 4074.24 -864.58 -646.41 377.31 -504.65 -310.66 -232.26 -610.65 816.76 1595.58 1192.94 1527.37 -4202.95zm-3973.25 2213.8l-305.51 -239 -697.35 891.37 2173.22 1700.22 240.12 -306.94 -1867.72 -1461.2 457.24 -584.45zm-2383.67 1233.75l1264.29 -1632.45 -306.67 -237.51 -1502.92 1940.56 3427.27 2654.31 -879.59 625.81 -365.29 -513.42 -316.06 224.86 591.21 830.95 1623.3 -1154.93 -3535.54 -2738.18z"/>
   <path class="fil1" d="M11701.83 7946.51l2063.83 31.52 -12.26 802.85 494.55 530.33 28.59 -1871.72 -3967.88 -60.62 -77.35 228.29 1170.77 17.89 299.75 321.46zm-1738.94 3517.84l647.53 1959.86 -762.4 251.9 -338.66 641.21 1777.45 -587.27 -1244.94 -3768 -241.04 1.85 367.33 1111.8 -205.27 388.65zm-3954.59 -476.09l-1675.29 1205.72 -469.04 -651.71 -713.28 -130.66 1093.5 1519.35 3220.89 -2318.09 -74.08 -229.38 -950.37 683.98 -432.33 -79.21zm2741.29 -5619.2l704.98 -1939.94 754.66 274.24 662.94 -293.84 -1759.38 -639.35 -1355.38 3729.69 190.42 147.78 399.93 -1100.49 401.83 -178.09zm-3526.08 1796.39l-1631.88 -1263.84 491.65 -634.82 -77.3 -721.02 -1146.21 1480 3137.43 2429.85 198.89 -136.18 -925.74 -716.96 -46.84 -437.03z"/>
  </g>
 </g>
</svg>
