<?xml version="1.0" encoding="UTF-8"?>
<!DOCTYPE svg PUBLIC "-//W3C//DTD SVG 1.1//EN" "http://www.w3.org/Graphics/SVG/1.1/DTD/svg11.dtd">
<!-- Creator: CorelDRAW Home & Student 2018 -->
<svg xmlns="http://www.w3.org/2000/svg" xml:space="preserve" width="169.333mm" height="169.333mm" version="1.1" style="shape-rendering:geometricPrecision; text-rendering:geometricPrecision; image-rendering:optimizeQuality; fill-rule:evenodd; clip-rule:evenodd"
viewBox="0 0 16933.32 16933.32"
 xmlns:xlink="http://www.w3.org/1999/xlink">
 <defs>
  <style type="text/css">
   <![CDATA[
    .fil1 {fill:white}
    .fil0 {fill:white;fill-opacity:0.549020}
   ]]>
  </style>
 </defs>
 <g id="Capa_x0020_1">
  <metadata id="CorelCorpID_0Corel-Layer"/>
  <g id="_918149464">
   <path class="fil0" d="M14181.11 5792.91l-94.82 95.27 0 -184.07 -2528.96 -332.67 -597.88 198.95 423.83 0 174.03 -57.92 2411.45 317.21 0 173.14 3.44 0 -509.77 512.16 -2055.84 748.27 -1915.22 -241.28 0 -819.03 464.39 -463.15 780.29 -259.62 0 -86.85 -288.2 0 390.83 -130.06 421.1 42.64 252.64 -84.08 2668.69 351.06 0 220.03zm-4243.7 -399.59l-121.97 40.57 -850.83 848.55 0 1206.11 309.09 -309.07 0 120.82 2084.59 262.62 441.93 -160.84 -406.27 525.77 2250.23 -819.03 948.33 -952.77 0 -153.23 -208.9 0 208.92 -209.91 -0.02 -981.52 -121.86 -16.03 0 -156.82 -1977.54 -260.14 -2424.94 806.87 -212.02 208.05 81.26 0zm-7185.26 399.59l94.82 95.27 0 -184.07 2528.96 -332.67 597.88 198.95 -423.83 0 -174.03 -57.92 -2411.45 317.21 0 173.14 -3.44 0 509.77 512.16 2055.84 748.27 1915.23 -241.28 0 -819.03 -464.4 -463.15 -780.29 -259.62 0 -86.85 288.2 0 -390.83 -130.06 -421.1 42.64 -252.63 -84.08 -2668.7 351.06 0 220.03zm4243.71 -399.59l121.97 40.57 850.82 848.55 0 1206.11 -309.09 -309.07 0 120.82 -2084.59 262.62 -441.93 -160.84 406.27 525.77 -2250.23 -819.03 -948.33 -952.77 0 -153.23 208.9 0 -208.92 -209.91 0.02 -981.52 121.86 -16.03 0 -156.82 1977.54 -260.14 2424.94 806.87 212.02 208.05 -81.25 0zm7182.62 5747.09l-94.82 -95.27 0 184.08 -2528.96 332.67 -597.88 -198.95 423.82 0 174.04 57.92 2411.45 -317.21 0 -173.14 3.43 0 -509.76 -512.16 -2055.84 -748.28 -1915.23 241.29 0 819.02 464.4 463.15 780.29 259.62 0 86.86 -288.2 0 390.82 130.05 421.11 -42.64 252.63 84.08 2668.7 -351.05 0 -220.04zm-4243.71 399.6l-121.97 -40.57 -850.83 -848.55 0 -1206.12 309.1 309.08 0 -120.82 2084.59 -262.63 441.92 160.85 -406.26 -525.77 2250.22 819.02 948.33 952.78 0 153.23 -208.89 0 208.92 209.9 -0.03 981.52 -121.85 16.03 0 156.83 -1977.54 260.14 -2424.95 -806.88 -212.02 -208.04 81.26 0zm-7185.25 -399.6l94.82 -95.27 0 184.08 2528.95 332.67 597.89 -198.95 -423.83 0 -174.03 57.92 -2411.46 -317.21 0 -173.14 -3.43 0 509.77 -512.16 2055.83 -748.28 1915.23 241.29 0 819.02 -464.39 463.15 -780.29 259.62 0 86.86 798.64 0 121.97 -40.57 850.83 -848.55 0 -1206.12 -309.1 309.08 0 -120.82 -2084.58 -262.63 -441.93 160.85 406.27 -525.77 -2250.23 819.02 -948.33 952.78 0 153.23 208.9 0 -208.92 209.9 0.02 981.52 121.85 16.03 0 156.83 1977.55 260.14 2424.94 -806.88 212.02 -208.04 -591.7 0 -390.83 130.05 -421.1 -42.64 -252.64 84.08 -2668.69 -351.05 0 -220.04z"/>
   <path class="fil1" d="M8466.63 8466.66l478.68 -478.68 478.69 478.68 -478.69 478.68 -478.68 -478.68 -478.69 478.68 -478.68 -478.68 478.68 -478.68 478.69 478.68zm-287.38 -481.38l286.35 -286.35 286.35 286.35 -286.35 286.36 -286.35 -286.36zm2.62 962.77l286.37 286.35 286.35 -286.35 -286.35 -286.36 -286.37 286.36zm2777.58 -3377.66l423.83 0 174.03 -57.92 2411.45 317.21 0 173.14 117.53 0 0 -298.71 -2528.96 -332.67 -597.88 198.95zm2539.6 1213.35l-1698.83 618.34 -406.27 525.77 2250.23 -819.03 948.33 -952.77 0 -153.23 -316.18 0 -777.28 780.92zm-2763 -1303.57l0 -86.85 -798.64 0 -121.97 40.57 -850.83 848.55 0 1206.11 309.09 -309.07 0 -759.46 682.06 -680.23 780.29 -259.62zm3484.79 97.93l0 214.81 371.67 0.03 0 -981.55 -2082.78 -273.98 -2023.42 673.27 -15.4 15.38 367.77 37.2 421.1 42.64 252.64 -84.08 2708.42 356.28zm-8247.03 -7.71l-423.83 0 -174.03 -57.92 -2411.45 317.21 0 173.14 -117.53 0 0 -298.71 2528.96 -332.67 597.88 198.95zm-2539.6 1213.35l1698.83 618.34 406.27 525.77 -2250.23 -819.03 -948.33 -952.77 0 -153.23 316.18 0 777.28 780.92zm2763 -1303.57l0 -86.85 798.65 0 121.97 40.57 850.82 848.55 0 1206.11 -309.09 -309.07 0 -759.46 -682.06 -680.23 -780.29 -259.62zm-3484.79 97.93l0 214.81 -371.67 0.03 0 -981.55 2082.78 -273.98 2023.43 673.27 15.39 15.38 -367.77 37.2 -421.1 42.64 -252.63 -84.08 -2708.43 356.28zm8244.4 5784.84l423.82 0 174.04 57.92 2411.45 -317.21 0 -173.14 117.53 0 0 298.71 -2528.96 332.67 -597.88 -198.95zm2539.6 -1213.35l-1698.84 -618.34 -406.26 -525.77 2250.22 819.02 948.33 952.78 0 153.23 -316.17 0 -777.28 -780.92zm-2763 1303.56l0 86.86 -798.65 0 -121.97 -40.57 -850.83 -848.55 0 -1206.12 309.1 309.08 0 759.46 682.06 680.22 780.29 259.62zm3484.79 -97.92l0 -214.82 371.66 -0.02 0 981.54 -2082.77 273.98 -2023.43 -673.27 -15.39 -15.37 367.76 -37.21 421.11 -42.64 252.63 84.08 2708.43 -356.27zm-8247.03 7.71l-423.83 0 -174.03 57.92 -2411.46 -317.21 0 -173.14 -117.52 0 0 298.71 2528.95 332.67 597.89 -198.95zm-2539.61 -1213.35l1698.84 -618.34 406.27 -525.77 -2250.23 819.02 -948.33 952.78 0 153.23 316.17 0 777.28 -780.92zm2763.01 1303.56l0 86.86 798.64 0 121.97 -40.57 850.83 -848.55 0 -1206.12 -309.1 309.08 0 759.46 -682.05 680.22 -780.29 259.62zm-3484.79 -97.92l0 -214.82 -371.67 -0.02 0 981.54 2082.78 273.98 2023.42 -673.27 15.4 -15.37 -367.77 -37.21 -421.1 -42.64 -252.64 84.08 -2708.42 -356.27z"/>
  </g>
 </g>
</svg>
