<?xml version="1.0" encoding="UTF-8"?>
<!DOCTYPE svg PUBLIC "-//W3C//DTD SVG 1.1//EN" "http://www.w3.org/Graphics/SVG/1.1/DTD/svg11.dtd">
<!-- Creator: CorelDRAW Home & Student 2018 -->
<svg xmlns="http://www.w3.org/2000/svg" xml:space="preserve" width="169.333mm" height="169.333mm" version="1.1" style="shape-rendering:geometricPrecision; text-rendering:geometricPrecision; image-rendering:optimizeQuality; fill-rule:evenodd; clip-rule:evenodd"
viewBox="0 0 16933.32 16933.32"
 xmlns:xlink="http://www.w3.org/1999/xlink">
 <defs>
  <style type="text/css">
   <![CDATA[
    .fil1 {fill:white}
    .fil0 {fill:white;fill-opacity:0.549020}
   ]]>
  </style>
 </defs>
 <g id="Capa_x0020_1">
  <metadata id="CorelCorpID_0Corel-Layer"/>
  <g id="_914695496">
   <path class="fil0" d="M7844.47 9936.13l-1089.28 2433.58 0 867.49 -411.69 -228.67 0 -766.82 1503.06 -2580.53 1240.21 0 1503.07 2580.53 0 766.82 -411.7 228.67 0 -867.49 -1089.27 -2433.58 -1244.4 0zm0 -2938.94l-1089.28 -2433.58 0 -867.49 -411.69 228.67 0 766.82 1503.06 2580.54 1240.21 0 1503.07 -2580.54 0 -766.82 -411.7 -228.67 0 867.49 -1089.27 2433.58 -1244.4 0zm2091.67 2091.67l2433.59 1089.27 867.48 0 -228.67 411.7 -766.82 0 -2580.54 -1503.07 0 -1240.2 2580.54 -1503.07 766.82 0 228.67 411.7 -867.48 0 -2433.59 1089.27 0 1244.4zm-2938.94 0l-2433.59 1089.27 -867.48 0 228.67 411.7 766.82 0 2580.53 -1503.07 0 -1240.2 -2580.53 -1503.07 -766.82 0 -228.67 411.7 867.48 0 2433.59 1089.27 0 1244.4z"/>
   <path class="fil1" d="M8466.66 8466.66l526.3 -526.31 526.31 526.31 -526.31 526.3 -526.3 -526.3 -526.32 526.3 -526.31 -526.3 526.31 -526.31 526.32 526.31zm-315.98 -529.28l314.84 -314.84 314.85 314.84 -314.85 314.86 -314.84 -314.86zm2.89 1058.56l314.85 314.84 314.84 -314.84 -314.84 -314.84 -314.85 314.84zm2673.96 3298.88l0 840.14 -1255.56 697.35 -2210.6 0 -1255.56 -697.35 0 -840.14 1456.68 -2500.91 -224.69 0 -1504.83 2408.15 0 1600.68 1344.15 1334.52 2579.09 0 1344.16 -1334.52 0 -1600.68 -1504.83 -2408.15 -224.69 0 1456.68 2500.91zm0 -7656.32l0 -840.14 -1255.56 -697.35 -2210.6 0 -1255.56 697.35 0 840.14 1456.68 2500.91 -224.69 0 -1504.83 -2408.15 0 -1600.68 1344.15 -1334.51 2579.09 0 1344.16 1334.51 0 1600.68 -1504.83 2408.15 -224.69 0 1456.68 -2500.91zm1467.3 1467.3l840.14 0 697.35 1255.56 0 2210.6 -697.35 1255.56 -840.14 0 -2500.91 -1456.68 0 224.69 2408.16 1504.83 1600.68 0 1334.51 -1344.16 0 -2579.08 -1334.51 -1344.15 -1600.68 0 -2408.16 1504.82 0 224.69 2500.91 -1456.68zm-7656.32 0l-840.14 0 -697.36 1255.56 0 2210.6 697.36 1255.56 840.14 0 2500.91 -1456.68 0 224.69 -2408.16 1504.83 -1600.68 0 -1334.51 -1344.16 0 -2579.08 1334.51 -1344.15 1600.68 0 2408.16 1504.82 0 224.69 -2500.91 -1456.68zm-1748.33 1072.82l770.77 -1072.82 -465.19 0 -781.42 1087.63 0 2546.47 781.42 1087.62 465.19 0 -770.77 -1072.82 0 -2576.08zm11152.98 0l-770.78 -1072.82 465.2 0 781.42 1087.63 0 2546.47 -781.42 1087.62 -465.2 0 770.78 -1072.82 0 -2576.08zm-4288.45 -4288.44l1072.82 770.77 0 -465.19 -1087.62 -781.43 -2546.48 0 -1087.62 781.43 0 465.19 1072.81 -770.77 2576.09 0zm0 11152.97l1072.82 -770.78 0 465.2 -1087.62 781.42 -2546.48 0 -1087.62 -781.42 0 -465.2 1072.81 770.78 2576.09 0z"/>
  </g>
 </g>
</svg>
