<?xml version="1.0" encoding="UTF-8"?>
<!DOCTYPE svg PUBLIC "-//W3C//DTD SVG 1.1//EN" "http://www.w3.org/Graphics/SVG/1.1/DTD/svg11.dtd">
<!-- Creator: CorelDRAW Home & Student 2018 -->
<svg xmlns="http://www.w3.org/2000/svg" xml:space="preserve" width="169.333mm" height="169.333mm" version="1.1" style="shape-rendering:geometricPrecision; text-rendering:geometricPrecision; image-rendering:optimizeQuality; fill-rule:evenodd; clip-rule:evenodd"
viewBox="0 0 16933.32 16933.32"
 xmlns:xlink="http://www.w3.org/1999/xlink">
 <defs>
  <style type="text/css">
   <![CDATA[
    .fil1 {fill:white}
    .fil0 {fill:white;fill-opacity:0.549020}
   ]]>
  </style>
 </defs>
 <g id="Capa_x0020_1">
  <metadata id="CorelCorpID_0Corel-Layer"/>
  <g id="_697713640">
   <path class="fil0" d="M5090.37 4567.56l664.94 -1888.07 -3775.99 3642.77 3111.05 -1754.7zm5438.31 -2804.42l-4294.15 2421.99 1892.75 116.5 2401.4 -2538.49zm-5055.64 4536.15l7404.39 0 -1140.5 -480.06 -6215.68 0 -3582.73 1342.17 443.96 256.24 3090.56 -1118.35zm-381.35 5593.42l664.94 1888.08 -3776 -3642.78 3111.06 1754.7zm6311.34 3291.85l-4227.38 -2384.34 2405.23 -148.04 1822.15 2532.38zm-5144.5 -4977.14l4992.6 0 -1015.07 525.07 -4134.68 0 -4162.86 -1520.71 617.91 -356.75 3702.1 1352.39z"/>
   <path class="fil1" d="M7864.41 8184.99l1088.15 -1088.14 1088.14 1088.14 -1088.14 1088.15 -1088.15 -1088.15 -1088.14 1088.15 -1088.15 -1088.15 1088.15 -1088.14 1088.14 1088.14zm-653.28 -1094.27l650.95 -650.94 650.94 650.94 -650.94 650.95 -650.95 -650.95zm5.98 2188.56l650.94 650.95 650.95 -650.95 -650.95 -650.94 -650.94 650.94zm-5508.92 -2541.2l88.57 252.65 3707.57 -1354.38 7345.95 0 -2205.39 -928.3 -4812.33 -296.2 -4124.37 2326.23zm-24 2964.86l113.88 -324.83 4589.02 1676.37 3558.34 0 5945.96 -3075.65 -311.76 540.37 -4855.4 3799.72 -3968.82 244.28 -3416.8 -2013.59 -1654.42 -846.67zm254.33 -2541.54l887.85 512.59 0 369.73 2665.41 0 0 285.75 -2665.41 0 0 369.72 -887.85 512.59 -887.84 -512.59 0 -1025.2 887.84 -512.59z"/>
  </g>
 </g>
</svg>
