<?xml version="1.0" encoding="UTF-8"?>
<!DOCTYPE svg PUBLIC "-//W3C//DTD SVG 1.1//EN" "http://www.w3.org/Graphics/SVG/1.1/DTD/svg11.dtd">
<!-- Creator: CorelDRAW Home & Student 2018 -->
<svg xmlns="http://www.w3.org/2000/svg" xml:space="preserve" width="169.333mm" height="169.333mm" version="1.1" style="shape-rendering:geometricPrecision; text-rendering:geometricPrecision; image-rendering:optimizeQuality; fill-rule:evenodd; clip-rule:evenodd"
viewBox="0 0 16933.32 16933.32"
 xmlns:xlink="http://www.w3.org/1999/xlink">
 <defs>
  <style type="text/css">
   <![CDATA[
    .fil0 {fill:white}
    .fil1 {fill:white;fill-opacity:0.549020}
   ]]>
  </style>
 </defs>
 <g id="Capa_x0020_1">
  <metadata id="CorelCorpID_0Corel-Layer"/>
  <g id="_917413696">
   <path class="fil0" d="M8466.67 8524.8l936.01 -936.01 936.01 936.01 -936.01 936.01 -936.01 -936.01 -936.01 936.01 -936.01 -936.01 936.01 -936.01 936.01 936.01zm-561.95 -941.28l559.94 -559.93 559.94 559.93 -559.94 559.94 -559.94 -559.94zm5.15 1882.58l559.93 559.94 559.94 -559.94 -559.94 -559.93 -559.93 559.93zm556.8 -7615.16l-1028.47 1648.12 2056.94 0 -1028.47 -1648.12zm-4535.9 3595.33l-429.75 429.73 871.44 3823.9 -668.55 -426.23 -722.58 -3170.63 895.14 -895.11 54.3 238.34zm4535.9 9540.15l-1028.47 -1648.12 2056.94 0 -1028.47 1648.12zm1402.52 -2324.11l-264.69 -264.69 576.5 0 -216.65 -216.65 1970.7 -8647.47 704.55 -449.14 544.24 5.33 -804.11 3528.46 124.5 375.33 -693.07 486.67 -263.6 1156.7 -809.18 515.86 -388.27 1703.78 550.3 -350.82 210.47 -923.56 816.34 -520.44 302.56 -1327.63 604.9 -424.75 -590.87 2592.74 -716.54 456.8 -463.06 2031.95 199.9 0 -482.29 482.22 -4630.3 0 -482.29 -482.22 199.9 0 -463.06 -2031.95 -716.54 -456.8 -590.87 -2592.74 604.9 424.75 302.56 1327.63 816.34 520.44 210.47 923.56 550.3 350.82 -388.27 -1703.78 -809.18 -515.86 -263.6 -1156.7 -693.07 -486.67 124.5 -375.33 -804.11 -3528.46 544.24 -5.33 704.55 449.14 1970.7 8647.47 -216.65 216.65 576.5 0 -264.69 264.69 2805.04 0zm-379.51 -8342.41l-233.96 233.96 -1578.1 0 -233.96 -233.96 2046.02 0zm770.24 881.21l1298.25 -827.64 159.89 -701.63 -750.36 478.37 -185.88 -185.85 -4630.3 0 -185.88 185.85 -750.36 -478.37 159.89 701.63 1298.25 827.64 -257.04 -761.37 912.46 0 -264.69 -264.69 2805.04 0 -264.69 264.69 912.46 0 -257.04 761.37zm2742.65 245.16l429.75 429.73 -871.44 3823.9 668.55 -426.23 722.58 -3170.63 -895.14 -895.11 -54.3 238.34zm-3512.89 7071.19l-233.96 -233.96 -1578.1 0 -233.96 233.96 2046.02 0zm-2827.68 -1315.3l148.23 650.4 -550.3 -350.83 -148.23 -650.42 550.3 350.85zm3609.34 0l-148.23 650.4 550.3 -350.83 148.23 -650.42 -550.3 350.85z"/>
   <path class="fil1" d="M6752.81 5496.51l-475.41 2040.6 -551.59 -2420.36 33.67 -101.51 754.94 481.27 238.39 0zm7.3 -1056.77l141.34 418.71 53.75 -230.71 -135.52 -188 -59.57 0zm-2450.58 9303.82l639.58 -423.27 375.73 -1648.72 -264.33 -1159.87 -496.77 -316.71 -808.71 3548.57 554.5 0zm-956.91 -4625.62l-367.39 1612.11 895.13 895.11 54.3 -238.34 -429.75 -429.73 263.17 -1154.71 88.21 -58.4 -422.36 -269.27 -81.31 -356.77zm2152.79 3278.68l-139.11 92.07 -149.09 654.2 477.73 -316.19 -118.52 -118.49 -71.01 -311.59zm7118.4 1346.94l-639.58 -423.27 -375.73 -1648.72 264.33 -1159.87 496.77 -316.71 808.71 3548.57 -554.5 0zm-1195.88 -1346.94l139.11 92.07 149.09 654.2 -477.73 -316.19 118.52 -118.49 71.01 -311.59zm-1254.7 -7956.88l-141.34 418.71 -53.75 -230.71 135.52 -188 59.57 0zm7.3 1056.77l475.41 2040.6 551.59 -2420.36 -33.67 -101.51 -754.94 481.27 -238.39 0zm3400.19 3621.43l367.39 1612.11 -895.13 895.11 -54.3 -238.34 429.75 -429.73 -263.17 -1154.71 -88.21 -58.4 422.36 -269.27 81.31 -356.77z"/>
  </g>
 </g>
</svg>
