<?xml version="1.0" encoding="UTF-8"?>
<!DOCTYPE svg PUBLIC "-//W3C//DTD SVG 1.1//EN" "http://www.w3.org/Graphics/SVG/1.1/DTD/svg11.dtd">
<!-- Creator: CorelDRAW Home & Student 2018 -->
<svg xmlns="http://www.w3.org/2000/svg" xml:space="preserve" width="169.333mm" height="169.333mm" version="1.1" style="shape-rendering:geometricPrecision; text-rendering:geometricPrecision; image-rendering:optimizeQuality; fill-rule:evenodd; clip-rule:evenodd"
viewBox="0 0 16933.32 16933.32"
 xmlns:xlink="http://www.w3.org/1999/xlink">
 <defs>
  <style type="text/css">
   <![CDATA[
    .fil2 {fill:white}
    .fil0 {fill:white;fill-opacity:0.101961}
    .fil1 {fill:white;fill-opacity:0.549020}
    .fil3 {fill:white;fill-opacity:0.549020}
   ]]>
  </style>
 </defs>
 <g id="Capa_x0020_1">
  <metadata id="CorelCorpID_0Corel-Layer"/>
  <g id="_917431480">
   <path class="fil0" d="M9639.41 4593.07l-2345.85 0 0 7747.2 2345.85 0 0 -7747.2zm705.93 0l-587.5 0 0 7747.2 587.5 0 0 -7747.2zm-3757.7 7747.2l587.49 0 0 -7747.2 -587.49 0 0 7747.2z"/>
   <path class="fil1" d="M9639.41 4593.07l0 7747.2 -2345.85 0 0 -7747.2 2345.85 0zm587.27 58.75l0 7629.7 -410.24 0 0 -7629.7 410.24 0zm-3520.39 0l0 7629.7 410.25 0 0 -7629.7 -410.25 0zm-118.65 -58.75l587.49 0 0 7747.2 -587.49 0 0 -7747.2zm3757.7 0l-587.5 0 0 7747.2 587.5 0 0 -7747.2zm-764.52 58.75l-2228.66 0 0 7629.7 2228.66 0 0 -7629.7z"/>
   <path class="fil2" d="M5914.72 13460.19l0 -982.09 -441.59 441.57 0 1006.39 1476.43 1051.83 490.18 0 0 -961.66 -1372.59 0 -390.98 -556.04 238.55 0zm2551.77 -4993.53l786.66 -786.66 786.67 786.66 -786.67 786.67 -786.66 -786.67 -786.67 786.67 -786.66 -786.67 786.66 -786.66 786.67 786.66zm-472.29 -791.09l470.6 -470.59 470.59 470.59 -470.59 470.59 -470.6 -470.59zm4.33 1582.2l470.59 470.59 470.6 -470.59 -470.6 -470.59 -470.59 470.59zm3019.73 4202.42l0 -982.09 441.58 441.57 0 1006.39 -1476.43 1051.83 -490.17 0 0 -961.66 1372.59 0 390.97 -556.04 -238.54 0zm-854.98 -909.79l-3393.58 0 -400.09 527.37 4193.76 0 -400.09 -527.37zm674.3 1054.7l-124.02 176.38 -4494.14 0 -124.02 -176.38 4742.18 0zm-4918.54 -10131.95l0 982.09 -441.58 -441.57 0 -1006.39 1476.43 -1051.83 490.17 0 0 961.66 -1372.59 0 -390.97 556.04 238.54 0zm5103.54 0l0 982.09 441.59 -441.57 0 -1006.39 -1476.43 -1051.83 -490.18 0 0 961.66 1372.59 0 390.98 556.04 -238.55 0zm-854.98 909.79l-3393.58 0 -400.09 -527.37 4193.76 0 -400.09 527.37zm674.3 -1054.7l-124.02 -176.38 -4494.14 0 -124.01 176.38 4742.17 0z"/>
   <path class="fil3" d="M5473.13 14240.89l1034.49 737 -1034.49 0 0 -737zm1027.99 -1876.6l-415.03 547.08 264.29 -2738.8 150.74 0 0 2191.72zm4958.72 1876.6l-1034.49 737 1034.49 0 0 -737zm-674.8 -985.87l0 175.14 -4637.1 0 0 -175.14 4637.1 0zm-353.19 -890.73l415.04 547.08 -264.29 -2738.8 -150.75 0 0 2191.72zm-4954.39 -9671.84l1034.49 -737 -1034.49 0 0 737zm1027.99 1876.6l-415.04 -547.08 264.29 2738.8 150.75 0 0 -2191.72zm4958.72 -1876.6l-1034.49 -737 1034.49 0 0 737zm-674.81 985.87l0 -175.14 -4637.1 0 0 175.14 4637.1 0zm-353.18 890.73l415.03 -547.08 -264.29 2738.8 -150.74 0 0 -2191.72z"/>
  </g>
 </g>
</svg>
