<?xml version="1.0" encoding="UTF-8"?>
<!DOCTYPE svg PUBLIC "-//W3C//DTD SVG 1.1//EN" "http://www.w3.org/Graphics/SVG/1.1/DTD/svg11.dtd">
<!-- Creator: CorelDRAW Home & Student 2018 -->
<svg xmlns="http://www.w3.org/2000/svg" xml:space="preserve" width="169.333mm" height="169.333mm" version="1.1" style="shape-rendering:geometricPrecision; text-rendering:geometricPrecision; image-rendering:optimizeQuality; fill-rule:evenodd; clip-rule:evenodd"
viewBox="0 0 16933.32 16933.32"
 xmlns:xlink="http://www.w3.org/1999/xlink">
 <defs>
  <style type="text/css">
   <![CDATA[
    .fil1 {fill:white}
    .fil0 {fill:white;fill-opacity:0.549020}
   ]]>
  </style>
 </defs>
 <g id="Capa_x0020_1">
  <metadata id="CorelCorpID_0Corel-Layer"/>
  <g id="_698115640">
   <path class="fil0" d="M10597.19 11112.95l-4258.84 0 -550.31 317.72 5359.46 0 -550.31 -317.72zm-1680.37 -5075.31l0 635.43 2107.42 3650.14 550.29 317.72 -2657.71 -4603.29zm-898.08 0l0 635.43 -2107.42 3650.14 -550.29 317.72 2657.71 -4603.29z"/>
   <path class="fil1" d="M10944.76 10510.95l-246.09 426.22 2772.04 1600.44 492.16 0 -246.08 -426.23 -2772.03 -1600.43zm-2230.9 -3864.02l-492.17 0 0 -3200.87 246.08 -426.22 246.09 426.22 0 3200.87zm202.96 -1865.01l3745.18 6486.86 852.45 492.16 -4597.63 -7963.33 0 984.31zm-2926.02 5729.03l246.09 426.22 -2772.04 1600.44 -492.15 0 246.08 -426.23 2772.02 -1600.43zm7073.97 2026.66l-852.08 -491.96 -7489.8 0 -852.11 491.96 9193.99 0zm-5046.03 -7755.69l-3745.18 6486.86 -852.45 492.16 4597.63 -7963.33 0 984.31zm-82.64 5741.32l-751.85 -1311.57 -751.83 1311.57 1503.68 0zm-562.73 -1641.5l940.96 1641.5 2188.78 0 -2035.35 -3550.63 -1094.39 1909.13z"/>
  </g>
 </g>
</svg>
