<?xml version="1.0" encoding="UTF-8"?>
<!DOCTYPE svg PUBLIC "-//W3C//DTD SVG 1.1//EN" "http://www.w3.org/Graphics/SVG/1.1/DTD/svg11.dtd">
<!-- Creator: CorelDRAW Home & Student 2018 -->
<svg xmlns="http://www.w3.org/2000/svg" xml:space="preserve" width="169.333mm" height="169.333mm" version="1.1" style="shape-rendering:geometricPrecision; text-rendering:geometricPrecision; image-rendering:optimizeQuality; fill-rule:evenodd; clip-rule:evenodd"
viewBox="0 0 16933.32 16933.32"
 xmlns:xlink="http://www.w3.org/1999/xlink">
 <defs>
  <style type="text/css">
   <![CDATA[
    .fil1 {fill:white}
    .fil0 {fill:white;fill-opacity:0.549020}
   ]]>
  </style>
 </defs>
 <g id="Capa_x0020_1">
  <metadata id="CorelCorpID_0Corel-Layer"/>
  <g id="_896944880">
   <path class="fil0" d="M4665.78 4817.52l9149.51 0 0 5750.56 -1547.73 1547.72 -9149.51 0 0 -5750.56 1547.73 -1547.72zm7336.59 3633.18l-2527.98 1459.54 -2527.98 1459.51 0 -2919.05 0 -2919.05 2527.98 1459.51 2527.98 1459.54z"/>
   <path class="fil1" d="M13815.29 4417.3l0 -290.69 -11026.92 0 0 1809.31 1518.62 -1518.62 9508.3 0zm-10697.24 8098.72l0 290.69 11026.92 0 0 -1809.31 -1518.62 1518.62 -9508.3 0zm8273.18 -4065.32l-4188.83 2418.42 0 -4836.84 4188.83 2418.42z"/>
  </g>
 </g>
</svg>
