<?xml version="1.0" encoding="UTF-8"?>
<!DOCTYPE svg PUBLIC "-//W3C//DTD SVG 1.1//EN" "http://www.w3.org/Graphics/SVG/1.1/DTD/svg11.dtd">
<!-- Creator: CorelDRAW Home & Student 2018 -->
<svg xmlns="http://www.w3.org/2000/svg" xml:space="preserve" width="169.333mm" height="169.333mm" version="1.1" style="shape-rendering:geometricPrecision; text-rendering:geometricPrecision; image-rendering:optimizeQuality; fill-rule:evenodd; clip-rule:evenodd"
viewBox="0 0 16933.32 16933.32"
 xmlns:xlink="http://www.w3.org/1999/xlink">
 <defs>
  <style type="text/css">
   <![CDATA[
    .fil1 {fill:white}
    .fil0 {fill:white;fill-opacity:0.549020}
   ]]>
  </style>
 </defs>
 <g id="Capa_x0020_1">
  <metadata id="CorelCorpID_0Corel-Layer"/>
  <g id="_693217768">
   <path class="fil0" d="M3933.86 6755.35l1638.39 -1638.4 2431.11 2431.12 -597.45 597.78 2121.51 0 -597.44 -597.77 2431.11 -2431.13 1638.39 1638.4 927.06 0 -2565.45 -2566.89 -2894.43 2896.02 -2894.41 -2896.02 -2565.47 2566.89 927.08 0zm4069.5 2655.37l-2431.11 2431.12 -1737.67 -1737.68 -927.02 0 2664.69 2666.17 2894.41 -2896.04 2894.43 2896.04 2664.69 -2666.17 -927.02 0 -1737.67 1737.68 -2431.11 -2431.12 597.45 -597.77 -2121.52 0 597.45 597.77zm-4529.06 333.16l-1264.48 -1264.48 653.08 -653.08 -926.49 0 -652.71 653.08 1263.78 1264.48 926.82 0zm11522.61 -1917.56l-926.47 0 653.07 653.08 -1264.47 1264.48 926.81 0 1263.78 -1264.48 -652.72 -653.08z"/>
   <path class="fil1" d="M5572.25 8479.39l870.05 -870.06 870.06 870.06 -870.06 870.07 -870.05 -870.07 -870.06 870.07 -870.06 -870.07 870.06 -870.06 870.06 870.06zm-522.35 -874.96l520.48 -520.48 520.48 520.48 -520.48 520.49 -520.48 -520.49zm4.78 1749.94l520.48 520.49 520.48 -520.49 -520.48 -520.48 -520.48 520.48zm6306.41 -874.98l870.06 -870.06 870.05 870.06 -870.05 870.07 -870.06 -870.07 -870.06 870.07 -870.06 -870.07 870.06 -870.06 870.06 870.06zm-522.35 -874.96l520.48 -520.48 520.48 520.48 -520.48 520.49 -520.48 -520.49zm4.78 1749.94l520.48 520.49 520.48 -520.49 -520.48 -520.48 -520.48 520.48zm-7825.17 389.51l-1263.79 -1264.48 652.72 -653.08 -470.87 0 -652.71 653.08 1263.78 1264.48 470.87 0zm360.07 360.28l-470.86 0 2664.69 2666.17 2733.23 -2734.78 0 2760.98 322.34 0 0 -2760.99 2733.27 2734.79 2664.69 -2666.17 -470.87 0 -2193.82 2195.05 -2658.99 -2660.48 -235.43 -235.55 -2894.42 2896.03 -2193.83 -2195.05zm7982.67 -5915.7l-2733.27 2734.78 0 -2803.57 -322.34 0 0 2803.55 -2733.23 -2734.76 -2565.47 2566.89 470.87 0 2094.6 -2095.76 2894.41 2896.03 2894.43 -2896.03 2094.59 2095.76 470.86 0 -2565.45 -2566.89zm3164.96 3637.86l652.71 653.08 -1263.77 1264.48 470.86 0 1263.78 -1264.48 -652.72 -653.08 -470.86 0z"/>
  </g>
 </g>
</svg>
