<?xml version="1.0" encoding="UTF-8"?>
<!DOCTYPE svg PUBLIC "-//W3C//DTD SVG 1.1//EN" "http://www.w3.org/Graphics/SVG/1.1/DTD/svg11.dtd">
<!-- Creator: CorelDRAW Home & Student 2018 -->
<svg xmlns="http://www.w3.org/2000/svg" xml:space="preserve" width="169.333mm" height="169.333mm" version="1.1" style="shape-rendering:geometricPrecision; text-rendering:geometricPrecision; image-rendering:optimizeQuality; fill-rule:evenodd; clip-rule:evenodd"
viewBox="0 0 16933.32 16933.32"
 xmlns:xlink="http://www.w3.org/1999/xlink">
 <defs>
  <style type="text/css">
   <![CDATA[
    .fil1 {fill:white}
    .fil0 {fill:white;fill-opacity:0.549020}
   ]]>
  </style>
 </defs>
 <g id="Capa_x0020_1">
  <metadata id="CorelCorpID_0Corel-Layer"/>
  <g id="_914709104">
   <path class="fil0" d="M8461.1 8461.73l1698.49 -1698.49 1698.5 1698.49 -1698.5 1698.49 -1698.49 -1698.49 -1698.49 1698.49 -1698.49 -1698.49 1698.49 -1698.49 1698.49 1698.49zm-1019.71 -1708.05l1016.06 -1016.06 1016.07 1016.06 -1016.07 1016.06 -1016.06 -1016.06zm9.33 3416.14l1016.07 1016.06 1016.06 -1016.06 -1016.06 -1016.06 -1016.07 1016.06z"/>
   <path class="fil1" d="M3439.13 12024.88l-1047.74 -1385.6 0 -4363.23 1047.74 -1385.6 -119.6 -120.89 -1337.6 1310.44 0 1753.75 -234.16 0 0 1255.69 234.16 0 0 1745.9 1337.6 1310.44 119.6 -120.9zm10062.6 0l1047.74 -1385.6 0 -4363.23 -1047.74 -1385.6 119.61 -120.89 1337.59 1310.44 0 1753.75 234.16 0 0 1255.69 -234.16 0 0 1745.9 -1337.59 1310.44 -119.61 -120.9zm-10603.84 -1788.67l0 -908.43 -114.43 -52.67 0 -1625.05 114.43 -55.48 0 -890.83 405.94 -520.64 -208.41 -203.59 4703.13 -3349.4 0 216.11 -4203.12 3621.72 -139.85 -136.61 -340.07 436.16 0 721.55 983.57 -476.93 4020.22 368.6 0 1671.27 -3882.53 892.06 -1121.26 -516.1 0 744.51 340.07 436.16 139.85 -136.61 4203.12 3621.73 0 216.11 -4703.13 -3349.41 208.41 -203.59 -405.94 -520.64zm10968.7 -1209.68l-741.54 93.7 -3852.19 2986.54 0 969.35 3299.37 -1336.78 1494.55 -1155.45 0 -3781.81 -527.58 -1099.68 -4267.16 -2748.52 0 698.85 4594.55 3465.67 0 326.48 -278.78 0 0 1425.54 278.78 0 0 156.11z"/>
  </g>
 </g>
</svg>
