<?xml version="1.0" encoding="UTF-8"?>
<!DOCTYPE svg PUBLIC "-//W3C//DTD SVG 1.1//EN" "http://www.w3.org/Graphics/SVG/1.1/DTD/svg11.dtd">
<!-- Creator: CorelDRAW Home & Student 2018 -->
<svg xmlns="http://www.w3.org/2000/svg" xml:space="preserve" width="169.333mm" height="169.333mm" version="1.1" style="shape-rendering:geometricPrecision; text-rendering:geometricPrecision; image-rendering:optimizeQuality; fill-rule:evenodd; clip-rule:evenodd"
viewBox="0 0 16933.32 16933.32"
 xmlns:xlink="http://www.w3.org/1999/xlink">
 <defs>
  <style type="text/css">
   <![CDATA[
    .fil1 {fill:white}
    .fil0 {fill:white;fill-opacity:0.549020}
   ]]>
  </style>
 </defs>
 <g id="Capa_x0020_1">
  <metadata id="CorelCorpID_0Corel-Layer"/>
  <g id="_914621000">
   <path class="fil0" d="M4518.1 9337.5l1420.08 1420.07 8664.45 0c0,-4581.76 0,0 0,-4581.76l-11603.89 0 -667.99 667.94 0 269.41 303.04 0 0 1368.81 -303.04 0 0 855.53 2187.35 0z"/>
   <g>
    <path class="fil1" d="M11159.22 8093.58l766.97 -766.97 766.96 766.97 -766.96 766.96 -766.97 -766.96 -766.97 766.96 -766.96 -766.96 766.96 -766.97 766.97 766.97zm-460.46 -771.29l458.81 -458.81 458.81 458.81 -458.81 458.81 -458.81 -458.81zm4.22 1542.59l458.81 458.81 458.81 -458.81 -458.81 -458.82 -458.81 458.82zm1843.11 -2071.66l356.45 -617.41 1700.09 0 0 4581.76 -4345.38 0 469.02 -812.36c139.04,32.37 284.03,49.49 432.94,49.49 1049.95,0 1901.12,-851.17 1901.12,-1901.12 0,-503 -195.34,-960.37 -514.24,-1300.36zm289.5 -27.2c298.85,376.8 461.86,842.33 461.86,1327.56 0,1180.84 -957.4,2138.24 -2138.24,2138.24 -104.34,0 -208.49,-7.5 -311.58,-22.55l-179.69 311.18 3697.57 0 0 -4107.52 -1326.09 0 -203.83 353.09zm-9738.64 -353.09l-463.16 463.11 3442.82 0 0 1843.05 -3508.74 0 0 381.29 2048.44 0 1420.08 1420.07 2245.46 0 912.94 -1581.23c-114.98,-266.82 -173.83,-553.86 -173.83,-845.64 0,-438.46 133.01,-861.86 381.33,-1219.05l-266.47 -461.6 -6038.87 0zm1421.15 2924.57l1420.08 1420.07 2480.55 0 1043.14 -1806.75c-130.32,-257.55 -203.79,-548.82 -203.79,-857.24 0,-455.87 160.51,-874.28 427.98,-1201.8l-413.36 -715.97 -6273.96 0 -667.99 667.94 0 269.41 3508.74 0 0 1368.81 -3508.74 0 0 855.53 2187.35 0z"/>
   </g>
  </g>
 </g>
</svg>
