<?xml version="1.0" encoding="UTF-8"?>
<!DOCTYPE svg PUBLIC "-//W3C//DTD SVG 1.1//EN" "http://www.w3.org/Graphics/SVG/1.1/DTD/svg11.dtd">
<!-- Creator: CorelDRAW Home & Student 2018 -->
<svg xmlns="http://www.w3.org/2000/svg" xml:space="preserve" width="169.333mm" height="169.333mm" version="1.1" style="shape-rendering:geometricPrecision; text-rendering:geometricPrecision; image-rendering:optimizeQuality; fill-rule:evenodd; clip-rule:evenodd"
viewBox="0 0 16933.32 16933.32"
 xmlns:xlink="http://www.w3.org/1999/xlink">
 <defs>
  <style type="text/css">
   <![CDATA[
    .fil1 {fill:white}
    .fil0 {fill:white;fill-opacity:0.549020}
   ]]>
  </style>
 </defs>
 <g id="Capa_x0020_1">
  <metadata id="CorelCorpID_0Corel-Layer"/>
  <g id="_701670768">
   <path class="fil0" d="M2887.04 2887.03l0 11159.26 11159.26 0 0 -11159.26 -11159.26 0zm461.19 9338.14l0 -7517.02 1359.93 -1359.93 7517.02 0 1359.93 1359.93 0 7517.02 -1359.93 1359.93 -7517.02 0 -1359.93 -1359.93zm118.73 -54.41l1295.61 1295.61 7408.2 0 1295.61 -1295.61 0 -7408.2 -1295.61 -1295.61 -7408.2 0 -1295.61 1295.61 0 7408.2zm1083.19 -9159.74l9372.16 0 0 10911.28 -10911.28 0 0 -9372.16 0 -1539.12 1539.12 0z"/>
   <path class="fil1" d="M8457.37 8466.63l1693.55 -1693.55 1693.55 1693.55 -1693.55 1693.55 -1693.55 -1693.55 -1693.55 1693.55 -1693.55 -1693.55 1693.55 -1693.55 1693.55 1693.55zm-1016.75 -1703.08l1013.11 -1013.11 1013.11 1013.11 -1013.11 1013.11 -1013.11 -1013.11zm9.31 3406.2l1013.1 1013.11 1013.11 -1013.11 -1013.11 -1013.11 -1013.1 1013.11zm-2775.78 -7282.72l-1787.11 0 0 1787.11 1787.11 -1787.11zm7585.04 0l1787.11 0 0 1787.11 -1787.11 -1787.11zm0 11159.26l1787.11 0 0 -1787.11 -1787.11 1787.11zm-7585.04 0l-1787.11 0 0 -1787.11 1787.11 1787.11z"/>
  </g>
 </g>
</svg>
