<?xml version="1.0" encoding="UTF-8"?>
<!DOCTYPE svg PUBLIC "-//W3C//DTD SVG 1.1//EN" "http://www.w3.org/Graphics/SVG/1.1/DTD/svg11.dtd">
<!-- Creator: CorelDRAW Home & Student 2018 -->
<svg xmlns="http://www.w3.org/2000/svg" xml:space="preserve" width="169.333mm" height="169.333mm" version="1.1" style="shape-rendering:geometricPrecision; text-rendering:geometricPrecision; image-rendering:optimizeQuality; fill-rule:evenodd; clip-rule:evenodd"
viewBox="0 0 16933.32 16933.32"
 xmlns:xlink="http://www.w3.org/1999/xlink">
 <defs>
  <style type="text/css">
   <![CDATA[
    .fil2 {fill:#787878}
    .fil3 {fill:white}
    .fil0 {fill:white;fill-opacity:0.101961}
    .fil1 {fill:#8D8D8D;fill-rule:nonzero;fill-opacity:0.549020}
   ]]>
  </style>
 </defs>
 <g id="Capa_x0020_1">
  <metadata id="CorelCorpID_0Corel-Layer"/>
  <g id="_926745672">
   <path class="fil0" d="M9732.52 4625.02l-17.58 7683.27 -2496.58 0 -17.53 -7683.27 2531.69 0zm2021.84 -215.94l0 8125.29 -1603.34 0 0 -8125.29 1603.34 0zm-6575.37 0l0 8125.29 1603.34 0 0 -8125.29 -1603.34 0z"/>
   <path class="fil1" d="M11650.5 4512.94l-1395.63 0 0 7917.57 1395.63 0 0 -7917.57zm-6367.66 0l1395.63 0 0 7917.57 -1395.63 0 0 -7917.57zm4327.75 219.3l-2287.84 0 0 7468.83 2287.84 0.75 0 -7469.58zm121.93 -107.22l-17.58 7683.27 -2496.58 0 -17.53 -7683.27 2531.69 0zm-4553.53 -215.94l0 8125.29 1603.34 0 0 -8125.29 -1603.34 0zm6575.37 0l0 8125.29 -1603.34 0 0 -8125.29 1603.34 0z"/>
   <path class="fil2" d="M11057.52 5046.85l508.94 2146.5 430.84 0 99.82 -2783.23 -366.11 -162.26 -673.49 798.99zm-5181.7 0l-508.94 2146.5 -430.83 0 -99.83 -2783.23 366.11 -162.26 673.49 798.99zm5181.7 6839.62l508.94 -2146.51 430.84 0 99.82 2783.23 -366.11 162.27 -673.49 -798.99zm-2335.57 -1391.51l-510.56 0 -256.98 1706.11 1024.52 0 -256.98 -1706.11zm-2846.13 1391.51l-508.94 -2146.51 -430.83 0 -99.83 2783.23 366.11 162.27 673.49 -798.99zm2335.57 -5448.11l514.3 0 256.98 -1706.12 -1028.26 0 256.98 1706.12z"/>
   <path class="fil3" d="M12315.06 3406.87l-665.06 -210.71 -2912.97 0 0 -224.41 2812.73 0 765.3 346.88 0 88.24zm0 327.48l-708.55 -224.5 -878.47 1115.17 -1991.01 0 0 -1209.01 3070.38 0 507.65 230.1 0 88.24zm-3848.39 4732.32l877.37 -877.37 877.36 877.37 -877.36 877.36 -877.37 -877.36 -877.36 877.36 -877.37 -877.36 877.37 -877.37 877.36 877.37zm-526.73 -882.3l524.85 -524.86 524.85 524.86 -524.85 524.85 -524.85 -524.85zm4.82 1764.62l524.85 524.85 524.85 -524.85 -524.85 -524.85 -524.85 524.85zm-3326.47 -5942.12l665.05 -210.71 2912.97 0 0 -224.41 -2812.73 0 -765.29 346.88 0 88.24zm0 327.48l708.55 -224.5 878.46 1115.17 1991.01 0 0 -1209.01 -3070.37 0 -507.65 230.1 0 88.24zm7696.77 9792.1l-665.06 210.7 -2912.97 0 0 224.41 2812.73 0 765.3 -346.88 0 -88.23zm0 -327.48l-708.55 224.49 -878.47 -1115.17 -1991.01 0 0 1209.02 3070.38 0 507.65 -230.11 0 -88.23zm-7696.77 327.48l665.05 210.7 2912.97 0 0 224.41 -2812.73 0 -765.29 -346.88 0 -88.23zm0 -327.48l708.55 224.49 878.46 -1115.17 1991.01 0 0 1209.02 -3070.37 0 -507.65 -230.11 0 -88.23z"/>
  </g>
 </g>
</svg>
