<?xml version="1.0" encoding="UTF-8"?>
<!DOCTYPE svg PUBLIC "-//W3C//DTD SVG 1.1//EN" "http://www.w3.org/Graphics/SVG/1.1/DTD/svg11.dtd">
<!-- Creator: CorelDRAW Home & Student 2018 -->
<svg xmlns="http://www.w3.org/2000/svg" xml:space="preserve" width="169.333mm" height="169.333mm" version="1.1" style="shape-rendering:geometricPrecision; text-rendering:geometricPrecision; image-rendering:optimizeQuality; fill-rule:evenodd; clip-rule:evenodd"
viewBox="0 0 16933.32 16933.32"
 xmlns:xlink="http://www.w3.org/1999/xlink">
 <defs>
  <style type="text/css">
   <![CDATA[
    .fil0 {fill:white}
    .fil1 {fill:white;fill-opacity:0.501961}
   ]]>
  </style>
 </defs>
 <g id="Capa_x0020_1">
  <metadata id="CorelCorpID_0Corel-Layer"/>
  <g id="_921017192">
   <path class="fil0" d="M10690.43 3014.91l725.2 3120.73 -221.18 1483.77 -1323.52 -1365.31 450.53 -3512.91 368.97 273.72zm1102.17 -705.38l-828.23 -964.86 1212.74 4626.86 -1007.85 4910.9 432.47 0 1326.34 -4805.38 -1135.47 -3767.52zm-2478.98 7279.74l-325.05 899.38 -1043.58 0 -325.05 -899.38 -539.45 -539.46 832.71 5944.1 1107.16 0 832.71 -5944.1 -539.45 539.46zm-3070.49 -6574.36l-725.2 3120.73 221.18 1483.77 1323.52 -1365.31 -450.53 -3512.91 -368.97 273.72zm-1102.17 -705.38l828.23 -964.86 -1212.74 4626.86 1007.85 4910.9 -432.47 0 -1326.34 -4805.38 1135.47 -3767.52zm3325.82 3084.82l727.55 -727.55 727.56 727.55 -727.56 727.56 -727.55 -727.56 -727.55 727.56 -727.56 -727.56 727.56 -727.55 727.55 727.55zm-436.8 -731.65l435.24 -435.23 435.23 435.23 -435.23 435.24 -435.24 -435.24zm4 1463.32l435.24 435.23 435.23 -435.23 -435.23 -435.24 -435.24 435.24zm907.69 3606.83l256.97 -1330.58 1066.31 0 -1163.03 7801.97 -1270.28 0 -1163.03 -7801.97 1066.31 0 256.97 1330.58 949.78 0z"/>
   <path class="fil1" d="M8941.67 9732.85l256.97 -1330.58 1066.31 0 -1163.03 7801.97 -1270.28 0 -1163.03 -7801.97 1066.31 0 256.97 1330.58 949.78 0zm3126.13 -3767.43l-1219.02 -4650.83 -717.8 -591.25 -802.22 6833.1 1165.7 0 43.47 -291.62 -790.3 -815.25 533.98 -4163.68 505.31 322.77 795.02 3421.14 -723.38 4852.63 200.12 0 1009.12 -4917.01zm-7202.04 0l1219.02 -4650.83 717.8 -591.25 802.22 6833.1 -1165.7 0 -43.47 -291.62 790.3 -815.25 -533.98 -4163.68 -505.31 322.77 -795.02 3421.14 723.38 4852.63 -200.12 0 -1009.12 -4917.01z"/>
  </g>
 </g>
</svg>
