<?xml version="1.0" encoding="UTF-8"?>
<!DOCTYPE svg PUBLIC "-//W3C//DTD SVG 1.1//EN" "http://www.w3.org/Graphics/SVG/1.1/DTD/svg11.dtd">
<!-- Creator: CorelDRAW Home & Student 2018 -->
<svg xmlns="http://www.w3.org/2000/svg" xml:space="preserve" width="169.333mm" height="169.333mm" version="1.1" style="shape-rendering:geometricPrecision; text-rendering:geometricPrecision; image-rendering:optimizeQuality; fill-rule:evenodd; clip-rule:evenodd"
viewBox="0 0 16933.32 16933.32"
 xmlns:xlink="http://www.w3.org/1999/xlink">
 <defs>
  <style type="text/css">
   <![CDATA[
    .fil1 {fill:white}
    .fil0 {fill:white;fill-opacity:0.549020}
   ]]>
  </style>
 </defs>
 <g id="Capa_x0020_1">
  <metadata id="CorelCorpID_0Corel-Layer"/>
  <g id="_698796592">
   <path class="fil0" d="M7490.84 10555.25l0 -4191.43 -312.69 -541.58 0 5274.6 312.69 -541.59zm4994.97 -1653.77l-625.37 0 -3592.36 2074.05 -312.69 541.58 4530.42 -2615.63zm0 -883.87l-625.37 0 -3592.36 -2074.05 -312.69 -541.58 4530.42 2615.63z"/>
   <path class="fil1" d="M10899.96 8459.54l447.96 -447.95 447.96 447.95 -447.96 447.96 -447.96 -447.96 -447.95 447.96 -447.96 -447.96 447.96 -447.95 447.95 447.95zm-268.93 -450.48l267.97 -267.97 267.98 267.97 -267.98 267.98 -267.97 -267.98zm2.46 900.97l267.97 267.97 267.98 -267.97 -267.98 -267.98 -267.97 267.98zm-5610.43 -450.49l447.95 -447.95 447.96 447.95 -447.96 447.96 -447.95 -447.96 -447.96 447.96 -447.96 -447.96 447.96 -447.95 447.96 447.95zm-268.94 -450.48l267.97 -267.97 267.98 267.97 -267.98 267.98 -267.97 -267.98zm2.46 900.97l267.97 267.97 267.98 -267.97 -267.98 -267.98 -267.97 267.98zm1816.33 -937.92l-324.47 0 -159.71 159.7 0 655.46 159.71 159.7 324.47 0 0 -974.86zm3344.54 -483.19l336.4 336.41 -170.52 170.53 -265.22 -265.22 -3711.16 0 -265.22 265.22 -170.53 -170.53 336.41 -336.41 3909.84 0zm-1834.14 3408.39l-419.47 -242.19 -1575.11 2728.15 0 484.36 419.48 -242.18 1575.1 -2728.14zm3802.86 -2195.58l-0.01 -484.37 3150.2 -0.01 419.48 242.19 -419.48 242.19 -3150.19 0zm-5313.26 983.66l-484.18 0 0 3298.38 484.18 -838.61 0 -2459.77zm7148.74 -783.91l-6384.17 3685.88 -484.37 838.96 7837.27 -4524.84 -968.73 0zm-3804.2 528.7l336.4 -336.42 -170.52 -170.53 -265.22 265.22 -3711.16 0 -265.22 -265.22 -170.53 170.53 336.41 336.42 3909.84 0zm-1834.14 -3408.4l-419.47 242.2 -1575.11 -2728.15 0 -484.37 419.48 242.18 1575.1 2728.14zm-1510.4 1211.93l-484.18 0 0 -3298.38 484.18 838.61 0 2459.77zm7148.74 783.9l-6384.17 -3685.88 -484.37 -838.96 7837.27 4524.84 -968.73 0zm-11540.9 441.94l1828.09 -665.37 211.23 211.23 170.82 -170.83 -319.82 -319.82 -250.48 91.17 -2345.28 853.62 2345.28 853.61 250.48 91.18 319.82 -319.83 -170.82 -170.83 -211.23 211.23 -1828.09 -665.36z"/>
  </g>
 </g>
</svg>
