<?xml version="1.0" encoding="UTF-8"?>
<!DOCTYPE svg PUBLIC "-//W3C//DTD SVG 1.1//EN" "http://www.w3.org/Graphics/SVG/1.1/DTD/svg11.dtd">
<!-- Creator: CorelDRAW Home & Student 2018 -->
<svg xmlns="http://www.w3.org/2000/svg" xml:space="preserve" width="169.333mm" height="169.333mm" version="1.1" style="shape-rendering:geometricPrecision; text-rendering:geometricPrecision; image-rendering:optimizeQuality; fill-rule:evenodd; clip-rule:evenodd"
viewBox="0 0 16933.32 16933.32"
 xmlns:xlink="http://www.w3.org/1999/xlink">
 <defs>
  <style type="text/css">
   <![CDATA[
    .fil1 {fill:white}
    .fil0 {fill:white;fill-opacity:0.549020}
   ]]>
  </style>
 </defs>
 <g id="Capa_x0020_1">
  <metadata id="CorelCorpID_0Corel-Layer"/>
  <g id="_921034496">
   <path class="fil0" d="M6177.14 5414.5l-727.79 -727.79 121.25 -121.26 -1251.31 -1251.3 -242.5 0 -469.7 -469.69 -433.64 433.64 376.87 376.86 0 336.94 946.47 946.47 0 -177.37 79.78 -79.78 984.76 984.76 0 101.73 -235.2 0 2829.42 2829.42 0 -132.47 574.38 -574.38 268.65 0 -2821.44 -2821.44 0 345.66zm5487.89 1501.13l855.53 -855.53 0 512.91 885.79 -885.79 0 -512.91 155.3 -155.3 -433.64 -433.64 -3096.52 3096.53 167.83 167.83 -167.19 167.2 265.8 265.79 0 283.75 -357.68 -357.67 -630.11 630.11 630.11 630.12 630.11 -630.12 -157.86 -157.86 1252.53 -1252.52 0 -512.9zm-2354.89 1923.28l-630.11 630.12 -630.11 -630.12 630.11 -630.11 630.11 630.11zm306.63 -3508.91l0 -763.89 -360.01 -360 -253.25 0 0 802.62 -317.41 -317.41 0 2786.44 948.48 0 171.06 171.07 0 -2318.83 -188.87 0zm-5914.11 3091.53l-441.07 -441.06 -594.52 0 0 571.72 -208.54 0 0 252.24 361.03 361.02 1572.17 0 -215.9 -215.9 568.66 0 215.9 215.9 2062.37 0 215.9 -215.9 240.14 0 396.05 -396.05 -573.03 -573.03 -1669.15 0 -441.07 441.06 -1488.94 0zm2533.48 3831.86l91.12 0 1707.6 -1707.59 0 -91.12 463.36 -463.35 -332.79 -332.79 -473.94 0 -1002.46 1002.46 363.34 0 -908.35 908.36 -181.67 -181.68 -1023.81 1023.81 0 637.6 501.9 0 795.7 -795.7zm3380.63 -2060.09l-104.58 0 0 -322.38 -200.4 200.4 -685.81 0 0 1921.25 377.53 0 0 1785.12 -377.53 -377.53 0 1600.41 377.53 0 0 445.65 272.8 0 340.46 -340.46 0 -4912.46zm2899.44 1560.26l-850.49 -850.49 0 -533.89 -767.03 -767.03 -453.55 0 -258.9 258.89 345.19 345.19 -429.84 0 429.84 429.84 2300.59 2300.58 429.84 0 615.81 615.82 264.73 -264.73 0 -441.88 -1092.29 -1092.3 -533.9 0zm-602.81 -2588.11l774.41 0 -232.66 232.66 1098.13 0 0 -232.66 379.15 0 0 -613.26 -379.15 0 0 -276.62 -1060.57 0 276.62 276.62 -574.62 0 0 -276.62 -1103.99 0 -276.63 276.62 -92.97 92.97 0 520.29 0 232.66 1424.94 0 -232.66 -232.66zm-2981.55 -960.2l376.94 -376.94 376.94 376.94 -376.94 376.95 -376.94 -376.95zm3.45 1267.33l376.95 376.95 376.94 -376.95 -376.94 -376.94 -376.95 376.94z"/>
   <path class="fil1" d="M8499.22 7736.58l-4892.13 -4892.12 -433.64 433.64 4892.13 4892.12 433.64 -433.64zm810.92 1102.33l630.11 -630.11 630.11 630.11 -630.11 630.11 -630.11 -630.11 -630.11 630.11 -630.11 -630.11 630.11 -630.11 630.11 630.11zm-378.29 -633.66l376.94 -376.94 376.94 376.94 -376.94 376.95 -376.94 -376.95zm3.46 1267.33l376.94 376.94 376.94 -376.94 -376.94 -376.94 -376.94 376.94zm1529.81 -1357.04l3096.53 -3096.53 -433.64 -433.64 -3096.52 3096.53 433.63 433.64zm-848.35 -932.49l0 -2616.94 -360.01 -360 -253.25 0 0 2962.41 309.24 309.24 9.31 0 294.71 -294.71zm-5225.04 1982.4l-613.26 -613.26 -1319.94 0 0 252.24 361.03 361.02 1572.17 0zm2631.03 0l613.26 -613.26 -3288.89 0 613.26 613.26 2062.37 0zm-1411.81 2936.98l150.96 150.96 565.35 0 1707.6 -1707.59 0 -447.22 -420.06 0 -562.43 562.42 -908.35 908.36 -533.07 533.07zm4005.82 -1909.13l-613.26 0 0 5252.92 272.8 0 340.46 -340.46 0 -4912.46zm3884.45 2545.27l-985.01 -985.01 -850.49 -850.49 -696.84 -696.84 -437.45 0 -429.84 0 429.84 429.84 2300.59 2300.58 391.24 0 38.6 0 41.28 0 198.08 -198.08zm-1772.04 -4186.38l-613.27 613.26 2816.52 0 0 -613.26 -2203.25 0z"/>
  </g>
 </g>
</svg>
