<?xml version="1.0" encoding="UTF-8"?>
<!DOCTYPE svg PUBLIC "-//W3C//DTD SVG 1.1//EN" "http://www.w3.org/Graphics/SVG/1.1/DTD/svg11.dtd">
<!-- Creator: CorelDRAW Home & Student 2018 -->
<svg xmlns="http://www.w3.org/2000/svg" xml:space="preserve" width="169.333mm" height="169.333mm" version="1.1" style="shape-rendering:geometricPrecision; text-rendering:geometricPrecision; image-rendering:optimizeQuality; fill-rule:evenodd; clip-rule:evenodd"
viewBox="0 0 16933.32 16933.32"
 xmlns:xlink="http://www.w3.org/1999/xlink">
 <defs>
  <style type="text/css">
   <![CDATA[
    .fil0 {fill:white}
    .fil1 {fill:white;fill-opacity:0.549020}
   ]]>
  </style>
 </defs>
 <g id="Capa_x0020_1">
  <metadata id="CorelCorpID_0Corel-Layer"/>
  <g id="_901923256">
   <path class="fil0" d="M11765.38 8165.51l-949.16 -955.22 -4606.35 -1389.21 -4275.33 0 563.99 1119.5 3678.54 0 5588.31 1224.93zm1612.64 353.48l-328.28 -635.1 -980.11 -295.59 258.72 700.6 1049.67 230.09zm-7960.64 1644.27l-2256.59 -2528.54 -1819.74 0 3129.05 3506.15 947.28 -977.61zm7186.19 -770.7l1059.6 526.36 -8366.55 -1301.66 1210.42 -345.83 -246.37 -629.5 6045.37 1325.11 297.53 425.52zm2051.21 565.08l-6661.45 494.66 440.04 854.75 6739.4 -703.8 -517.99 -645.61zm-6374.4 1404.31l-1085.42 -2108.42 -784.31 -171.43 1000.84 2399.79 868.89 -119.94zm-3573.18 24.54l880 -1032.39 1275.89 213.7 394.08 944.92 -2549.97 -126.23zm10904.71 -1350.7l299.37 -956.17 -1140.72 -832.29 538.78 756.85 302.57 1031.61z"/>
   <path class="fil1" d="M13573.13 8896.45l-124.15 -240.18 -1071.72 -234.92 85.57 231.72 1110.3 243.38zm-1777.28 -602.54l-5766.61 -1264.02 -3618.92 0 -608.99 -1208.81 -361.27 0 731.12 1451.22 3992.35 0 5902.87 1293.88 -270.55 -272.27zm-2554.64 -2135.13l580.97 639.87 -3497.58 -1054.82 118.76 -675.44 2797.85 1090.39zm6208.2 4789.26l-6833.48 713.64 -123.28 -239.46 6769.96 -706.99 186.8 232.81zm-7893.44 880.29l-98.18 -235.41 827.82 -114.28 119.67 232.44 -849.31 117.25zm-3206.48 -562.99l-3185.25 -3569.1 -302.66 0 3330.36 3731.7 157.55 -162.6zm3007 635.36l-2909.29 -144.03 202.06 -237.06 2602.03 128.82 105.2 252.27zm7598.11 -2835.39l460.27 1569.35 226.58 186.96 427.3 -1116.56 -85.53 -390.62 -370.24 1182.55 -450.69 -1536.65 -345.86 -485.86 -384.19 -278.19 522.36 869.02z"/>
  </g>
 </g>
</svg>
