<?xml version="1.0" encoding="UTF-8"?>
<!DOCTYPE svg PUBLIC "-//W3C//DTD SVG 1.1//EN" "http://www.w3.org/Graphics/SVG/1.1/DTD/svg11.dtd">
<!-- Creator: CorelDRAW Home & Student 2018 -->
<svg xmlns="http://www.w3.org/2000/svg" xml:space="preserve" width="169.333mm" height="169.333mm" version="1.1" style="shape-rendering:geometricPrecision; text-rendering:geometricPrecision; image-rendering:optimizeQuality; fill-rule:evenodd; clip-rule:evenodd"
viewBox="0 0 16933.32 16933.32"
 xmlns:xlink="http://www.w3.org/1999/xlink">
 <defs>
  <style type="text/css">
   <![CDATA[
    .fil2 {fill:white}
    .fil1 {fill:white;fill-opacity:0.549020}
    .fil0 {fill:white;fill-opacity:0.749020}
   ]]>
  </style>
 </defs>
 <g id="Capa_x0020_1">
  <metadata id="CorelCorpID_0Corel-Layer"/>
  <g id="_928046616">
   <path class="fil0" d="M13008.16 3294.66l-4250 0 0 4132.22 4250 0 0 -4132.22zm-9082.98 0l4250 0 0 4132.22 -4250 0 0 -4132.22zm722.01 2651.46l0 -898.9c0,-144.14 40.09,-254.68 120.27,-331.6 80.17,-76.95 189.08,-115.41 326.74,-115.41l398.45 0c220.26,0 356.31,89.08 408.15,267.23 14.57,50.22 21.85,105.28 21.85,165.2l0 913.48c0,140.91 -37.66,248.22 -112.96,321.92 -75.32,73.69 -181.8,110.53 -319.47,110.53l-398.44 0c-139.29,0 -248.2,-36.44 -326.75,-109.33 -78.57,-72.88 -117.84,-180.58 -117.84,-323.12zm340.13 -55.87c0,116.61 60.72,174.92 182.21,174.92l235.64 0c59.94,0 104.48,-12.95 133.64,-38.88 29.14,-25.91 43.72,-70.45 43.72,-133.62l0 -806.56c0,-115.01 -55.07,-172.51 -165.2,-172.51l-255.1 0c-66.4,0 -112.16,17.41 -137.25,52.24 -25.11,34.82 -37.66,74.9 -37.66,120.27l0 804.14zm1190.43 55.87l0 -898.9c0,-144.14 40.09,-254.68 120.26,-331.6 80.18,-76.95 189.09,-115.41 326.75,-115.41l398.45 0c220.26,0 356.31,89.08 408.14,267.23 14.58,50.22 21.86,105.28 21.86,165.2l0 913.48c0,140.91 -37.66,248.22 -112.96,321.92 -75.32,73.69 -181.8,110.53 -319.47,110.53l-398.44 0c-139.29,0 -248.2,-36.44 -326.75,-109.33 -78.57,-72.88 -117.84,-180.58 -117.84,-323.12zm340.13 -55.87c0,116.61 60.72,174.92 182.21,174.92l235.64 0c59.94,0 104.48,-12.95 133.64,-38.88 29.14,-25.91 43.72,-70.45 43.72,-133.62l0 -806.56c0,-115.01 -55.07,-172.51 -165.2,-172.51l-255.11 0c-66.39,0 -112.15,17.41 -137.24,52.24 -25.11,34.82 -37.66,74.9 -37.66,120.27l0 804.14zm2962.29 55.87l0 -898.9c0,-144.14 40.09,-254.68 120.26,-331.6 80.18,-76.95 189.09,-115.41 326.75,-115.41l398.45 0c220.26,0 356.3,89.08 408.14,267.23 14.58,50.22 21.86,105.28 21.86,165.2l0 913.48c0,140.91 -37.66,248.22 -112.96,321.92 -75.32,73.69 -181.8,110.53 -319.47,110.53l-398.44 0c-139.29,0 -248.2,-36.44 -326.75,-109.33 -78.57,-72.88 -117.84,-180.58 -117.84,-323.12zm340.13 -55.87c0,116.61 60.72,174.92 182.2,174.92l235.65 0c59.94,0 104.48,-12.95 133.64,-38.88 29.14,-25.91 43.71,-70.45 43.71,-133.62l0 -806.56c0,-115.01 -55.06,-172.51 -165.2,-172.51l-255.1 0c-66.39,0 -112.16,17.41 -137.24,52.24 -25.11,34.82 -37.66,74.9 -37.66,120.27l0 804.14zm1190.43 55.87l0 -898.9c0,-144.14 40.09,-254.68 120.26,-331.6 80.18,-76.95 189.09,-115.41 326.75,-115.41l398.44 0c220.27,0 356.31,89.08 408.15,267.23 14.58,50.22 21.86,105.28 21.86,165.2l0 913.48c0,140.91 -37.66,248.22 -112.96,321.92 -75.32,73.69 -181.8,110.53 -319.47,110.53l-398.44 0c-139.3,0 -248.2,-36.44 -326.75,-109.33 -78.58,-72.88 -117.84,-180.58 -117.84,-323.12zm340.13 -55.87c0,116.61 60.72,174.92 182.2,174.92l235.65 0c59.94,0 104.48,-12.95 133.64,-38.88 29.13,-25.91 43.71,-70.45 43.71,-133.62l0 -806.56c0,-115.01 -55.06,-172.51 -165.2,-172.51l-255.1 0c-66.39,0 -112.16,17.41 -137.24,52.24 -25.11,34.82 -37.66,74.9 -37.66,120.27l0 804.14z"/>
   <path class="fil1" d="M4152.22 7883.29l851.39 0c73.68,0 133.78,60.09 133.78,133.77l0 743.42c0,73.67 -60.1,133.77 -133.78,133.77l-851.39 0c-73.68,0 -133.77,-60.1 -133.77,-133.77l0 -743.42c0,-73.68 60.09,-133.77 133.77,-133.77zm3888.76 0l851.4 0c73.67,0 133.77,60.09 133.77,133.77l0 743.42c0,73.67 -60.1,133.77 -133.77,133.77l-851.4 0c-73.67,0 -133.77,-60.1 -133.77,-133.77l0 -743.42c0,-73.68 60.1,-133.77 133.77,-133.77zm-1944.38 0l851.4 0c73.67,0 133.77,60.09 133.77,133.77l0 743.42c0,73.67 -60.1,133.77 -133.77,133.77l-851.4 0c-73.67,0 -133.77,-60.1 -133.77,-133.77l0 -743.42c0,-73.68 60.1,-133.77 133.77,-133.77zm6684.54 0l-851.39 0c-73.68,0 -133.77,60.09 -133.77,133.77l0 743.42c0,73.67 60.09,133.77 133.77,133.77l851.39 0c73.68,0 133.78,-60.1 133.78,-133.77l0 -743.42c0,-73.68 -60.1,-133.77 -133.78,-133.77zm-1944.38 0l-851.39 0c-73.68,0 -133.78,60.09 -133.78,133.77l0 743.42c0,73.67 60.1,133.77 133.78,133.77l851.39 0c73.68,0 133.77,-60.1 133.77,-133.77l0 -743.42c0,-73.68 -60.09,-133.77 -133.77,-133.77z"/>
   <path class="fil2" d="M8325.33 11034.84l282.68 0 0 282.68 -282.68 0 0 -282.68zm-3315.86 -76.26l0 -898.89c0,-144.15 40.08,-254.68 120.26,-331.6 80.17,-76.95 189.08,-115.41 326.75,-115.41l398.44 0c220.27,0 356.31,89.08 408.15,267.23 14.58,50.21 21.86,105.28 21.86,165.2l0 913.47c0,140.92 -37.66,248.23 -112.96,321.92 -75.33,73.7 -181.81,110.54 -319.47,110.54l-398.45 0c-139.29,0 -248.2,-36.44 -326.75,-109.33 -78.57,-72.88 -117.83,-180.59 -117.83,-323.13zm3315.86 -839.51l282.68 0 0 282.68 -282.68 0 0 -282.68zm3598.54 839.51l0 -898.89c0,-144.15 -40.08,-254.68 -120.26,-331.6 -80.17,-76.95 -189.08,-115.41 -326.75,-115.41l-398.44 0c-220.27,0 -356.31,89.08 -408.15,267.23 -14.58,50.21 -21.86,105.28 -21.86,165.2l0 913.47c0,140.92 37.66,248.23 112.96,321.92 75.33,73.7 181.81,110.54 319.47,110.54l398.45 0c139.29,0 248.2,-36.44 326.75,-109.33 78.57,-72.88 117.83,-180.59 117.83,-323.13zm-8385.98 1783.79c-307.07,0 -556.67,-249.6 -556.67,-556.67l0 -9107.12c0,-307.08 249.6,-556.68 556.67,-556.68l9857.56 0c307.07,0 556.67,249.6 556.67,556.68l0 9107.12c0,307.07 -249.6,556.67 -556.67,556.67l-3141.01 0 -1787.77 2947.83 -1787.77 -2947.83 -3141.01 0zm0 -400.64l9857.56 0c85.94,0 156.03,-70.09 156.03,-156.03l0 -9107.12c0,-85.94 -70.09,-156.03 -156.03,-156.03l-9857.56 0c-85.94,0 -156.03,70.09 -156.03,156.03l0 9107.12c0,85.94 70.09,156.03 156.03,156.03zm8045.86 -1439.01c0,116.61 -60.72,174.92 -182.21,174.92l-235.65 0c-59.94,0 -104.48,-12.95 -133.63,-38.88 -29.14,-25.91 -43.72,-70.45 -43.72,-133.62l0 -806.57c0,-115 55.07,-172.5 165.2,-172.5l255.1 0c66.4,0 112.16,17.41 137.24,52.24 25.11,34.81 37.67,74.9 37.67,120.26l0 804.15zm-1190.44 55.86l0 -898.89c0,-144.15 -40.08,-254.68 -120.26,-331.6 -80.17,-76.95 -189.08,-115.41 -326.75,-115.41l-398.44 0c-220.27,0 -356.31,89.08 -408.15,267.23 -14.58,50.21 -21.86,105.28 -21.86,165.2l0 913.47c0,140.92 37.67,248.23 112.96,321.92 75.33,73.7 181.81,110.54 319.48,110.54l398.44 0c139.29,0 248.2,-36.44 326.75,-109.33 78.57,-72.88 117.83,-180.59 117.83,-323.13zm-340.12 -55.86c0,116.61 -60.72,174.92 -182.21,174.92l-235.65 0c-59.94,0 -104.48,-12.95 -133.63,-38.88 -29.14,-25.91 -43.72,-70.45 -43.72,-133.62l0 -806.57c0,-115 55.07,-172.5 165.2,-172.5l255.1 0c66.4,0 112.16,17.41 137.25,52.24 25.1,34.81 37.66,74.9 37.66,120.26l0 804.15zm-4703.6 0c0,116.61 60.72,174.92 182.21,174.92l235.65 0c59.94,0 104.48,-12.95 133.63,-38.88 29.14,-25.91 43.72,-70.45 43.72,-133.62l0 -806.57c0,-115 -55.07,-172.5 -165.2,-172.5l-255.1 0c-66.4,0 -112.16,17.41 -137.24,52.24 -25.11,34.81 -37.67,74.9 -37.67,120.26l0 804.15zm1190.44 55.86l0 -898.89c0,-144.15 40.08,-254.68 120.26,-331.6 80.17,-76.95 189.08,-115.41 326.75,-115.41l398.44 0c220.27,0 356.31,89.08 408.15,267.23 14.58,50.21 21.86,105.28 21.86,165.2l0 913.47c0,140.92 -37.67,248.23 -112.96,321.92 -75.33,73.7 -181.81,110.54 -319.48,110.54l-398.44 0c-139.29,0 -248.2,-36.44 -326.75,-109.33 -78.57,-72.88 -117.83,-180.59 -117.83,-323.13zm340.12 -55.86c0,116.61 60.72,174.92 182.21,174.92l235.65 0c59.94,0 104.48,-12.95 133.63,-38.88 29.14,-25.91 43.72,-70.45 43.72,-133.62l0 -806.57c0,-115 -55.07,-172.5 -165.2,-172.5l-255.1 0c-66.4,0 -112.16,17.41 -137.25,52.24 -25.1,34.81 -37.66,74.9 -37.66,120.26l0 804.15z"/>
  </g>
 </g>
</svg>
