<?xml version="1.0" encoding="UTF-8"?>
<!DOCTYPE svg PUBLIC "-//W3C//DTD SVG 1.1//EN" "http://www.w3.org/Graphics/SVG/1.1/DTD/svg11.dtd">
<!-- Creator: CorelDRAW Home & Student 2018 -->
<svg xmlns="http://www.w3.org/2000/svg" xml:space="preserve" width="169.333mm" height="169.333mm" version="1.1" style="shape-rendering:geometricPrecision; text-rendering:geometricPrecision; image-rendering:optimizeQuality; fill-rule:evenodd; clip-rule:evenodd"
viewBox="0 0 16933.32 16933.32"
 xmlns:xlink="http://www.w3.org/1999/xlink">
 <defs>
  <style type="text/css">
   <![CDATA[
    .fil1 {fill:white}
    .fil0 {fill:white;fill-opacity:0.549020}
   ]]>
  </style>
 </defs>
 <g id="Capa_x0020_1">
  <metadata id="CorelCorpID_0Corel-Layer"/>
  <g id="_914697272">
   <path class="fil0" d="M10055.57 10083.93l2231.6 475.3 -1952.96 -5337.42 1858.99 555.33 1428.36 2650.15 1040.69 220.71 1318.35 2731.41 -867.07 -183.89 134.62 249.78 -13562.96 0 134.62 -249.78 -867.07 183.89 1318.35 -2731.41 1040.69 -220.71 1428.36 -2650.15 1858.99 -555.33 -1952.96 5337.42 2231.6 -475.3 3177.8 0zm-1829.81 -4868.29l481.82 0 558.42 4566.36 -1598.66 0 558.42 -4566.36zm-6605.62 6350.35l13693.06 0 81.76 151.69 -13856.58 0 81.76 -151.69z"/>
   <path class="fil1" d="M8466.67 7453.42l1084.22 -1084.22 1084.22 1084.22 -1084.22 1084.22 -1084.22 -1084.22 -1084.22 1084.22 -1084.22 -1084.22 1084.22 -1084.22 1084.22 1084.22zm-650.92 -1090.32l648.59 -648.6 648.6 648.6 -648.6 648.59 -648.59 -648.59zm5.95 2180.66l648.6 648.6 648.6 -648.6 -648.6 -648.59 -648.6 648.59zm2233.87 1540.17l2622.92 558.64 -1869.51 -4968.4 1168.71 349.11 1421.81 2638.02 462.51 98.09 932.94 1767.68 -440.17 -93.35 487.64 904.76 -2387.72 0 -2523.48 -1072.15 -2929.1 0 -2523.48 1072.15 -2387.72 0 487.64 -904.76 -440.17 93.35 932.94 -1767.68 462.51 -98.09 1421.81 -2638.02 1168.71 -349.11 -1869.51 4968.4 2622.92 -558.64 3177.8 0zm-4899.32 1254.55l1955.68 -861.4 2709.48 0 1955.68 861.4 -6620.84 0z"/>
  </g>
 </g>
</svg>
