<?xml version="1.0" encoding="UTF-8"?>
<!DOCTYPE svg PUBLIC "-//W3C//DTD SVG 1.1//EN" "http://www.w3.org/Graphics/SVG/1.1/DTD/svg11.dtd">
<!-- Creator: CorelDRAW Home & Student 2018 -->
<svg xmlns="http://www.w3.org/2000/svg" xml:space="preserve" width="84.6666mm" height="84.6666mm" version="1.1" style="shape-rendering:geometricPrecision; text-rendering:geometricPrecision; image-rendering:optimizeQuality; fill-rule:evenodd; clip-rule:evenodd"
viewBox="0 0 8466.66 8466.66"
 xmlns:xlink="http://www.w3.org/1999/xlink">
 <defs>
  <style type="text/css">
   <![CDATA[
    .fil1 {fill:#333333}
    .fil0 {fill:#E6E6E6}
    .fil3 {fill:#333333;fill-rule:nonzero}
    .fil2 {fill:#E6E6E6;fill-rule:nonzero}
   ]]>
  </style>
 </defs>
 <g id="Capa_x0020_1">
  <metadata id="CorelCorpID_0Corel-Layer"/>
  <g id="_698682344">
   <path class="fil0" d="M4846.21 402.26l2386.85 1378.84c388.22,224.27 623.23,631.4 623.23,1079.77l0 2744.97c0,448.37 -235.01,855.52 -623.23,1079.82l-2375.72 1372.49c-388.52,224.44 -859.09,224.44 -1247.61,0l-2376 -1372.53c-388.26,-224.3 -623.28,-631.46 -623.28,-1079.85l0 -2744.83c0,-448.37 235.02,-855.57 623.28,-1079.84l2376 -1372.54c384.51,-222.1 849.75,-224.55 1236.48,-6.3z"/>
   <path class="fil1" d="M4613.78 814.13l2382.7 1376.48c241.97,139.8 386.88,390.78 386.88,670.26l0 2744.97c0,279.48 -144.91,530.51 -386.88,670.31l-2375.72 1372.49c-242.16,139.89 -532.31,139.89 -774.47,0l-2376 -1372.54c-242.02,-139.79 -386.91,-390.83 -386.91,-670.33l0 -2744.83c0,-279.48 144.91,-530.53 386.91,-670.33l2376 -1372.53c239.62,-138.42 526.47,-139.96 767.49,-3.95z"/>
   <path class="fil2" d="M4381.35 1226l2378.55 1374.12c95.73,55.32 150.53,150.19 150.53,260.75l0 2744.97c0,110.57 -54.8,205.48 -150.53,260.8l-2375.72 1372.49c-95.78,55.36 -205.55,55.36 -301.33,0l-2376 -1372.54c-95.73,-55.31 -150.54,-150.18 -150.54,-260.82l0 -2744.83c0,-110.59 54.81,-205.5 150.54,-260.82l2376 -1372.53c94.85,-54.78 203.33,-55.3 298.5,-1.59z"/>
   <polygon class="fil3" points="5663.51,4909 5534.46,5132.49 6519.52,5701.24 4233.48,7021.64 1947.49,5701.26 2932.59,5132.54 2803.55,4909.03 1818.49,5477.77 1818.49,2836.59 4104.45,1516.14 4104.45,2653.53 4362.5,2653.53 4362.5,1516.11 6648.54,2836.59 6648.54,5477.75 "/>
   <polygon class="fil0" points="6119.08,3144.36 2347.9,3144.36 4233.6,6411.63 "/>
   <g>
    <path class="fil1" d="M5412.44 3379.82c5.55,0 10.25,3.6 11.7,8.96 1.45,5.36 -0.86,10.87 -5.65,13.64 -94.83,54.7 -851.33,491.35 -1106.64,638.69 -63.22,36.48 -93.49,36.45 -156.67,0 -255.3,-147.34 -1011.8,-583.99 -1106.64,-638.69 -4.79,-2.77 -7.09,-8.28 -5.64,-13.64 1.45,-5.36 6.14,-8.96 11.69,-8.96l2357.85 0z"/>
    <path class="fil1" d="M2904.65 3639.01c-2.77,-4.8 -2.01,-10.67 1.91,-14.6 3.92,-3.94 9.84,-4.7 14.63,-1.94 94.79,54.78 851.19,491.61 1106.45,639.03 63.19,36.52 78.31,62.75 78.33,135.69 0.05,294.77 0.15,1168.24 0.2,1277.72 0,5.54 -3.62,10.28 -8.99,11.71 -5.37,1.42 -10.83,-0.85 -13.61,-5.65l-1178.92 -2041.96z"/>
    <path class="fil1" d="M4383.02 5681.24c-2.77,4.81 -8.23,7.08 -13.6,5.65 -5.37,-1.42 -8.99,-6.17 -8.99,-11.7 0.04,-109.49 0.14,-982.96 0.19,-1277.73 0.02,-72.99 15.18,-99.19 78.34,-135.68 255.25,-147.43 1011.65,-584.25 1106.44,-639.03 4.8,-2.77 10.72,-2.01 14.64,1.93 3.92,3.94 4.68,9.8 1.91,14.61l-1178.93 2041.95z"/>
   </g>
  </g>
 </g>
</svg>
