<?xml version="1.0" encoding="UTF-8"?>
<!DOCTYPE svg PUBLIC "-//W3C//DTD SVG 1.1//EN" "http://www.w3.org/Graphics/SVG/1.1/DTD/svg11.dtd">
<!-- Creator: CorelDRAW Home & Student 2018 -->
<svg xmlns="http://www.w3.org/2000/svg" xml:space="preserve" width="142.438mm" height="148.107mm" version="1.1" style="shape-rendering:geometricPrecision; text-rendering:geometricPrecision; image-rendering:optimizeQuality; fill-rule:evenodd; clip-rule:evenodd"
viewBox="0 0 14243.78 14810.7"
 xmlns:xlink="http://www.w3.org/1999/xlink">
 <defs>
  <style type="text/css">
   <![CDATA[
    .fil2 {fill:#167EB3;fill-rule:nonzero}
    .fil1 {fill:white;fill-rule:nonzero}
    .fil0 {fill:url(#id0)}
   ]]>
  </style>
  <radialGradient id="id0" gradientUnits="userSpaceOnUse" gradientTransform="matrix(1.25024 -0 -0 1.3 -1782 -2222)" cx="7121.9" cy="7405.35" r="1097.98" fx="7121.9" fy="7405.35">
   <stop offset="0" style="stop-opacity:1; stop-color:#00A1E2"/>
   <stop offset="1" style="stop-opacity:1; stop-color:#08437B"/>
  </radialGradient>
 </defs>
 <g id="Capa_x0020_1">
  <metadata id="CorelCorpID_0Corel-Layer"/>
  <g id="_789342808">
   <path class="fil0" d="M0.01 9622.41l0 -8104.91c0,-403.19 160.32,-787.09 445.07,-1072.11 284.89,-285.23 669.13,-445.41 1072.45,-445.41l11208.74 0c403.26,0 787.5,160.05 1072.52,445 284.96,285.03 445,669.26 445,1072.52l0 8104.84c0,446.15 -109.05,881.38 -332.7,1268.45 -223.52,386.8 -545.64,698.59 -931.9,921.57l-4592.75 2651.68c-386.33,223.04 -817.58,346.67 -1264.6,346.67 -446.96,0 -878.28,-123.63 -1264.6,-346.67l-4592.63 -2651.61c-386.12,-222.91 -708.24,-534.91 -931.69,-921.64 -223.65,-387.01 -332.91,-822.16 -332.91,-1268.38z"/>
   <path class="fil1" d="M607.02 1517.5l0 8104.91c0,353.61 87.27,681.74 250.76,964.87 163.49,283.68 404,523.45 709.93,700.02l4593.03 2651.61c305.66,176.51 633.51,264.79 961.1,264.79 327.65,0 655.43,-88.28 961.09,-264.79l4592.76 -2651.68c306.4,-176.91 546.91,-416.54 710.33,-699.68 163.49,-283.54 250.77,-611.59 250.77,-965.21l0 -8104.84c0,-250.63 -102.39,-478.32 -267.29,-643.23 -164.9,-164.9 -392.6,-267.28 -643.23,-267.28l-11208.74 0c-250.63,0 -478.32,102.38 -643.22,267.28 -165.11,164.64 -267.29,392.33 -267.29,643.23zm-202.34 8104.91l0 -8104.91c0,-306.13 125.05,-584.41 326.71,-786.14 201.26,-201.66 479.6,-326.71 786.14,-326.71l11208.74 0c306.54,0 584.89,125.05 786.35,326.51 201.46,201.45 326.5,479.8 326.5,786.34l0 8104.84c0,389.16 -96.92,751.68 -278.41,1065.97 -181.63,314.17 -447.03,579.09 -783.85,773.6l-4592.76 2651.68c-337.63,194.92 -699.95,292.45 -1062.26,292.45 -362.25,0 -724.64,-97.53 -1062.27,-292.45l-4592.62 -2651.61c-337.03,-194.78 -602.49,-459.91 -783.65,-773.67 -181.7,-314.16 -278.62,-676.74 -278.62,-1065.9z"/>
   <g>
    <path class="fil1" d="M6761.61 7330.01l0 1279.17 -1143.94 0 0 -3007.93 1127.75 0 740.28 1269.93 0 -1269.93 1143.88 0 0 3007.93 -1122.29 0 -745.68 -1279.17zm4075.12 8.02c9.98,15.31 19.96,30.62 29.94,45.87 62.73,95.16 120.46,197.28 175.22,295.07 -605.59,684.98 -1412.91,1345.47 -2369.01,1897.44 -1742.52,1006.08 -3549.45,1403.94 -4822.08,1170.25l22.67 -67.99 1021.79 -340.53c1075.01,-37.97 2386.08,-432.39 3664.11,-1170.25 924.4,-533.69 1702.05,-1172.33 2277.36,-1829.86zm694.01 -279.35l-226.55 -323.81c625.29,-924.67 822.29,-1835.86 439.54,-2498.78 -376.95,-652.94 -1243.69,-939.25 -2333.61,-872.14l-50.04 -99.75c1248.55,-99.35 2253.01,219.2 2685.67,968.58 434.89,753.23 203.96,1789.06 -515.01,2825.9zm-7374.75 -1268.72c-1372.71,1274.65 -2005.62,2724.46 -1459.92,3669.77 97.39,168.68 227.76,312.74 385.99,432.66l-545.5 181.84c-66.9,-76.89 -126.39,-159.72 -177.78,-248.68 -638.85,-1106.44 158.9,-2822.58 1829.99,-4256.27l-32.78 220.68zm2249.64 -1665.9l142.99 50.11c-222.71,107.44 -446.02,225.41 -668.18,353.62 -310.66,179.4 -605.06,370.75 -880.5,570.59l48.83 -187.23c217.85,-148.85 445.81,-292.44 682.81,-429.22 224.06,-129.36 449.19,-248.74 674.05,-357.87zm1016.47 -319.42c510.02,-185.74 1007.7,-314.63 1475.23,-385.45l-57.39 -91.59c-495.32,80.39 -1019.44,220.41 -1554.28,419.37l136.44 57.67zm-1229.05 -2398.56l233.76 701.5 701.5 233.83 -701.5 233.7 -233.76 701.5 -233.84 -701.5 -701.43 -233.7 701.43 -233.83 233.84 -701.5zm5604.57 6318.48l233.77 701.5 701.49 233.84 -701.49 233.76 -233.77 701.5 -233.77 -701.5 -701.5 -233.76 701.5 -233.84 233.77 -701.5zm-8317.9 1625.03l233.76 701.5 701.5 233.83 -701.5 233.77 -233.76 701.5 -233.77 -701.5 -701.5 -233.77 701.5 -233.83 233.77 -701.5zm5856.68 1590.9c-538.82,1155.61 -1325.5,1883.89 -2201.61,1883.89 -876.93,0 -1664.29,-729.76 -2203.17,-1887.26l392.8 -35.54c488.98,1021.12 1185.55,1659.56 1958.61,1659.56 764.7,0 1454.59,-624.88 1942.7,-1626.85l110.67 6.2zm609.3 -2056.74c-92.33,568.56 -231.13,1098.41 -407.77,1573.56l-107.64 4.12c170.97,-446.08 306.2,-947.34 397.52,-1487.51l117.89 -90.17zm-228.23 -3729.26l177.58 140.36c-414.31,-2134.25 -1493.84,-3656.08 -2760.26,-3656.08 -209.42,0 -413.58,41.81 -610.59,120.99l62.59 187.84 529.72 176.57c55.1,-6.54 110.61,-10.32 166.52,-10.32 1079.87,0 2010.55,1245.85 2434.44,3040.64zm220.82 2879.18c15.51,-227.7 23.6,-460.12 23.6,-696.11 0,-378.23 -20.64,-747.29 -59.82,-1102.73l139.54 137.05c22.73,280.17 34.53,567.28 34.53,859.59 0,237.81 -7.82,472.32 -22.93,702.24l-114.92 99.96zm-5295.07 2171.67c-284.96,-861.35 -449.79,-1880.98 -449.79,-2973.87 0,-1911.27 504.35,-3598.28 1273.7,-4607.06l332.1 110.68 59.35 177.99c-753.7,924.34 -1254.61,2560.29 -1254.61,4424.48 0,1055.05 160.52,2037.12 436.37,2858.4l-397.12 9.38zm-1658.35 -2732.01l51.26 -94.69c301.21,375.2 669.67,747.29 1095.11,1100.57l18.35 146.63c-449.53,-368.32 -841.11,-757.75 -1164.72,-1152.51zm-313.48 -414.59l61.51 -92.53c-611.87,-916.11 -802,-1816.78 -422.68,-2473.63 387.74,-671.69 1293.73,-955.36 2427.83,-865.46l168.68 -357.46c-1278.56,-115.67 -2310.34,200.79 -2750.36,962.99 -434.82,753.23 -204.02,1789.19 515.02,2826.09zm3626.13 2920.66l186.89 -53.15c-329.07,-144.27 -660.56,-311.67 -989.9,-501.73 -210.22,-121.33 -412.96,-248.33 -607.41,-379.51l27.86 148.58c197,132.33 401.97,260.21 614.22,382.75 255.35,147.44 512.18,281.86 768.34,403.06zm1208.21 324.41l-208.6 84.04c1936.69,667.3 3697.55,551.43 4424.21,-381.54l-217.24 -652c-32.24,127.14 -80.6,248.2 -146.22,361.92 -540.11,935.46 -2085.21,1118.31 -3852.15,587.58zm-2012.36 -6568.1c60.77,-119.65 125.24,-232.48 194.31,-347.55 883.67,185.01 1842.67,550.9 2782.86,1093.7 1485.42,857.63 2611.42,1976.75 3180.18,3043.4l-227.76 683.49c-381.07,-1145.49 -1574.04,-2457.03 -3249.45,-3424.33 -908.96,-524.79 -1834.58,-876.05 -2680.14,-1048.71z"/>
   </g>
   <path class="fil2" d="M6788.59 7429.69l0 1206.47 -1197.9 0 0 -3061.89 1170.18 0 697.86 1197.22 0 -1197.22 1197.82 0 0 3061.89 -1164.64 0 -703.32 -1206.47zm-53.96 1152.51l0 -1351.94 788.03 1351.94 1079.94 0 0 -2953.97 -1089.92 0 0 1342.63 -782.63 -1342.63 -1085.4 0 0 2953.97 1089.98 0zm4124.62 -1258.8l29.95 45.86c31.7,48.23 62.05,98 91.18,147.64 31.3,53.28 58.75,101.98 84.99,148.92l9.3 16.59 -12.68 14.37c-308.96,349.43 -670.13,692.53 -1076.29,1017.81 -392.6,314.43 -827.89,612.81 -1299.4,885.02 -857.64,495.25 -1731.26,843.68 -2549.44,1042.17 -849.27,206.04 -1639.53,250.89 -2290.91,131.31l-30.35 -5.59 36.69 -110.07c137.86,-45.94 975.86,-343.84 1042.03,-346.13 545.43,-19.23 1152.23,-130.78 1784.47,-332.71 609.03,-194.51 1242.14,-473.13 1867.22,-833.96 452.69,-261.35 870.52,-548.33 1246.53,-850.42 388.75,-312.34 732.59,-640.87 1023.95,-973.85l23.41 -26.7 19.35 29.74zm-15.04 75.2l-10.65 -16.32c-288.6,326.5 -626.71,648.08 -1007.3,953.88 -377.49,303.3 -797.68,591.83 -1253.54,855 -628.25,362.72 -1265.07,642.89 -1877.75,838.55 -635.6,203.01 -1245.85,315.31 -1794.85,335.14l-1005.41 335.07 -8.63 25.76c638.3,111.35 1409.4,64.95 2238.1,-136.11 813.26,-197.34 1681.96,-543.81 2535.21,-1036.43 468.54,-270.39 901.61,-567.35 1292.59,-880.5 398.6,-319.22 753.23,-655.3 1057.14,-997.18l-75 -131.45c-29,-49.43 -59.02,-98.6 -89.91,-145.41zm664.54 -324.55l-237.14 -339.04 10.25 -15.18c316.53,-468.07 522.5,-932.3 598.04,-1361.52 72.17,-410.67 24.89,-789.51 -159.44,-1108.87 -181.49,-314.43 -479.6,-542.73 -862.76,-685.92 -400.56,-149.73 -894.39,-206.65 -1446.03,-172.72l-17.53 1.07 -75.95 -151.34 39.8 -3.17c639.78,-50.92 1216.51,7.55 1686.26,176.91 454.52,163.96 809.35,431.85 1024.77,805.02 216.57,375.27 270.66,818.99 183.52,1297.18 -90.04,494.37 -331.23,1026.11 -699.68,1557.45l-21.99 31.7 -22.12 -31.57zm-171.98 -339.38l193.77 276.93c351.79,-514.47 582.32,-1027.8 669.12,-1504.57 84.91,-465.85 32.71,-897.23 -177.11,-1260.76 -208.95,-361.77 -553.86,-621.84 -996.37,-781.42 -452.63,-163.22 -1007.57,-221.63 -1624.08,-176.84l24.07 48.09c551.84,-32.11 1046.89,26.37 1450.28,177.11 394.76,147.5 702.44,383.63 890.55,709.52 191,330.89 240.24,721.94 165.91,1144.89 -76.01,432.12 -281.31,897.97 -596.14,1367.05zm-7162.43 -925.01c-694.22,644.64 -1198.37,1333.79 -1454.86,1978.71 -247.06,620.9 -264.26,1200.39 -0.21,1657.94 47.48,82.01 102.86,158.23 165.31,228.23 63.94,71.63 135.57,137.26 213.67,196.47l40.6 30.76 -610.78 203.55 -11.81 -13.42c-34.06,-39.12 -66.5,-80.13 -96.85,-122.62 -29.88,-41.82 -57.93,-85.32 -83.9,-130.24 -319.62,-553.45 -285.5,-1255.83 33.86,-1998.67 326.36,-759.23 951.72,-1562.1 1801.93,-2291.53l54.7 -46.94 -44.71 301.28 -6.95 6.48zm-1504.77 1958.88c258.58,-650.17 764.89,-1343.78 1461.2,-1991.8l20.7 -139.61c-815.88,711.21 -1416.35,1488.86 -1732.6,2224.55 -312.68,727.26 -347.21,1412.85 -36.82,1950.38 25.09,43.51 52.27,85.59 81.2,126.06 25.7,36.02 53.15,71.02 81.95,104.95l480.95 -160.32c-65.9,-53.22 -126.66,-110.75 -181.7,-172.46 -65.08,-72.98 -122.55,-152.16 -171.65,-237.07 -272.88,-472.86 -256.29,-1068.54 -3.23,-1704.68zm3744.9 -3669.84l204.16 71.49 -58.34 28.2c-111.09,53.55 -222.91,110.2 -335.14,169.55 -110.75,58.61 -221.36,119.65 -331.22,183.12 -154.25,89.03 -304.25,180.95 -449.46,275.04 -147.03,95.3 -290.15,193.5 -428.75,294.06l-60.63 43.98 70.27 -269.58 8.23 -5.6c109.4,-74.73 221.9,-148.58 337.16,-220.95 113.11,-71.09 229.05,-140.96 347.35,-209.28 112.63,-65.09 224.93,-127.34 336.41,-186.49 111.89,-59.42 225.2,-116.95 339.46,-172.39l9.98 -4.86 10.52 3.71zm64.48 79.52l-71.63 -25.09c-108.12,52.61 -217.44,108.25 -327.58,166.73 -112.43,59.68 -224.12,121.53 -334.67,185.33 -117.08,67.52 -232.55,137.12 -345.72,208.28 -110.95,69.67 -220.14,141.29 -327.18,214.27l-27.45 105.28c119.78,-85.52 243.48,-169.69 370.48,-251.97 146.62,-95.1 297.43,-187.43 451.75,-276.53 110.94,-64.07 222.23,-125.52 333.11,-184.19 92.53,-48.97 185.54,-96.38 278.89,-142.11zm943.83 -402.45c250.42,-90.85 498.62,-168.27 742.03,-231.87 235.25,-61.45 465.37,-109.87 688.08,-145.08l-26.17 -41.81c-242.67,39.99 -492.55,94.49 -747.23,163.15 -236.8,63.87 -477.78,140.15 -720.79,228.57l64.08 27.04zm755.52 -179.94c-243.88,63.74 -493.77,141.9 -747.03,234.1l-9.77 3.58 -208.55 -88.15 63.34 -23.54c266.67,-99.15 530.66,-183.79 789.31,-253.6 262.23,-70.68 519.8,-126.52 770.02,-167.13l17.61 -2.9 88.62 141.44 -40.54 6.2c-234.71,35.54 -476.57,85.66 -723.01,150zm-1959.76 -2198.18l229.52 688.68 765.23 255.08 -765.23 254.95 -254.95 765.16 -255.14 -765.16 -765.1 -254.95 765.1 -255.08 255.14 -765.23 25.43 76.55zm182.78 718.36l-208.27 -625.02 -212.59 637.77 -637.77 212.65 637.77 212.46 212.59 637.83 212.58 -637.83 637.77 -212.46 -637.77 -212.65 -4.31 -12.75zm5421.79 5600.12l229.52 688.69 765.24 255.08 -765.24 255.01 -255.01 765.16 -255.01 -765.16 -765.17 -255.01 765.17 -255.08 255.01 -765.24 25.49 76.55zm182.78 718.36l-208.27 -625.01 -212.52 637.76 -637.83 212.66 637.83 212.52 212.52 637.83 212.59 -637.83 637.76 -212.52 -637.76 -212.66 -4.32 -12.75zm-8500.68 906.67l229.52 688.69 765.23 255.07 -765.23 255.02 -255.01 765.16 -255.01 -765.16 -765.17 -255.02 765.17 -255.07 255.01 -765.24 25.49 76.55zm182.78 718.36l-208.27 -625.01 -212.52 637.76 -637.83 212.65 637.83 212.52 212.52 637.84 212.59 -637.84 637.76 -212.52 -637.76 -212.65 -4.32 -12.75zm5672.83 892.37c-276.12,592.1 -617.4,1073.26 -1002.71,1402.86 -372.84,319.02 -787.02,496.6 -1223.32,496.6 -436.71,0 -851.23,-177.92 -1224.34,-497.54 -385.59,-330.28 -727.2,-812.24 -1003.25,-1405.29l-16.12 -34.67 449.52 -40.67 8.03 16.8c247.46,516.83 548.33,934.92 884.95,1220.08 321.92,272.75 676.88,424.1 1049.45,424.1 368.45,0 719.78,-148.11 1038.93,-415.4 333.65,-279.36 632.5,-689.09 879.55,-1196.27l7.83 -16.06 168.34 9.45 -16.86 36.01zm-1037.65 1361.99c371.42,-317.8 701.97,-779.94 971.89,-1348.77l-53.01 -2.97c-248.74,506.38 -549.55,916.52 -885.56,1197.9 -328.86,275.45 -691.85,428.08 -1073.46,428.08 -385.65,0 -752.35,-155.94 -1084.12,-437.05 -338.77,-287.05 -641.47,-705.28 -890.61,-1221.1l-336.02 30.42c270.06,570.52 601.08,1033.87 973.11,1352.55 363.26,311.19 766.04,484.46 1189.4,484.46 422.94,0 825.39,-172.93 1188.38,-483.52zm1649.04 -3425.82c-45.93,282.87 -103.46,556.56 -171.38,818.79 -68.86,265.8 -148.51,519.94 -237.74,759.84l-6.21 16.73 -166.25 6.4 14.5 -37.97c85.72,-223.71 162.48,-461.32 229.04,-710.4 65.76,-246.31 121.95,-504.49 167.13,-771.98l53.02 8.9c-45.53,269.24 -102.05,529.04 -168.21,776.97 -63.4,237.28 -135.84,463.83 -216.23,677.69l49.1 -1.88c86.13,-233.43 163.15,-480.15 229.92,-737.79 67.38,-260.2 124.57,-532.28 170.3,-813.93l53.01 8.63zm-230.66 -3748.74l112.9 89.23c-211.98,-1047.36 -585.29,-1941.96 -1061.79,-2573.11 -470.97,-623.8 -1042.64,-989.69 -1657.87,-989.69 -102.18,0 -203.08,10.11 -302.3,29.74 -93,18.41 -184.73,45.32 -274.77,79.99l50.32 150.87 511.23 170.44c26.17,-2.97 52.41,-5.46 78.51,-7.08 29,-1.82 57.6,-2.84 85.25,-2.84 540.03,0 1042.44,305.4 1464.04,831.94 431.04,538.55 778.11,1309.05 994.48,2220.51zm136.84 176.57l-185 -146.29 -2.16 -8.97c-214.41,-907.88 -558.65,-1674.33 -986.05,-2208.16 -411.41,-513.67 -899.58,-811.64 -1422.15,-811.64 -28.26,0 -55.58,0.94 -81.88,2.56 -27.38,1.69 -54.7,4.39 -81.61,7.49l-5.73 0.67c-182.78,-60.22 -365.96,-121.06 -548.2,-182.77l-74.86 -224.6 23.47 -9.37c100.97,-40.54 203.89,-71.56 308.02,-92.2 102.79,-20.37 207.13,-30.82 312.55,-30.82 633.24,0 1219.47,373.85 1700.76,1011.27 492.22,652 875.11,1580.65 1085.94,2666.73l13.83 71.02 -56.93 -44.92zm33.05 2715.95c7.83,-115.19 13.83,-230.73 17.67,-346.26 3.78,-112.7 5.8,-228.77 5.8,-348.02 0,-188.44 -5.05,-373.44 -14.83,-554.33 -9.99,-184.8 -25.03,-366.97 -44.72,-545.43l-8.23 -75 200.58 197.01 0.75 9.98c11.33,140.22 20.09,283.27 25.89,428.75 5.8,144.67 8.77,289.2 8.77,432.93 0,115.94 -2.02,233.83 -5.87,353.01 -3.84,118.84 -9.64,235.92 -17.19,350.92l-53.69 -3.37c7.62,-116.15 13.42,-232.69 17.2,-349.17 3.64,-113.71 5.6,-230.93 5.6,-351.39 0,-146.76 -2.9,-290.49 -8.5,-430.77 -5.6,-139.41 -14.1,-278.55 -25.09,-416.75l-78.91 -77.49c15.98,155.59 28.46,313.89 37.09,474.07 9.98,184.06 15.11,370.07 15.11,557.03 0,115.06 -2.09,231.81 -6.07,349.64 -3.91,118.23 -9.91,234.37 -17.67,348.29l-53.69 -3.65zm-5293.78 2181.93c-145.35,-439.2 -259.53,-919.55 -336.62,-1429.44 -74.6,-493.16 -114.59,-1014.31 -114.59,-1552.86 0,-940.05 121.94,-1826.42 337.09,-2605.08 223.65,-808.94 548.4,-1501.87 942.21,-2018.3l11.67 -15.24 363.06 121 68.25 204.69 -9.31 11.47c-381.26,467.66 -697.78,1119.39 -916.71,1891.44 -211.38,745.6 -331.77,1603.31 -331.77,2516.11 0,517.38 38.72,1017.01 110.61,1488.39 74.46,487.83 184.6,945.58 324.28,1361.52l-50.99 16.99c-140.76,-419.17 -251.7,-880.02 -326.57,-1370.55 -72.37,-474.21 -111.28,-976.61 -111.28,-1496.35 0,-917.59 121.13,-1780.29 333.92,-2530.68 219.13,-772.66 535.72,-1426.67 917.53,-1899.26l-50.45 -151.28 -301.01 -100.36c-384.58,509.48 -702.04,1190.48 -921.64,1984.71 -213.8,773.67 -334.94,1655.18 -334.94,2590.78 0,536.19 39.8,1054.58 113.92,1544.9 76.62,506.92 190.13,984.3 334.46,1420.54l-51.12 16.86zm-1656.46 -2753.19l70.61 -130.37 25.3 31.57c151.14,188.3 319.15,375.67 502.4,559.79 181.42,182.37 378.3,362.18 588.86,537l8.3 6.81 27.99 223.99 -52.14 -42.69c-223.44,-183.12 -433.2,-371.96 -627.71,-564.45 -196.47,-194.38 -377.22,-392.47 -540.64,-591.84l-11.47 -14.09 8.5 -15.72zm79.38 -33.65l-23.47 43.36c159.11,193.1 334.8,385.19 525.6,573.9 177.32,175.42 368.25,348.62 571.74,517.78l-8.57 -69c-209.08,-174.01 -404.4,-352.54 -584.41,-533.49 -174.96,-175.77 -335.68,-353.96 -480.89,-532.55zm-369.6 -416.14l29.68 -44.58c-308.23,-464.77 -508.54,-925.96 -581.58,-1353.63 -71.5,-418.7 -21.38,-805.7 167.87,-1133.49 193.5,-335.2 513.32,-575.31 924.54,-721.86 420.12,-149.67 936.14,-201.87 1510.17,-158.37l144.33 -305.79c-632.3,-53.08 -1202.35,0.87 -1667.05,163.55 -453.7,158.84 -806.91,421.47 -1019.3,789.38 -209.89,363.67 -262.09,795.05 -177.18,1261.1 86.81,476.5 317.13,989.49 668.52,1503.69zm84.31 -29.74l-83.43 125.51 -22.6 -32.57c-368.45,-531.34 -609.63,-1063.08 -699.67,-1557.45 -87.14,-478.32 -33.05,-922.05 183.52,-1297.25 219.19,-379.71 582.45,-650.3 1048.16,-813.39 481.23,-168.48 1072.52,-222.23 1727.89,-162.94l38.24 3.43 -192.96 408.99 -18.48 -1.41c-574.17,-45.46 -1089.18,5.26 -1506.53,153.97 -399.14,142.25 -709.12,374.6 -895.94,698.13 -182.65,316.32 -230.8,691.18 -161.4,1097.47 72.57,424.77 273.49,884.14 583.13,1347.7l9.98 14.9 -9.91 14.91zm3544.52 2969.68l105.76 -30.01c-143.8,-64.34 -287.79,-133.07 -431.45,-205.84 -163.96,-83.1 -328.6,-172.26 -492.96,-267.09 -106.29,-61.31 -209.01,-123.09 -307.96,-184.87 -83.9,-52.4 -166.59,-105.75 -247.86,-159.84l13.96 74.46c94.9,63.6 192.49,126.66 292.51,188.98 102.25,63.74 206.05,126.06 310.86,186.55 127.2,73.45 254.27,143.46 380.53,209.69 125.45,65.76 251.16,128.55 376.61,187.97zm191.95 1.42l-196.47 55.84 -9.24 -4.31c-129.09,-61.11 -258.52,-125.59 -387.67,-193.3 -128.35,-67.31 -256.16,-137.72 -382.69,-210.77 -106.43,-61.44 -210.76,-124.03 -312.34,-187.36 -102.18,-63.67 -203.48,-129.23 -303.37,-196.33l-9.37 -6.34 -41.75 -222.91 53.28 36.01c97.46,65.76 197.48,130.71 299.53,194.52 101.7,63.53 204.02,125.11 306.2,184.06 162.61,93.81 326.37,182.44 490.39,265.6 166.05,84.17 331.97,162.47 496.87,234.77l68.6 30.02 -71.97 20.5zm1015.32 380.12l-132.59 53.35c949.96,318.88 1854.54,447.9 2610.67,382.69 748.1,-64.48 1350.39,-318.95 1706.1,-767.33l-185.14 -555.62c-11.33,35.95 -24.08,71.36 -38.17,106.23 -24.62,60.84 -53.56,120.39 -86.81,177.99 -270.05,467.87 -786,750.4 -1453.11,852.17 -681.8,104 -1523.05,19.02 -2420.95,-249.48zm-219.94 30.62l217.31 -87.54 8.97 2.69c893.65,268.37 1730.11,353.62 2406.66,250.43 650.91,-99.28 1153.24,-373.18 1414.53,-825.73 31.76,-55.04 59.62,-112.3 83.43,-171.11 23.94,-59.35 43.97,-120.93 59.96,-183.93l22.59 -88.96c83.5,250.9 166.12,502.27 250.83,752.69l-8.9 11.4c-364.34,467.8 -983.69,732.86 -1752.91,799.16 -781.62,67.38 -1719.25,-70.34 -2701.25,-408.65l-68.12 -23.54 66.9 -26.91zm-1817.78 -6639.25c30.75,-60.64 62.38,-119.18 94.56,-176.57 31.9,-56.66 65.62,-114.19 100.69,-172.66l9.92 -16.46 18.61 3.91c450.47,94.29 920.56,235.52 1397.54,422.95 461.32,181.29 929.6,406.16 1393.21,673.78 730.24,421.53 1374.14,906.53 1908.03,1417.43 555.08,531.2 991.45,1090.73 1282.48,1636.63l5.46 10.18 -256.9 770.91 -25.49 -76.56c-192.63,-579.01 -594.67,-1201.33 -1162.83,-1800.11 -549.34,-578.95 -1254.01,-1135.58 -2074.62,-1609.38 -445.68,-257.31 -895.54,-472.86 -1337.57,-645.86 -457.01,-178.8 -906.2,-312.41 -1334.48,-399.82l-34.46 -7.08 15.85 -31.29zm141.5 -150.27c-26.58,47.35 -52.48,95.03 -77.5,143.19 420.86,88.08 861.14,220.14 1308.64,395.23 444.81,174.01 897.1,390.77 1345,649.36 825.19,476.43 1533.91,1036.37 2086.62,1618.82 549.08,578.68 944.91,1180.3 1148.8,1745.42l199.17 -597.63c-288.47,-537.81 -719.24,-1089.11 -1266.76,-1613.02 -530.53,-507.67 -1170.92,-989.97 -1897.78,-1409.61 -460.99,-266.14 -926.83,-489.86 -1385.93,-670.27 -467.6,-183.73 -928.46,-322.8 -1370.22,-416.48 -30.49,50.99 -60.43,102.38 -90.04,154.99z"/>
  </g>
 </g>
</svg>
