<?xml version="1.0" encoding="UTF-8"?>
<!DOCTYPE svg PUBLIC "-//W3C//DTD SVG 1.1//EN" "http://www.w3.org/Graphics/SVG/1.1/DTD/svg11.dtd">
<!-- Creator: CorelDRAW Home & Student 2018 -->
<svg xmlns="http://www.w3.org/2000/svg" xml:space="preserve" width="84.6666mm" height="84.6666mm" version="1.1" style="shape-rendering:geometricPrecision; text-rendering:geometricPrecision; image-rendering:optimizeQuality; fill-rule:evenodd; clip-rule:evenodd"
viewBox="0 0 8466.66 8466.66"
 xmlns:xlink="http://www.w3.org/1999/xlink">
 <defs>
  <style type="text/css">
   <![CDATA[
    .fil0 {fill:#3CC9FF}
   ]]>
  </style>
 </defs>
 <g id="Capa_x0020_1">
  <metadata id="CorelCorpID_0Corel-Layer"/>
  <path class="fil0" d="M6792.45 423.87l-2358.78 0 426.15 349.19 1585.92 0.01 0 4727.83 -2212.41 2062.22 -2212.42 -2062.22 0 -4727.83 1585.91 0 426.14 -349.2 -2358.75 0 0 5233.52 2559.12 2385.4 2559.12 -2385.4 0 -5233.52zm-2559.12 329.37l-463.66 365.7 -1445.3 0 0 949.42 1370.2 1035.52 0 143.5 246.93 0 0 166.29 -249.43 0 0 344.21 249.43 0 0 1631.25 -611.1 0 0 -224.49 359.18 0 0 -476.41 -877.46 0.01 0 1024.48 910.93 849.1 0 -394.48 218.45 0 0 598.08 291.83 272.02 291.82 -272.03 0 -3007.53 249.43 0 0 -344.21 -249.43 0 0 -166.3 246.93 0 0 -143.49 1370.2 -1035.53 0 -949.41 -1445.3 0 -463.65 -365.7zm-264.95 601.99l264.95 -208.98 264.93 208.96 -264.93 277.83 -264.95 -277.81zm735.83 212.68l991.53 0 0 281.1 -997.24 753.65 -465.16 -131.33 -465.18 131.34 -997.24 -753.66 0 -281.1 991.51 0 470.88 493.79 470.9 -493.79z"/>
 </g>
</svg>
