<?xml version="1.0" encoding="UTF-8"?>
<!DOCTYPE svg PUBLIC "-//W3C//DTD SVG 1.1//EN" "http://www.w3.org/Graphics/SVG/1.1/DTD/svg11.dtd">
<!-- Creator: CorelDRAW Home & Student 2018 -->
<svg xmlns="http://www.w3.org/2000/svg" xml:space="preserve" width="84.6666mm" height="84.6666mm" version="1.1" style="shape-rendering:geometricPrecision; text-rendering:geometricPrecision; image-rendering:optimizeQuality; fill-rule:evenodd; clip-rule:evenodd"
viewBox="0 0 8466.66 8466.66"
 xmlns:xlink="http://www.w3.org/1999/xlink">
 <defs>
  <style type="text/css">
   <![CDATA[
    .fil1 {fill:#333333}
    .fil0 {fill:#47E461}
    .fil3 {fill:#333333;fill-rule:nonzero}
    .fil2 {fill:#47E461;fill-rule:nonzero}
   ]]>
  </style>
 </defs>
 <g id="Capa_x0020_1">
  <metadata id="CorelCorpID_0Corel-Layer"/>
  <g id="_895752536">
   <path class="fil0" d="M4846.23 402.27l2386.86 1378.84c388.22,224.28 623.24,631.41 623.24,1079.78l0 2744.98c0,448.37 -235.02,855.52 -623.24,1079.82l-2375.72 1372.49c-388.53,224.44 -859.1,224.44 -1247.62,0l-2376.01 -1372.54c-388.26,-224.3 -623.28,-631.45 -623.28,-1079.84l0 -2744.84c0,-448.37 235.02,-855.57 623.28,-1079.85l2376.01 -1372.54c384.5,-222.1 849.75,-224.56 1236.48,-6.3z"/>
   <path class="fil1" d="M4613.8 814.14l2382.71 1376.48c241.98,139.8 386.89,390.79 386.89,670.27l0 2744.98c0,279.48 -144.91,530.51 -386.89,670.31l-2375.73 1372.49c-242.16,139.89 -532.31,139.89 -774.47,0l-2376.01 -1372.54c-242.02,-139.79 -386.91,-390.83 -386.91,-670.33l0 -2744.84c0,-279.48 144.91,-530.54 386.91,-670.34l2376.01 -1372.54c239.62,-138.42 526.47,-139.96 767.49,-3.94z"/>
   <path class="fil2" d="M4381.37 7240.77l2378.56 -1374.13c95.73,-55.31 150.53,-150.18 150.53,-260.75l0 -2744.98c0,-110.56 -54.8,-205.48 -150.53,-260.8l-2375.73 -1372.49c-95.78,-55.36 -205.55,-55.36 -301.33,0l-2376.01 1372.54c-95.73,55.32 -150.54,150.19 -150.54,260.82l0 2744.84c0,110.59 54.81,205.51 150.54,260.82l2376.01 1372.54c94.85,54.78 203.33,55.3 298.5,1.59z"/>
   <path class="fil3" d="M5112.4 3577.95l1407.15 -812.43 -2286.05 -1320.4 -2286 1320.37 1407.26 812.41 -129.04 223.57 -1407.22 -812.49 0 2641.2 2285.97 1320.45 -0.02 -1628.2 -1756.54 0 1885.71 -3267.28 878.78 1522.8zm-749.91 1744.48l0.03 1628.23 2286.05 -1320.48 0 -2641.17 -1407.18 812.48 877.72 1520.94 -1756.62 0z"/>
   <g>
    <path class="fil1" d="M5412.46 5086.97c5.55,0 10.25,-3.6 11.7,-8.96 1.45,-5.36 -0.85,-10.87 -5.64,-13.64 -94.84,-54.7 -851.34,-491.35 -1106.65,-638.7 -63.22,-36.47 -93.49,-36.44 -156.67,0 -255.3,147.35 -1011.81,584 -1106.65,638.7 -4.79,2.77 -7.09,8.28 -5.64,13.64 1.45,5.36 6.15,8.96 11.7,8.96l2357.85 0z"/>
    <path class="fil1" d="M2904.66 4827.78c-2.77,4.8 -2.01,10.67 1.91,14.6 3.92,3.94 9.84,4.7 14.64,1.94 94.79,-54.78 851.19,-491.61 1106.45,-639.04 63.19,-36.51 78.31,-62.74 78.33,-135.68 0.05,-294.77 0.15,-1168.25 0.2,-1277.73 -0.01,-5.53 -3.62,-10.28 -8.99,-11.71 -5.37,-1.42 -10.83,0.85 -13.61,5.65l-1178.93 2041.97z"/>
    <path class="fil1" d="M4383.04 2785.54c-2.77,-4.81 -8.23,-7.08 -13.6,-5.65 -5.37,1.42 -8.99,6.17 -8.99,11.7 0.04,109.49 0.14,982.96 0.19,1277.73 0.02,72.99 15.18,99.2 78.34,135.69 255.26,147.42 1011.66,584.25 1106.45,639.03 4.79,2.77 10.71,2.01 14.63,-1.93 3.92,-3.94 4.68,-9.8 1.91,-14.61l-1178.93 -2041.96z"/>
   </g>
  </g>
 </g>
</svg>
