<?xml version="1.0" encoding="UTF-8"?>
<!DOCTYPE svg PUBLIC "-//W3C//DTD SVG 1.1//EN" "http://www.w3.org/Graphics/SVG/1.1/DTD/svg11.dtd">
<!-- Creator: CorelDRAW Home & Student 2018 -->
<svg xmlns="http://www.w3.org/2000/svg" xml:space="preserve" width="84.6666mm" height="84.6666mm" version="1.1" style="shape-rendering:geometricPrecision; text-rendering:geometricPrecision; image-rendering:optimizeQuality; fill-rule:evenodd; clip-rule:evenodd"
viewBox="0 0 8466.66 8466.66"
 xmlns:xlink="http://www.w3.org/1999/xlink">
 <defs>
  <style type="text/css">
   <![CDATA[
    .fil0 {fill:#47E461}
   ]]>
  </style>
 </defs>
 <g id="Capa_x0020_1">
  <metadata id="CorelCorpID_0Corel-Layer"/>
  <path class="fil0" d="M3962.1 430.42l0 1716.12c256.19,40 493.22,111.97 738.65,193.02l56.54 -150.95c-145.64,-86.2 -298.65,-170.04 -457.9,-228.32l-0.02 -873.14 495.47 372.54 -53.61 313.55 126.3 84.21 184.66 -535.93 -1090.09 -891.1zm616.44 2832.91c-148.88,158.31 -388.03,278.19 -607.39,282.22 -216.72,4.15 -446.61,-119.54 -592.64,-274.08 -144.21,83.23 -280.8,175.05 -416.13,271.77 293.45,195.08 704.56,294.17 1051.05,295.4 369.94,0.64 761.89,-133.85 1055.15,-358.03l-490.04 -217.28zm-704.03 -691.9c-656.61,0 -1031.51,353.55 -1571.34,613.86 -100.45,10.26 -210.94,9.59 -313.49,12.41 168.35,118.56 347.97,231.65 550.96,278.99 590.94,-290.59 624.23,-522.08 1411.59,-512.73 681.14,8.09 939.96,237.78 1536.83,448.79 133.81,-59.62 222.37,-122.85 313.34,-235.82 -73.44,-0.71 -147.86,-2.39 -221.25,-0.72 -560.14,-352.16 -1022.7,-604.78 -1706.64,-604.78zm863.18 1508.65c-231.97,81.69 -440.78,116.94 -685.1,136.8l0 3832.56 1213.15 -1981.83 -302.73 -1142.71 -177.67 95.67 211.62 950.24 -582.43 932.26 0 -2377.12c145.94,-12.28 284.71,-52.21 411.34,-126.55l-88.18 -319.32zm773.21 -2319.92l-419.97 671.08c239.33,155.95 480.11,312.92 707.66,485.75 234.67,-103.13 462.23,-218.03 685.48,-343.92l-973.17 -812.91zm-112.42 589.91l201.36 -285.26 551.67 451.15c-58.1,28.53 -183.9,89.69 -329.97,157.1 -141.23,-107.36 -282.14,-215.2 -423.06,-322.99zm127.65 1287.16c-147.88,133.36 -278.91,213.18 -456.59,300.82l483.47 1085.88 645.11 -1115.28 -671.99 -271.42zm-99.53 457.7c78.42,-48.68 151.12,-109.75 207.9,-174.65l295.46 136.02 -287.82 487.41 -215.54 -448.78z"/>
 </g>
</svg>
