<?xml version="1.0" encoding="UTF-8"?>
<!DOCTYPE svg PUBLIC "-//W3C//DTD SVG 1.1//EN" "http://www.w3.org/Graphics/SVG/1.1/DTD/svg11.dtd">
<!-- Creator: CorelDRAW Home & Student 2018 -->
<svg xmlns="http://www.w3.org/2000/svg" xml:space="preserve" width="113.961mm" height="169.333mm" version="1.1" style="shape-rendering:geometricPrecision; text-rendering:geometricPrecision; image-rendering:optimizeQuality; fill-rule:evenodd; clip-rule:evenodd"
viewBox="0 0 11396.12 16933.32"
 xmlns:xlink="http://www.w3.org/1999/xlink">
 <defs>
  <style type="text/css">
   <![CDATA[
    .fil0 {fill:#FF81FF}
   ]]>
  </style>
 </defs>
 <g id="Capa_x0020_1">
  <metadata id="CorelCorpID_0Corel-Layer"/>
  <g id="_899268800">
   <path class="fil0" d="M2151.65 5918.77l-2063.77 4425.78c-183,392.43 -12.32,861.36 380.12,1044.36 395.74,184.53 864.82,19.67 1050.01,-377.48l2063.78 -4425.77c183,-392.44 12.32,-861.37 -380.12,-1044.36 -395.74,-184.54 -864.82,-19.68 -1050.02,377.47z"/>
   <path class="fil0" d="M6014.89 5920.33l-2063.77 4425.78c-183,392.44 -12.32,861.36 380.11,1044.36 395.74,184.53 864.83,19.68 1050.02,-377.48l2063.78 -4425.77c182.99,-392.44 12.32,-861.36 -380.12,-1044.36 -395.74,-184.54 -864.82,-19.68 -1050.02,377.47z"/>
   <path class="fil0" d="M9872.41 5918.77l-2063.78 4425.78c-182.99,392.43 -12.32,861.36 380.12,1044.36 395.74,184.53 864.82,19.67 1050.02,-377.48l2063.77 -4425.77c183,-392.44 12.32,-861.37 -380.12,-1044.36 -395.74,-184.54 -864.82,-19.68 -1050.01,377.47z"/>
  </g>
 </g>
</svg>
