<?xml version="1.0" encoding="UTF-8"?>
<!DOCTYPE svg PUBLIC "-//W3C//DTD SVG 1.1//EN" "http://www.w3.org/Graphics/SVG/1.1/DTD/svg11.dtd">
<!-- Creator: CorelDRAW Home & Student 2018 -->
<svg xmlns="http://www.w3.org/2000/svg" xml:space="preserve" width="84.6666mm" height="90.1698mm" version="1.1" style="shape-rendering:geometricPrecision; text-rendering:geometricPrecision; image-rendering:optimizeQuality; fill-rule:evenodd; clip-rule:evenodd"
viewBox="0 0 8466.66 9016.98"
 xmlns:xlink="http://www.w3.org/1999/xlink">
 <defs>
  <style type="text/css">
   <![CDATA[
    .fil5 {fill:#4D4D4D}
    .fil4 {fill:#B78EFF}
    .fil3 {fill:white}
    .fil6 {fill:#B78EFF;fill-rule:nonzero}
    .fil1 {fill:black;fill-opacity:0.301961}
    .fil0 {fill:black;fill-opacity:0.501961}
    .fil2 {fill:white;fill-opacity:0.549020}
   ]]>
  </style>
 </defs>
 <g id="Capa_x0020_1">
  <metadata id="CorelCorpID_0Corel-Layer"/>
  <g id="_850013104">
   <path class="fil0" d="M7517.53 -5.84c252.05,0 492.72,100.15 670.85,278.29 178.15,178.13 278.29,418.81 278.29,670.85l0 6470c0,252.04 -100.14,492.72 -278.29,670.85 -178.13,178.14 -418.8,278.29 -670.85,278.29l-1896.22 0 -144.11 309.05c-137.91,295.75 -490.51,424.15 -786.63,287.47l-1.42 -0.65c-95.61,-44.13 -173.84,-110.74 -231.38,-190.68 -163.36,227.2 -471.46,314.02 -733.64,190.31l-1.41 -0.66c-94.64,-44.66 -172.11,-111.29 -229.13,-190.97 -162.71,227.04 -470.04,314.06 -732.2,192.21l-1.41 -0.66c-233.82,-108.67 -363.42,-352.08 -339.95,-595.42l-1470.89 0c-252.05,0 -492.73,-100.15 -670.86,-278.29 -178.14,-178.14 -278.28,-418.82 -278.28,-670.85l0 -6470c0,-252.03 100.14,-492.71 278.28,-670.85 178.13,-178.14 418.81,-278.29 670.86,-278.29l6568.39 0z"/>
   <g>
    <path class="fil1" d="M6365.36 3642.43l65.34 0c24.64,0 44.73,20.1 44.73,44.74l0 458.47c0,24.63 -20.09,44.73 -44.73,44.73l-65.34 0c-24.64,0 -44.73,20.09 -44.73,44.73l0 5.53c0,24.64 -20.1,44.73 -44.73,44.73l-804.03 0c-18.48,0 -34.26,10.55 -41.33,27.62 -7.07,17.07 -3.36,35.68 9.7,48.74l96.62 96.62c8.7,8.71 13.1,19.31 13.1,31.63l0 180.92c0,12.32 4.39,22.92 13.1,31.63l233.9 233.89c8.71,8.71 19.31,13.1 31.63,13.1l180.92 0c12.32,0 22.92,4.39 31.63,13.1l506.91 506.92c8.71,8.71 13.1,19.31 13.1,31.63l0 266.61c0,12.31 -4.39,22.92 -13.1,31.62l-212.12 212.15c-17.42,17.41 -45.83,17.41 -63.26,0l-268.32 -268.33c-8.7,-8.71 -19.31,-13.1 -31.63,-13.1l-138.44 0c-12.32,0 -22.93,-4.4 -31.63,-13.11l-1012.89 -1012.89c-13.06,-13.06 -31.67,-16.76 -48.74,-9.7 -17.07,7.07 -27.62,22.85 -27.62,41.33l0 1774.31c0,12.32 -4.39,22.92 -13.1,31.63l-199.95 199.95c-8.71,8.71 -19.31,13.1 -31.63,13.1l-258.52 0c-24.64,0 -44.73,-20.09 -44.73,-44.73l0 -92.5c0,-24.64 -20.1,-44.73 -44.73,-44.73l-64.68 0c-24.64,0 -44.73,-20.09 -44.73,-44.73l0 -1008.65c0,-18.47 10.54,-34.25 27.61,-41.33 17.07,-7.07 35.69,-3.36 48.75,9.7l1.42 1.42c13.06,13.06 31.68,16.77 48.75,9.7 17.07,-7.07 27.61,-22.85 27.61,-41.33l0 -68.18c0,-24.63 -20.1,-44.73 -44.73,-44.73l-64.68 0c-24.64,0 -44.73,-20.09 -44.73,-44.73l0 -468.93c0,-18.48 -10.54,-34.26 -27.61,-41.33 -17.07,-7.06 -35.69,-3.36 -48.75,9.7l-638.68 638.68c-8.71,8.71 -19.31,13.11 -31.63,13.11l-0.15 0c-12.31,0 -22.92,4.39 -31.62,13.1l-298.68 298.67c-8.71,8.7 -19.31,13.1 -31.63,13.1l-352.06 0c-24.64,0 -44.73,-20.1 -44.73,-44.73l0 -407.47c0,-12.31 4.39,-22.92 13.1,-31.62l1189.97 -1189.98 -35.03 0c-12.32,0 -22.92,4.4 -31.63,13.11l-61.95 61.95c-8.71,8.7 -19.31,13.1 -31.63,13.1l-1802.3 0c-12.32,0 -22.92,-4.4 -31.63,-13.1l-208.34 -208.35c-8.71,-8.71 -13.11,-19.31 -13.11,-31.63l0 -294.86 40.41 0c24.64,0 44.73,-20.09 44.73,-44.73l0 -143.96c0,-24.64 20.1,-44.73 44.73,-44.73l389.88 0c12.32,0 22.92,4.39 31.63,13.1l153.87 153.87c8.71,8.71 19.31,13.1 31.63,13.1l447.62 0c12.32,0 22.92,-4.39 31.63,-13.1l153.88 -153.87c8.71,-8.71 19.31,-13.1 31.63,-13.1l354.21 0c18.48,0 34.26,-10.55 41.33,-27.61 7.07,-17.07 3.36,-35.69 -9.7,-48.75l-1328.62 -1328.62c-8.71,-8.71 -13.1,-19.31 -13.1,-31.63l0 -100.51c0,-12.32 -4.39,-22.92 -13.1,-31.63l-170.78 -170.76c-17.41,-17.42 -17.41,-45.85 0,-63.26l324.2 -324.19c17.42,-17.42 45.84,-17.42 63.26,0l208.66 208.66c8.71,8.71 19.31,13.1 31.63,13.1l61.96 0c12.32,0 22.92,4.4 31.63,13.1l535.04 535.04 0 -42.12 948.02 948.02c13.06,13.06 31.68,16.77 48.74,9.7 17.07,-7.08 27.62,-22.86 27.62,-41.33l0 -962.55c0,-18.48 10.54,-34.26 27.61,-41.33 17.07,-7.07 35.69,-3.37 48.75,9.7l53.23 53.23 0 -72.56c0,-24.64 20.09,-44.73 44.73,-44.73l250.54 0c12.31,0 22.92,4.39 31.63,13.1l207.93 207.94c8.71,8.71 13.1,19.31 13.1,31.63l0 206.21 32.39 0c24.63,0 44.73,20.09 44.73,44.73l0 689.35c0,18.47 10.54,34.25 27.61,41.33 17.07,7.06 35.69,3.36 48.75,-9.7l1099.71 -1099.73c17.42,-17.42 45.85,-17.42 63.26,0l324.19 324.19c17.42,17.41 17.42,45.84 0,63.26l-80.3 80.3c-8.7,8.7 -13.1,19.31 -13.1,31.62l0 172.36c0,12.32 -4.39,22.92 -13.1,31.63l-569.74 569.75c-13.07,13.06 -31.68,16.77 -48.75,9.7 -17.07,-7.07 -27.62,-22.85 -27.62,-41.33l0 -101.43 -38.65 38.66c-8.71,8.7 -13.1,19.31 -13.1,31.62l0 172.35c0,12.32 -4.39,22.92 -13.1,31.63l-45.98 45.98c-13.06,13.07 -16.77,31.68 -9.7,48.75 7.07,17.07 22.85,27.61 41.33,27.61l753.67 0c24.63,0 44.73,20.1 44.73,44.74l0 23.47c0,24.64 20.09,44.73 44.73,44.73z"/>
    <g>
     <g>
      <polygon class="fil2" points="3160.27,2510.13 2863.12,2212.98 2912.63,2163.47 2401.73,1652.58 2302.72,1652.58 2110.95,1460.81 1933.9,1637.86 2087.77,1791.73 2087.77,1929.3 2474.21,2315.73 2474.21,2243.31 2506.78,2210.74 2908.85,2612.8 2908.85,2654.34 2812.81,2654.34 3968.03,3809.55 3968.03,3755.47 4202.54,3520.96 4312.23,3520.96 3160.27,2369 "/>
      <path class="fil2" d="M5400.91 3123.02l349.3 -349.3 0 209.41 361.66 -361.65 0 -209.42 63.4 -63.4 -177.05 -177.05 -1264.27 1264.27 68.53 68.52 -68.27 68.27 108.53 108.52 0 115.85 -146.04 -146.03 -257.26 257.26 -257.27 257.27 -257.27 -257.27 257.27 -257.26 514.53 514.53 257.27 -257.27 -64.45 -64.45 511.39 -511.39 0 -209.41zm-1115.93 526.54l153.9 -153.9 153.91 153.9 -153.91 153.9 -153.9 -153.9zm1.41 517.43l153.91 153.9 153.9 -153.9 -153.9 -153.9 -153.91 153.9z"/>
      <polygon class="fil2" points="4564.63,2475.63 4564.63,2163.74 4417.64,2016.76 4314.24,2016.76 4314.24,2344.46 4184.65,2214.86 4184.65,3352.53 4571.9,3352.53 4641.74,3422.38 4641.74,2475.63 "/>
      <polygon class="fil2" points="2149.97,3737.86 1969.89,3557.78 1727.15,3557.78 1727.15,3791.21 1642.01,3791.21 1642.01,3894.19 1789.41,4041.59 2431.31,4041.59 2343.16,3953.44 2575.34,3953.44 2663.49,4041.59 3505.53,4041.59 3593.68,3953.44 3691.72,3953.44 3853.43,3791.74 3619.46,3557.78 2937.97,3557.78 2757.89,3737.86 "/>
      <polygon class="fil2" points="3184.36,5302.36 3221.56,5302.36 3918.75,4605.17 3918.75,4567.97 4107.94,4378.79 3972.06,4242.92 3778.56,4242.92 3369.27,4652.21 3517.62,4652.21 3146.75,5023.08 3072.58,4948.9 2654.57,5366.91 2654.57,5627.24 2859.49,5627.24 "/>
      <polygon class="fil2" points="4564.63,4461.25 4521.93,4461.25 4521.93,4329.63 4440.11,4411.45 4160.1,4411.45 4160.1,5195.87 4314.24,5195.87 4314.24,5924.71 4160.1,5770.57 4160.1,6424 4314.24,6424 4314.24,6605.95 4425.62,6605.95 4564.63,6466.95 "/>
      <polygon class="fil2" points="5748.43,5098.29 5401.19,4751.04 5401.19,4533.06 5088.02,4219.89 4902.84,4219.89 4797.14,4325.6 4938.07,4466.53 4762.58,4466.53 4938.07,4642.03 5877.37,5581.33 6052.87,5581.33 6061.3,5589.75 6304.3,5832.76 6412.39,5724.67 6412.39,5544.26 5966.42,5098.29 "/>
      <polygon class="fil2" points="5502.31,4041.59 5818.5,4041.59 5723.5,4136.59 6171.86,4136.59 6171.86,4041.59 6326.66,4041.59 6326.66,3791.21 6171.86,3791.21 6171.86,3678.27 5738.84,3678.27 5851.78,3791.21 5617.17,3791.21 5617.17,3678.27 5166.42,3678.27 5053.48,3791.21 5015.52,3829.17 5015.52,4041.59 5015.52,4136.59 5597.3,4136.59 "/>
     </g>
     <g>
      <polygon class="fil3" points="4108.35,3458.2 2110.95,1460.81 1933.9,1637.86 3931.3,3635.25 "/>
      <g>
       <rect class="fil3" transform="matrix(0.104179 -0.104179 0.104179 0.104179 4439.43 3908.27)" width="2469.45" height="2469.45"/>
       <rect class="fil3" transform="matrix(0.104179 -0.104179 0.104179 0.104179 3924.9 3908.27)" width="2469.45" height="2469.45"/>
       <rect class="fil3" transform="matrix(0.0623218 -0.0623217 0.0623218 0.0623217 4284.98 3649.56)" width="2469.45" height="2469.45"/>
       <rect class="fil3" transform="matrix(0.0623218 0.0623217 0.0623218 -0.0623217 4286.4 4166.99)" width="2469.45" height="2469.45"/>
      </g>
      <polygon class="fil3" points="4911,3612.93 6175.27,2348.66 5998.22,2171.61 4733.95,3435.88 "/>
      <polygon class="fil3" points="4564.63,3232.2 4564.63,2163.74 4417.64,2016.76 4314.24,2016.76 4314.24,3226.27 4440.5,3352.53 4444.3,3352.53 "/>
      <polygon class="fil3" points="2431.31,4041.59 2180.93,3791.21 1642.01,3791.21 1642.01,3894.19 1789.41,4041.59 "/>
      <polygon class="fil3" points="3505.53,4041.59 3755.91,3791.21 2413.1,3791.21 2663.49,4041.59 "/>
      <polygon class="fil3" points="2929.1,5240.73 2990.74,5302.36 3221.56,5302.36 3918.75,4605.17 3918.75,4422.58 3747.25,4422.58 3517.62,4652.21 3146.75,5023.08 "/>
      <polygon class="fil3" points="4564.63,4461.25 4314.24,4461.25 4314.24,6605.95 4425.62,6605.95 4564.63,6466.95 "/>
      <polygon class="fil3" points="6150.6,5500.45 5748.43,5098.29 5401.19,4751.04 5116.68,4466.53 4938.07,4466.53 4762.58,4466.53 4938.07,4642.03 5877.37,5581.33 6037.11,5581.33 6052.87,5581.33 6069.72,5581.33 "/>
      <polygon class="fil3" points="5427.1,3791.21 5176.71,4041.59 6326.66,4041.59 6326.66,3791.21 "/>
     </g>
    </g>
   </g>
   <path class="fil4" d="M3347.66 7231.91l-515.41 1105.31c-45.7,98 -3.08,215.11 94.93,260.82 98.83,46.08 215.98,4.91 262.23,-94.28l515.42 -1105.3c45.7,-98.01 3.07,-215.12 -94.93,-260.82 -98.84,-46.09 -215.99,-4.92 -262.24,94.27z"/>
   <path class="fil4" d="M4312.48 7232.3l-515.42 1105.3c-45.7,98.01 -3.07,215.12 94.94,260.83 98.83,46.08 215.98,4.91 262.23,-94.28l515.41 -1105.3c45.7,-98.01 3.08,-215.12 -94.93,-260.82 -98.83,-46.09 -215.98,-4.92 -262.23,94.27z"/>
   <path class="fil5" d="M5275.86 7231.91l-515.41 1105.31c-45.7,98 -3.08,215.11 94.93,260.82 98.83,46.08 215.98,4.91 262.24,-94.28l515.41 -1105.3c45.7,-98.01 3.07,-215.12 -94.93,-260.82 -98.84,-46.09 -215.99,-4.92 -262.24,94.27z"/>
   <path class="fil6" d="M7517.5 390.89c152.07,0 290.36,62.13 390.32,162.08 99.95,99.95 162.08,238.25 162.08,390.32l0 6469.96c0,152.07 -62.13,290.37 -162.08,390.32 -99.96,99.95 -238.25,162.08 -390.32,162.08l-1262.47 0 0 -194.96 1262.47 0c98.39,0 187.94,-40.3 252.54,-104.89 64.6,-64.6 104.89,-154.16 104.89,-252.55l0 -6469.96c0,-98.39 -40.29,-187.95 -104.89,-252.54 -64.6,-64.6 -154.15,-104.9 -252.54,-104.9l-6568.36 0c-98.4,0 -187.95,40.3 -252.55,104.9 -64.6,64.59 -104.89,154.15 -104.89,252.54l0 6469.96c0,98.39 40.29,187.95 104.89,252.55 64.6,64.59 154.15,104.89 252.55,104.89l1262.46 0 0 194.96 -1262.46 0c-152.08,0 -290.37,-62.13 -390.32,-162.08 -99.96,-99.95 -162.08,-238.25 -162.08,-390.32l0 -6469.96c0,-152.07 62.12,-290.37 162.08,-390.32 99.95,-99.95 238.24,-162.08 390.32,-162.08l6568.36 0z"/>
  </g>
 </g>
</svg>
