<?xml version="1.0" encoding="UTF-8"?>
<!DOCTYPE svg PUBLIC "-//W3C//DTD SVG 1.1//EN" "http://www.w3.org/Graphics/SVG/1.1/DTD/svg11.dtd">
<!-- Creator: CorelDRAW Home & Student 2018 -->
<svg xmlns="http://www.w3.org/2000/svg" xml:space="preserve" width="84.6666mm" height="90.1698mm" version="1.1" style="shape-rendering:geometricPrecision; text-rendering:geometricPrecision; image-rendering:optimizeQuality; fill-rule:evenodd; clip-rule:evenodd"
viewBox="0 0 8466.66 9016.98"
 xmlns:xlink="http://www.w3.org/1999/xlink">
 <defs>
  <style type="text/css">
   <![CDATA[
    .fil1 {fill:#3EF5C3}
    .fil2 {fill:#4D4D4D}
    .fil5 {fill:white}
    .fil3 {fill:#3EF5C3;fill-rule:nonzero}
    .fil4 {fill:black;fill-opacity:0.301961}
    .fil0 {fill:black;fill-opacity:0.501961}
    .fil6 {fill:white;fill-opacity:0.549020}
   ]]>
  </style>
 </defs>
 <g id="Capa_x0020_1">
  <metadata id="CorelCorpID_0Corel-Layer"/>
  <g id="_937949584">
   <path class="fil0" d="M7517.53 -5.84c252.05,0 492.72,100.15 670.85,278.29 178.15,178.13 278.29,418.81 278.29,670.85l0 6470c0,252.04 -100.14,492.72 -278.29,670.85 -178.13,178.14 -418.8,278.29 -670.85,278.29l-1896.22 0 -144.11 309.05c-137.91,295.75 -490.51,424.15 -786.63,287.47l-1.42 -0.65c-95.61,-44.13 -173.84,-110.74 -231.38,-190.68 -163.36,227.2 -471.46,314.02 -733.64,190.31l-1.41 -0.66c-94.64,-44.66 -172.11,-111.29 -229.13,-190.97 -162.71,227.04 -470.04,314.06 -732.2,192.21l-1.41 -0.66c-233.82,-108.67 -363.42,-352.08 -339.95,-595.42l-1470.89 0c-252.05,0 -492.73,-100.15 -670.86,-278.29 -178.14,-178.14 -278.28,-418.82 -278.28,-670.85l0 -6470c0,-252.03 100.14,-492.71 278.28,-670.85 178.13,-178.14 418.81,-278.29 670.86,-278.29l6568.39 0z"/>
   <path class="fil1" d="M3347.66 7231.91l-515.41 1105.31c-45.7,98 -3.08,215.11 94.93,260.82 98.83,46.08 215.98,4.91 262.23,-94.28l515.42 -1105.3c45.7,-98.01 3.07,-215.12 -94.93,-260.82 -98.84,-46.09 -215.99,-4.92 -262.24,94.27z"/>
   <path class="fil2" d="M4312.48 7232.3l-515.42 1105.3c-45.7,98.01 -3.07,215.12 94.94,260.83 98.83,46.08 215.98,4.91 262.23,-94.28l515.41 -1105.3c45.7,-98.01 3.08,-215.12 -94.93,-260.82 -98.83,-46.09 -215.98,-4.92 -262.23,94.27z"/>
   <path class="fil2" d="M5275.86 7231.91l-515.41 1105.31c-45.7,98 -3.08,215.11 94.93,260.82 98.83,46.08 215.98,4.91 262.24,-94.28l515.41 -1105.3c45.7,-98.01 3.07,-215.12 -94.93,-260.82 -98.84,-46.09 -215.99,-4.92 -262.24,94.27z"/>
   <path class="fil3" d="M7517.5 390.89c152.07,0 290.36,62.13 390.32,162.08 99.95,99.95 162.08,238.25 162.08,390.32l0 6469.96c0,152.07 -62.13,290.37 -162.08,390.32 -99.96,99.95 -238.25,162.08 -390.32,162.08l-1262.47 0 0 -194.96 1262.47 0c98.39,0 187.94,-40.3 252.54,-104.89 64.6,-64.6 104.89,-154.16 104.89,-252.55l0 -6469.96c0,-98.39 -40.29,-187.95 -104.89,-252.54 -64.6,-64.6 -154.15,-104.9 -252.54,-104.9l-6568.36 0c-98.4,0 -187.95,40.3 -252.55,104.9 -64.6,64.59 -104.89,154.15 -104.89,252.54l0 6469.96c0,98.39 40.29,187.95 104.89,252.55 64.6,64.59 154.15,104.89 252.55,104.89l1262.46 0 0 194.96 -1262.46 0c-152.08,0 -290.37,-62.13 -390.32,-162.08 -99.96,-99.95 -162.08,-238.25 -162.08,-390.32l0 -6469.96c0,-152.07 62.12,-290.37 162.08,-390.32 99.95,-99.95 238.24,-162.08 390.32,-162.08l6568.36 0z"/>
   <g>
    <path class="fil4" d="M6540.22 4756.97l-1.34 66.53c-0.5,24.64 -20.99,44.31 -45.63,43.82l-387.46 -7.8c-24.63,-0.49 -44.32,-20.99 -43.82,-45.62l4.43 -219.66c0.5,-24.63 -19.19,-45.13 -43.82,-45.63l-98.14 -1.98c-12.67,-0.26 -23.67,4.2 -32.62,13.18 -8.94,8.99 -13.33,20.02 -13,32.69l14.29 556.82c0.64,24.63 -18.93,45.23 -43.56,45.87l-387.4 9.96c-24.62,0.64 -45.23,-18.93 -45.87,-43.57l-5.59 -217.71 -19.41 0.49c-14.62,0.38 -27.03,7.02 -35.44,18.99 -8.41,11.96 -10.48,25.88 -5.88,39.77l516.48 1563.21c7.73,23.39 -5.05,48.78 -28.44,56.51l-1185.48 391.68c-23.4,7.74 -48.79,-5.05 -56.52,-28.45l-119.56 -361.93c-7.71,-23.32 -32.94,-36.11 -56.3,-28.52l-63.31 20.57c-23.42,7.61 -48.75,-5.28 -56.36,-28.71l-119.76 -368.56c-7.61,-23.43 5.29,-48.75 28.72,-56.37l208.93 -67.9c23.42,-7.62 36.33,-32.94 28.71,-56.36l-23.85 -73.42c-3.85,-11.83 -11.43,-20.63 -22.57,-26.19 -11.14,-5.56 -22.72,-6.33 -34.49,-2.29l-581.02 199.27c-23.3,8 -48.82,-4.49 -56.82,-27.8l-125.7 -366.59c-8,-23.3 4.49,-48.82 27.8,-56.82l205.99 -70.65 -6.3 -18.34c-4.74,-13.83 -14.8,-23.68 -28.73,-28.12 -13.94,-4.44 -27.84,-2.22 -39.7,6.32l-1336.24 961.7c-20,14.39 -48.05,9.82 -62.45,-10.19l-729.3 -1013.33c-14.41,-20 -9.83,-48.06 10.17,-62.45l309.38 -222.66c19.94,-14.35 24.56,-42.26 10.31,-62.26l-38.6 -54.2c-14.3,-20.07 -9.59,-48.1 10.48,-62.39l315.65 -224.83c20.06,-14.29 48.09,-9.59 62.38,10.48l127.45 178.94c14.29,20.07 42.32,24.77 62.39,10.47l18.25 -12.99c20.06,-14.28 24.78,-42.3 10.5,-62.36l-355.75 -500.03c-14.28,-20.08 -9.55,-48.1 10.53,-62.38l315.77 -224.66c20.08,-14.28 48.1,-9.55 62.38,10.53l126.24 177.44 15.81 -11.24c11.91,-8.48 18.5,-20.93 18.79,-35.55 0.3,-14.61 -5.77,-27.33 -17.33,-36.27l-1301.63 -1008.05c-19.47,-15.09 -23.06,-43.29 -7.97,-62.77l764.49 -987.08c15.09,-19.48 43.27,-23.07 62.75,-7.98l301.38 233.39c19.42,15.04 47.48,11.54 62.61,-7.8l41 -52.41c15.19,-19.4 43.4,-22.85 62.8,-7.67l305.23 238.8c19.4,15.19 22.85,43.4 7.67,62.8l-135.37 173.02c-15.18,19.4 -11.73,47.61 7.67,62.79l62.91 49.23c9.84,7.69 21.09,10.75 33.47,9.1 12.38,-1.64 22.44,-7.55 29.92,-17.55l357.58 -478.27c14.76,-19.74 42.88,-23.79 62.62,-9.04l310.37 232.05c19.74,14.76 23.79,42.88 9.03,62.61l-130.4 174.43 15.54 11.62c11.71,8.76 25.57,11.22 39.58,7.03 14.02,-4.17 24.26,-13.84 29.25,-27.58l562.31 -1547.33c8.41,-23.14 34.17,-35.18 57.32,-26.76l1173.43 426.43c23.15,8.41 35.18,34.17 26.77,57.32l-130.2 358.26c-8.39,23.08 3.52,48.74 26.56,57.24l62.43 23.04c23.11,8.53 35.02,34.34 26.49,57.45l-134.16 363.56c-8.53,23.11 -34.33,35.01 -57.44,26.48l-248.08 -91.51 -10.72 29.06c-4.39,11.88 -3.79,23.73 1.76,35.11 5.57,11.39 14.54,19.14 26.61,22.99l575.35 183.48c23.48,7.49 36.52,32.73 29.03,56.2l-117.74 369.22c-7.48,23.48 -32.73,36.52 -56.2,29.03l-207.48 -66.16 -5.89 18.49c-4.45,13.92 -2.25,27.84 6.29,39.7 8.53,11.87 21.01,18.39 35.63,18.61l1646.14 25.15c24.63,0.37 44.42,20.78 44.04,45.4l-19.07 1248.36c-0.38,24.64 -20.78,44.43 -45.42,44.05l-381.13 -5.82c-24.55,-0.38 -44.91,19.27 -45.4,43.82z"/>
    <g>
     <g>
      <g>
       <polygon class="fil5" points="4238.48,4284.54 4625.84,3897.16 5013.22,4284.54 4625.84,4671.91 "/>
       <polygon class="fil5" points="3463.72,4284.54 3851.1,3897.16 4238.48,4284.54 3851.1,4671.91 "/>
       <polygon class="fil5" points="4005.91,3894.98 4237.64,3663.25 4469.37,3894.98 4237.64,4126.72 "/>
       <polygon class="fil5" points="4008.04,4674.1 4239.78,4905.83 4471.51,4674.1 4239.78,4442.37 "/>
      </g>
      <g>
       <polygon class="fil5" points="6221.92,4704.12 6383.49,4707.38 6393,4235.97 5243.67,4212.78 5240.39,4375.1 6228.16,4395.03 "/>
       <polygon class="fil5" points="6707.77,3696.98 6694.64,4557.1 6856.22,4559.57 6871.84,3537.11 5066.04,3509.52 5202.69,3081.05 5452.79,3160.81 5501.89,3006.85 5097.11,2877.76 4844.93,3668.52 "/>
       <polygon class="fil5" points="4365.6,6277.61 4415.54,6431.3 4863.96,6285.57 4508.68,5192.29 4354.27,5242.47 4659.62,6182.06 "/>
       <polygon class="fil5" points="5476.41,6406.03 4659.62,6675.89 4710.31,6829.34 5681.27,6508.53 5114.69,4793.71 5564.28,4782.16 5571.02,5044.59 5732.57,5040.44 5721.66,4615.72 4891.94,4637.02 "/>
       <polygon class="fil5" points="2250.55,5017.03 2118.93,5110.79 2392.48,5494.83 3328.8,4827.9 3234.61,4695.66 2429.91,5268.84 "/>
       <polygon class="fil5" points="2461.33,6115.2 1958.83,5417 1827.67,5511.4 2425.01,6341.37 3890.84,5286.4 4036.75,5711.81 3788.43,5796.98 3840.86,5949.84 4242.75,5812 3973.48,5026.9 "/>
       <polygon class="fil5" points="5261.1,2524.75 5317.04,2373.14 4874.68,2209.93 4476.75,3288.42 4629.07,3344.62 4971.06,2417.74 "/>
       <polygon class="fil5" points="4468.33,1736.14 5276.82,2029.95 5332.01,1878.07 4370.93,1528.81 3754.09,3226.2 3393.89,2956.9 3551.08,2746.65 3421.66,2649.89 3167.25,2990.16 3832,3487.16 "/>
       <polygon class="fil5" points="2813,2658.45 2685.72,2558.88 2395.19,2930.24 3300.59,3638.57 3400.63,3510.7 2622.51,2901.94 "/>
       <polygon class="fil5" points="1819.92,3172.45 2346.65,2492.34 2218.88,2393.39 1592.75,3201.86 3020.6,4307.69 2654.15,4568.42 2501.96,4354.51 2370.29,4448.2 2616.6,4794.39 3292.89,4313.22 "/>
      </g>
     </g>
     <g>
      <polygon class="fil6" points="5580.14,3962.35 6439.96,3975.48 6434.85,4309.96 6640.89,4530.91 6652.8,3751.12 4999.72,3725.86 4967.49,3820.97 5455.25,3828.43 "/>
      <polygon class="fil6" points="4855.66,5427.94 5125.44,6244.45 4807.81,6349.39 4666.72,6616.53 5407.23,6371.87 4888.57,4802.06 4788.15,4802.83 4941.19,5266.02 "/>
      <polygon class="fil6" points="3208.12,5229.59 2510.16,5731.91 2314.75,5460.41 2017.59,5405.97 2473.16,6038.96 3815.04,5073.2 3784.17,4977.64 3388.23,5262.59 "/>
      <polygon class="fil6" points="4350.18,2888.54 4643.89,2080.33 4958.29,2194.59 5234.49,2072.17 4501.5,1805.8 3936.82,3359.65 4016.16,3421.22 4182.77,2962.74 "/>
      <polygon class="fil6" points="2881.16,3636.95 2201.29,3110.41 2406.12,2845.93 2373.92,2545.55 1896.39,3162.14 3203.49,4174.46 3286.35,4117.72 2900.68,3819.02 "/>
     </g>
    </g>
   </g>
  </g>
 </g>
</svg>
