<?xml version="1.0" encoding="UTF-8"?>
<!DOCTYPE svg PUBLIC "-//W3C//DTD SVG 1.1//EN" "http://www.w3.org/Graphics/SVG/1.1/DTD/svg11.dtd">
<!-- Creator: CorelDRAW Home & Student 2018 -->
<svg xmlns="http://www.w3.org/2000/svg" xml:space="preserve" width="84.6666mm" height="90.1698mm" version="1.1" style="shape-rendering:geometricPrecision; text-rendering:geometricPrecision; image-rendering:optimizeQuality; fill-rule:evenodd; clip-rule:evenodd"
viewBox="0 0 8466.66 9016.98"
 xmlns:xlink="http://www.w3.org/1999/xlink">
 <defs>
  <style type="text/css">
   <![CDATA[
    .fil1 {fill:#FF81FF}
    .fil5 {fill:white}
    .fil2 {fill:#FF81FF;fill-rule:nonzero}
    .fil3 {fill:black;fill-opacity:0.301961}
    .fil0 {fill:black;fill-opacity:0.501961}
    .fil4 {fill:white;fill-opacity:0.549020}
   ]]>
  </style>
 </defs>
 <g id="Capa_x0020_1">
  <metadata id="CorelCorpID_0Corel-Layer"/>
  <g id="_938365032">
   <path class="fil0" d="M7517.52 -5.84c252.05,0 492.72,100.15 670.85,278.29 178.15,178.13 278.29,418.81 278.29,670.85l0 6470c0,252.04 -100.14,492.72 -278.29,670.85 -178.13,178.14 -418.8,278.29 -670.85,278.29l-1896.22 0 -144.11 309.05c-137.91,295.75 -490.51,424.15 -786.63,287.47l-1.42 -0.65c-95.61,-44.13 -173.84,-110.74 -231.38,-190.68 -163.36,227.2 -471.46,314.02 -733.64,190.31l-1.41 -0.66c-94.64,-44.66 -172.11,-111.29 -229.13,-190.97 -162.71,227.04 -470.04,314.06 -732.2,192.21l-1.41 -0.66c-233.82,-108.67 -363.42,-352.08 -339.95,-595.42l-1470.89 0c-252.05,0 -492.73,-100.15 -670.86,-278.29 -178.14,-178.14 -278.28,-418.82 -278.28,-670.85l0 -6470c0,-252.03 100.14,-492.71 278.28,-670.85 178.13,-178.14 418.81,-278.29 670.86,-278.29l6568.39 0z"/>
   <path class="fil1" d="M3347.65 7231.91l-515.41 1105.31c-45.7,98 -3.08,215.11 94.93,260.82 98.83,46.08 215.98,4.91 262.23,-94.28l515.42 -1105.3c45.7,-98.01 3.07,-215.12 -94.93,-260.82 -98.84,-46.09 -215.99,-4.92 -262.24,94.27z"/>
   <path class="fil1" d="M4312.47 7232.3l-515.42 1105.3c-45.7,98.01 -3.07,215.12 94.94,260.83 98.83,46.08 215.98,4.91 262.23,-94.28l515.41 -1105.3c45.7,-98.01 3.08,-215.12 -94.93,-260.82 -98.83,-46.09 -215.98,-4.92 -262.23,94.27z"/>
   <path class="fil1" d="M5275.85 7231.91l-515.41 1105.31c-45.7,98 -3.08,215.11 94.93,260.82 98.83,46.08 215.98,4.91 262.24,-94.28l515.41 -1105.3c45.7,-98.01 3.07,-215.12 -94.93,-260.82 -98.84,-46.09 -215.99,-4.92 -262.24,94.27z"/>
   <path class="fil2" d="M7517.49 390.89c152.07,0 290.36,62.13 390.32,162.08 99.95,99.95 162.08,238.25 162.08,390.32l0 6469.96c0,152.07 -62.13,290.37 -162.08,390.32 -99.96,99.95 -238.25,162.08 -390.32,162.08l-1262.47 0 0 -194.96 1262.47 0c98.39,0 187.94,-40.3 252.54,-104.89 64.6,-64.6 104.89,-154.16 104.89,-252.55l0 -6469.96c0,-98.39 -40.29,-187.95 -104.89,-252.54 -64.6,-64.6 -154.15,-104.9 -252.54,-104.9l-6568.36 0c-98.4,0 -187.95,40.3 -252.55,104.9 -64.6,64.59 -104.89,154.15 -104.89,252.54l0 6469.96c0,98.39 40.29,187.95 104.89,252.55 64.6,64.59 154.15,104.89 252.55,104.89l1262.46 0 0 194.96 -1262.46 0c-152.08,0 -290.37,-62.13 -390.32,-162.08 -99.96,-99.95 -162.08,-238.25 -162.08,-390.32l0 -6469.96c0,-152.07 62.12,-290.37 162.08,-390.32 99.95,-99.95 238.24,-162.08 390.32,-162.08l6568.36 0z"/>
   <g>
    <path class="fil3" d="M3294.9 5055.04l-441.6 275.95c-7.43,4.64 -14.94,6.79 -23.7,6.79l-687.45 0c-12.37,0 -23.03,-4.43 -31.74,-13.21l-572.88 -577.02c-8.64,-8.7 -12.99,-19.26 -12.99,-31.52l0 -1075.53c0,-12.26 4.35,-22.82 12.99,-31.52l572.88 -577.01c8.71,-8.78 19.37,-13.22 31.74,-13.22l687.45 0c8.76,0 16.27,2.16 23.7,6.8l441.6 275.94c17.88,11.17 40.43,8.6 55.34,-6.29 14.91,-14.91 17.46,-37.47 6.3,-55.34l-275.95 -441.6c-4.64,-7.43 -6.79,-14.94 -6.79,-23.7l0 -687.45c0,-12.37 4.43,-23.03 13.21,-31.74l577.01 -572.88c8.71,-8.64 19.26,-12.99 31.52,-12.99l1075.54 0c12.26,0 22.82,4.35 31.52,12.99l577.01 572.88c8.78,8.71 13.21,19.37 13.21,31.74l0 687.45c0,8.76 -2.15,16.27 -6.79,23.7l-275.95 441.6c-11.16,17.87 -8.6,40.43 6.3,55.34 14.91,14.9 37.46,17.46 55.34,6.29l441.6 -275.94c7.43,-4.64 14.94,-6.8 23.7,-6.8l687.45 0c12.37,0 23.03,4.44 31.74,13.22l572.88 577.01c8.64,8.71 12.99,19.26 12.99,31.52l0 1075.53c0,12.26 -4.35,22.83 -12.99,31.52l-572.88 577.02c-8.71,8.78 -19.37,13.21 -31.74,13.21l-687.45 0c-8.76,0 -16.27,-2.15 -23.7,-6.79l-441.6 -275.95c-17.88,-11.17 -40.43,-8.6 -55.34,6.3 -14.91,14.91 -17.46,37.46 -6.3,55.33l275.95 441.6c4.64,7.43 6.79,14.95 6.79,23.71l0 687.44c0,12.38 -4.43,23.03 -13.21,31.75l-577.01 572.88c-8.71,8.64 -19.26,12.98 -31.52,12.98l-1075.54 0c-12.26,0 -22.82,-4.34 -31.52,-12.98l-577.01 -572.88c-8.78,-8.72 -13.21,-19.37 -13.21,-31.75l0 -687.44c0,-8.76 2.15,-16.28 6.79,-23.71l275.95 -441.6c11.16,-17.87 8.6,-40.42 -6.3,-55.33 -14.91,-14.9 -37.46,-17.47 -55.34,-6.3zm430.37 -2692.88l0 276.89c0,6.6 1.21,12.25 3.91,18.27l349.91 781.78c7.37,16.46 22.79,26.45 40.82,26.45l226.79 0c18.04,0 33.46,-9.99 40.83,-26.45l349.92 -781.78c2.69,-6.02 3.9,-11.67 3.9,-18.27l0 -276.89c0,-16.69 -8.42,-31.01 -23.01,-39.11l-89.26 -49.57c-6.95,-3.86 -13.77,-5.63 -21.71,-5.63l-748.12 0c-7.94,0 -14.76,1.77 -21.71,5.63l-89.26 49.57c-14.59,8.1 -23.01,22.42 -23.01,39.11zm2324.15 1308.06l-276.9 0c-6.59,0 -12.24,1.21 -18.27,3.91l-781.77 349.92c-16.47,7.37 -26.45,22.79 -26.45,40.82l0 226.78c0,18.04 9.98,33.47 26.45,40.84l781.77 349.91c6.03,2.7 11.68,3.91 18.27,3.91l276.9 0c16.68,0 31.01,-8.42 39.11,-23.01l49.57 -89.27c3.86,-6.95 5.62,-13.76 5.62,-21.71l0 -748.11c0,-7.94 -1.76,-14.76 -5.62,-21.71l-49.57 -89.26c-8.1,-14.59 -22.43,-23.02 -39.11,-23.02zm-1308.07 2324.16l0 -276.9c0,-6.6 -1.21,-12.25 -3.9,-18.27l-349.92 -781.78c-7.37,-16.46 -22.79,-26.45 -40.82,-26.45l-226.79 0c-18.04,0 -33.46,9.99 -40.83,26.45l-349.91 781.78c-2.7,6.02 -3.91,11.67 -3.91,18.27l0 276.9c0,16.68 8.42,31 23.01,39.11l89.26 49.57c6.95,3.85 13.77,5.62 21.71,5.62l748.12 0c7.94,0 14.76,-1.77 21.71,-5.62l89.26 -49.57c14.59,-8.11 23.01,-22.43 23.01,-39.11zm-2324.15 -1308.07l276.9 0c6.59,0 12.24,-1.21 18.27,-3.91l781.77 -349.91c16.47,-7.37 26.45,-22.8 26.45,-40.83l0 -226.78c0,-18.04 -9.98,-33.46 -26.45,-40.83l-781.77 -349.92c-6.03,-2.7 -11.68,-3.91 -18.27,-3.91l-276.9 0c-16.68,0 -31.01,8.43 -39.11,23.02l-49.57 89.26c-3.86,6.95 -5.62,13.77 -5.62,21.71l0 748.11c0,7.95 1.76,14.76 5.62,21.71l49.57 89.27c8.1,14.59 22.43,23.01 39.11,23.01z"/>
    <g>
     <g>
      <polygon class="fil4" points="3994.53,4742.21 3576.49,5676.15 3576.49,6009.07 3418.5,5921.31 3418.5,5627.03 3995.33,4636.69 4471.29,4636.69 5048.12,5627.03 5048.12,5921.31 4890.13,6009.07 4890.13,5676.15 4472.09,4742.21 "/>
      <polygon class="fil4" points="3994.53,3614.33 3576.49,2680.38 3576.49,2347.47 3418.5,2435.22 3418.5,2729.51 3995.33,3719.85 4471.29,3719.85 5048.12,2729.51 5048.12,2435.22 4890.13,2347.47 4890.13,2680.38 4472.09,3614.33 "/>
      <polygon class="fil4" points="4797.25,4417.05 5731.19,4835.08 6064.11,4835.08 5976.35,4993.08 5682.07,4993.08 4691.73,4416.25 4691.73,3940.29 5682.07,3363.45 5976.35,3363.45 6064.11,3521.45 5731.19,3521.45 4797.25,3939.49 "/>
      <polygon class="fil4" points="3669.37,4417.05 2735.43,4835.08 2402.51,4835.08 2490.27,4993.08 2784.55,4993.08 3774.89,4416.25 3774.89,3940.29 2784.55,3363.45 2490.27,3363.45 2402.51,3521.45 2735.43,3521.45 3669.37,3939.49 "/>
     </g>
     <g>
      <g>
       <polygon class="fil5" points="4233.31,4178.27 4435.28,3976.28 4637.27,4178.27 4435.28,4380.25 "/>
       <polygon class="fil5" points="3829.34,4178.27 4031.32,3976.28 4233.31,4178.27 4031.32,4380.25 "/>
       <polygon class="fil5" points="4112.04,3975.14 4232.87,3854.32 4353.7,3975.14 4232.87,4095.98 "/>
       <polygon class="fil5" points="4113.15,4381.39 4233.98,4502.22 4354.81,4381.39 4233.98,4260.56 "/>
      </g>
      <g>
       <path class="fil5" d="M5139.34 5647.41l0 322.42 -481.85 267.62 -848.36 0 -481.85 -267.62 0 -322.42 559.03 -959.78 -86.23 0 -577.51 924.18 0 614.3 515.85 512.15 989.78 0 515.85 -512.15 0 -614.3 -577.51 -924.18 -86.23 0 559.03 959.78zm-411.71 670.96l411.71 -295.8 0 178.52 -417.4 299.89 -977.26 0 -417.4 -299.89 0 -178.52 411.71 295.8 988.64 0z"/>
       <path class="fil5" d="M5139.34 2709.13l0 -322.43 -481.85 -267.62 -848.36 0 -481.85 267.62 0 322.43 559.03 959.78 -86.23 0 -577.51 -924.19 0 -614.29 515.85 -512.15 989.78 0 515.85 512.15 0 614.29 -577.51 924.19 -86.23 0 559.03 -959.78zm-411.71 -670.96l411.71 295.8 0 -178.53 -417.4 -299.89 -977.26 0 -417.4 299.89 0 178.53 411.71 -295.8 988.64 0z"/>
       <path class="fil5" d="M5702.45 3272.24l322.42 0 267.63 481.84 0 848.37 -267.63 481.85 -322.42 0 -959.78 -559.03 0 86.23 924.19 577.51 614.29 0 512.15 -515.85 0 -989.78 -512.15 -515.85 -614.29 0 -924.19 577.51 0 86.23 959.78 -559.03zm670.96 411.71l-295.8 -411.71 178.53 0 299.89 417.39 0 977.27 -299.89 417.4 -178.53 0 295.8 -411.72 0 -988.63z"/>
       <path class="fil5" d="M2764.17 3272.24l-322.42 0 -267.63 481.84 0 848.37 267.63 481.85 322.42 0 959.78 -559.03 0 86.23 -924.19 577.51 -614.29 0 -512.15 -515.85 0 -989.78 512.15 -515.85 614.29 0 924.19 577.51 0 86.23 -959.78 -559.03zm-670.96 411.71l295.8 -411.71 -178.53 0 -299.89 417.39 0 977.27 299.89 417.4 178.53 0 -295.8 -411.72 0 -988.63z"/>
      </g>
     </g>
    </g>
   </g>
  </g>
 </g>
</svg>
