<?xml version="1.0" encoding="UTF-8"?>
<!DOCTYPE svg PUBLIC "-//W3C//DTD SVG 1.1//EN" "http://www.w3.org/Graphics/SVG/1.1/DTD/svg11.dtd">
<!-- Creator: CorelDRAW Home & Student 2018 -->
<svg xmlns="http://www.w3.org/2000/svg" xml:space="preserve" width="84.6666mm" height="90.1698mm" version="1.1" style="shape-rendering:geometricPrecision; text-rendering:geometricPrecision; image-rendering:optimizeQuality; fill-rule:evenodd; clip-rule:evenodd"
viewBox="0 0 8466.66 9016.98"
 xmlns:xlink="http://www.w3.org/1999/xlink">
 <defs>
  <style type="text/css">
   <![CDATA[
    .fil2 {fill:#4D4D4D}
    .fil1 {fill:#B78EFF}
    .fil6 {fill:white}
    .fil3 {fill:#B78EFF;fill-rule:nonzero}
    .fil4 {fill:black;fill-opacity:0.301961}
    .fil0 {fill:black;fill-opacity:0.501961}
    .fil5 {fill:white;fill-opacity:0.549020}
   ]]>
  </style>
 </defs>
 <g id="Capa_x0020_1">
  <metadata id="CorelCorpID_0Corel-Layer"/>
  <g id="_926307840">
   <path class="fil0" d="M7517.53 -1.63c252.05,0 492.72,100.15 670.85,278.29 178.15,178.13 278.29,418.81 278.29,670.85l0 6470c0,252.04 -100.14,492.72 -278.29,670.85 -178.13,178.14 -418.8,278.29 -670.85,278.29l-1896.22 0 -144.11 309.05c-137.91,295.75 -490.51,424.15 -786.63,287.47 -93.43,-43.12 -172.65,-107.76 -232.8,-191.33 -163.36,227.2 -471.46,314.02 -733.64,190.31 -92.53,-43.66 -170.96,-108.38 -230.54,-191.63 -162.71,227.04 -470.04,314.06 -732.2,192.21 -228.73,-106.32 -365.59,-344.91 -341.36,-596.08l-1470.89 0c-252.05,0 -492.73,-100.15 -670.86,-278.29 -178.14,-178.14 -278.28,-418.82 -278.28,-670.85l0 -6470c0,-252.03 100.14,-492.71 278.28,-670.85 178.13,-178.14 418.81,-278.29 670.86,-278.29l6568.39 0z"/>
   <path class="fil1" d="M3347.66 7236.12l-515.41 1105.31c-45.7,98 -3.08,215.11 94.93,260.82 98.83,46.08 215.98,4.91 262.23,-94.28l515.42 -1105.3c45.7,-98.01 3.07,-215.12 -94.93,-260.82 -98.84,-46.09 -215.99,-4.92 -262.24,94.27z"/>
   <path class="fil1" d="M4312.48 7236.51l-515.42 1105.3c-45.7,98.01 -3.07,215.12 94.94,260.83 98.83,46.08 215.98,4.91 262.23,-94.28l515.41 -1105.3c45.7,-98.01 3.08,-215.12 -94.93,-260.82 -98.83,-46.09 -215.98,-4.92 -262.23,94.27z"/>
   <path class="fil2" d="M5275.86 7236.12l-515.41 1105.31c-45.7,98 -3.08,215.11 94.93,260.82 98.83,46.08 215.98,4.91 262.24,-94.28l515.41 -1105.3c45.7,-98.01 3.07,-215.12 -94.93,-260.82 -98.84,-46.09 -215.99,-4.92 -262.24,94.27z"/>
   <path class="fil3" d="M7517.5 395.1c152.07,0 290.36,62.13 390.32,162.08 99.95,99.95 162.08,238.25 162.08,390.32l0 6469.96c0,152.07 -62.13,290.37 -162.08,390.32 -99.96,99.95 -238.25,162.08 -390.32,162.08l-1262.47 0 0 -194.96 1262.47 0c98.39,0 187.94,-40.3 252.54,-104.89 64.6,-64.6 104.89,-154.16 104.89,-252.55l0 -6469.96c0,-98.39 -40.29,-187.95 -104.89,-252.54 -64.6,-64.6 -154.15,-104.9 -252.54,-104.9l-6568.36 0c-98.4,0 -187.95,40.3 -252.55,104.9 -64.6,64.59 -104.89,154.15 -104.89,252.54l0 6469.96c0,98.39 40.29,187.95 104.89,252.55 64.6,64.59 154.15,104.89 252.55,104.89l1262.46 0 0 194.96 -1262.46 0c-152.08,0 -290.37,-62.13 -390.32,-162.08 -99.96,-99.95 -162.08,-238.25 -162.08,-390.32l0 -6469.96c0,-152.07 62.12,-290.37 162.08,-390.32 99.95,-99.95 238.24,-162.08 390.32,-162.08l6568.36 0z"/>
   <g>
    <path class="fil4" d="M6105.53 2787.93l-15.43 -20.4c-13.51,-17.86 -11.88,-42.53 3.88,-58.45l184.28 -186.25c17.27,-17.46 45.55,-17.68 63.1,-0.49l642.92 629.89c8.91,8.73 13.43,19.47 13.43,31.95l0 555.26c0,24.64 20.09,44.73 44.73,44.73l4.68 0c24.64,0 44.73,20.09 44.73,44.73l0 712.91c0,24.63 -20.09,44.73 -44.73,44.73l-4.68 0c-24.64,0 -44.73,20.09 -44.73,44.73l0 552.11c0,12.47 -4.52,23.22 -13.43,31.94l-642.93 629.9c-17.55,17.19 -45.83,16.96 -63.1,-0.49l-184.27 -186.28c-15.75,-15.92 -17.38,-40.57 -3.87,-58.44l116.53 -154.12 -237.54 183.64c-3.39,2.62 -6.58,4.46 -10.55,6.07l-1482.79 600.78c-14.21,5.76 -29.07,4.2 -41.78,-4.37 -12.73,-8.57 -19.75,-21.75 -19.75,-37.09l0 -595.12c0,-14.29 6.03,-26.59 17.33,-35.34l1611.44 -1249.33c6.61,-5.12 13.48,-7.98 21.8,-9.03l45.01 -5.69c22.49,-2.83 39.13,-21.71 39.13,-44.37l0 -598.8c0,-14.5 -6.22,-26.98 -17.79,-35.71l-1699.45 -1281.9c-11.58,-8.73 -17.8,-21.21 -17.8,-35.71l0 -523.56c0,-16.8 8.56,-31.23 23.31,-39.28 14.76,-8.04 31.51,-7.44 45.64,1.67l1622.68 1045.18zm-2883.19 1988.91l-685.23 157.44c-10.05,2.31 -19.36,1.35 -28.72,-2.97l-155.03 -71.35 1750.17 1508.08c10.22,8.8 15.53,20.4 15.53,33.88l0 336.4c0,17.17 -8.96,31.89 -24.23,39.76 -15.26,7.87 -32.46,6.64 -46.45,-3.32l-1667.17 -1187.31 9.51 12.56c13.5,17.86 11.86,42.51 -3.88,58.43l-184.27 186.29c-17.27,17.45 -45.56,17.68 -63.1,0.49l-642.94 -629.89c-8.92,-8.72 -13.43,-19.47 -13.43,-31.94l0 -552.12c0,-24.64 -20.1,-44.73 -44.73,-44.73l-4.68 0c-24.63,0 -44.73,-20.1 -44.73,-44.73l0 -712.91c0,-24.64 20.1,-44.73 44.73,-44.73l4.68 0c24.63,0 44.73,-20.09 44.73,-44.73l0 -555.27c0,-12.48 4.51,-23.22 13.43,-31.95l642.93 -629.88c17.54,-17.19 45.82,-16.97 63.1,0.49l184.28 186.25c15.75,15.92 17.38,40.59 3.88,58.45l-25.73 34.02 1683.39 -1198.86c13.99,-9.96 31.19,-11.19 46.45,-3.32 15.27,7.87 24.23,22.59 24.23,39.76l0 336.4c0,13.48 -5.31,25.08 -15.53,33.88l-1704.16 1468.43 44.8 -21.72c7.65,-3.71 15.11,-5.06 23.59,-4.29l827.72 75.88c13.7,1.26 25.99,-3.19 35.72,-12.91l190.99 -191c17.42,-17.41 45.84,-17.41 63.26,0l71.26 71.27c17.42,17.41 45.84,17.41 63.26,0l483.59 -483.59c17.41,-17.41 45.84,-17.41 63.25,0l485.06 485.06c17.41,17.41 45.84,17.41 63.26,0l72.73 -72.74c17.41,-17.41 45.84,-17.41 63.25,0l829.98 829.98c17.42,17.42 17.42,45.85 0,63.26l-829.98 829.97c-17.41,17.42 -45.84,17.42 -63.25,0l-70.85 -70.84c-17.42,-17.42 -45.84,-17.42 -63.26,0l-483.19 483.18c-17.41,17.42 -45.84,17.42 -63.26,0l-485.46 -485.47c-17.42,-17.41 -45.85,-17.41 -63.26,0l-73.13 73.13c-17.42,17.42 -45.84,17.42 -63.26,0l-258.2 -258.2c-11.22,-11.22 -26.19,-15.52 -41.65,-11.97zm-980.37 -1222.67l-2.62 -2.56 -2.98 3.83 0 1.44 5.6 -2.71zm10.16 1259.2l-15.76 -7.26 0 15.91 2.98 3.82 12.78 -12.47z"/>
    <g>
     <g>
      <polygon class="fil5" points="4236.65,4185.41 4919.49,3502.57 5602.32,4185.41 4919.49,4868.24 "/>
      <polygon class="fil5" points="2870.98,4185.41 3553.82,3502.57 4236.65,4185.41 3553.82,4868.24 "/>
      <polygon class="fil5" points="3826.71,3498.73 4235.19,3090.25 4643.67,3498.73 4235.19,3907.21 "/>
      <polygon class="fil5" points="3830.46,4872.1 4238.94,5280.58 4647.42,4872.1 4238.94,4463.62 "/>
     </g>
     <g>
      <polygon class="fil6" points="2217.7,5617.88 1796.49,5060.84 1796.49,3306.71 2217.7,2749.67 2169.62,2701.07 1631.87,3227.89 1631.87,3932.95 1537.73,3932.95 1537.73,4437.76 1631.87,4437.76 1631.87,5139.66 2169.62,5666.48 "/>
      <polygon class="fil6" points="6263.11,5617.88 6684.32,5060.84 6684.32,3306.71 6263.11,2749.67 6311.19,2701.07 6848.94,3227.89 6848.94,3932.95 6943.07,3932.95 6943.07,4437.76 6848.94,4437.76 6848.94,5139.66 6311.19,5666.48 "/>
      <polygon class="fil6" points="2000.11,4898.79 2000.11,4533.58 1954.11,4512.41 1954.11,3859.1 2000.11,3836.79 2000.11,3478.66 2163.31,3269.35 2079.52,3187.5 3970.29,1840.96 3970.29,1927.84 2280.54,3383.86 2224.32,3328.94 2087.6,3504.29 2087.6,3794.37 2483.02,3602.63 4099.24,3750.82 4099.24,4422.7 2538.37,4781.34 2087.6,4573.85 2087.6,4873.16 2224.32,5048.51 2280.54,4993.59 3970.29,6449.61 3970.29,6536.49 2079.52,5189.95 2163.31,5108.1 "/>
      <polygon class="fil6" points="6409.79,4412.47 6111.67,4450.14 4563,5650.8 4563,6040.5 5889.43,5503.09 6490.27,5038.57 6490.27,3518.19 6278.17,3076.09 4562.67,1971.12 4562.67,2252.08 6409.79,3645.36 6409.79,3776.61 6297.71,3776.61 6297.71,4349.71 6409.79,4349.71 "/>
     </g>
    </g>
   </g>
  </g>
 </g>
</svg>
