<?xml version="1.0" encoding="UTF-8"?>
<!DOCTYPE svg PUBLIC "-//W3C//DTD SVG 1.1//EN" "http://www.w3.org/Graphics/SVG/1.1/DTD/svg11.dtd">
<!-- Creator: CorelDRAW Home & Student 2018 -->
<svg xmlns="http://www.w3.org/2000/svg" xml:space="preserve" width="84.6666mm" height="90.1698mm" version="1.1" style="shape-rendering:geometricPrecision; text-rendering:geometricPrecision; image-rendering:optimizeQuality; fill-rule:evenodd; clip-rule:evenodd"
viewBox="0 0 8466.66 9016.98"
 xmlns:xlink="http://www.w3.org/1999/xlink">
 <defs>
  <style type="text/css">
   <![CDATA[
    .fil1 {fill:#3EF5C3}
    .fil2 {fill:#4D4D4D}
    .fil6 {fill:white}
    .fil3 {fill:#3EF5C3;fill-rule:nonzero}
    .fil4 {fill:black;fill-opacity:0.301961}
    .fil0 {fill:black;fill-opacity:0.501961}
    .fil5 {fill:white;fill-opacity:0.549020}
   ]]>
  </style>
 </defs>
 <g id="Capa_x0020_1">
  <metadata id="CorelCorpID_0Corel-Layer"/>
  <g id="_933558640">
   <path class="fil0" d="M7517.53 -5.84c252.05,0 492.72,100.15 670.85,278.29 178.15,178.13 278.29,418.81 278.29,670.85l0 6470c0,252.04 -100.14,492.72 -278.29,670.85 -178.13,178.14 -418.8,278.29 -670.85,278.29l-1896.22 0 -144.11 309.05c-137.91,295.75 -490.51,424.15 -786.63,287.47l-1.42 -0.65c-95.61,-44.13 -173.84,-110.74 -231.38,-190.68 -163.36,227.2 -471.46,314.02 -733.64,190.31l-1.41 -0.66c-94.64,-44.66 -172.11,-111.29 -229.13,-190.97 -162.71,227.04 -470.04,314.06 -732.2,192.21l-1.41 -0.66c-233.82,-108.67 -363.42,-352.08 -339.95,-595.42l-1470.89 0c-252.05,0 -492.73,-100.15 -670.86,-278.29 -178.14,-178.14 -278.28,-418.82 -278.28,-670.85l0 -6470c0,-252.03 100.14,-492.71 278.28,-670.85 178.13,-178.14 418.81,-278.29 670.86,-278.29l6568.39 0z"/>
   <path class="fil1" d="M3347.66 7231.91l-515.41 1105.31c-45.7,98 -3.08,215.11 94.93,260.82 98.83,46.08 215.98,4.91 262.23,-94.28l515.42 -1105.3c45.7,-98.01 3.07,-215.12 -94.93,-260.82 -98.84,-46.09 -215.99,-4.92 -262.24,94.27z"/>
   <path class="fil2" d="M4312.48 7232.3l-515.42 1105.3c-45.7,98.01 -3.07,215.12 94.94,260.83 98.83,46.08 215.98,4.91 262.23,-94.28l515.41 -1105.3c45.7,-98.01 3.08,-215.12 -94.93,-260.82 -98.83,-46.09 -215.98,-4.92 -262.23,94.27z"/>
   <path class="fil2" d="M5275.86 7231.91l-515.41 1105.31c-45.7,98 -3.08,215.11 94.93,260.82 98.83,46.08 215.98,4.91 262.24,-94.28l515.41 -1105.3c45.7,-98.01 3.07,-215.12 -94.93,-260.82 -98.84,-46.09 -215.99,-4.92 -262.24,94.27z"/>
   <path class="fil3" d="M7517.5 390.89c152.07,0 290.36,62.13 390.32,162.08 99.95,99.95 162.08,238.25 162.08,390.32l0 6469.96c0,152.07 -62.13,290.37 -162.08,390.32 -99.96,99.95 -238.25,162.08 -390.32,162.08l-1262.47 0 0 -194.96 1262.47 0c98.39,0 187.94,-40.3 252.54,-104.89 64.6,-64.6 104.89,-154.16 104.89,-252.55l0 -6469.96c0,-98.39 -40.29,-187.95 -104.89,-252.54 -64.6,-64.6 -154.15,-104.9 -252.54,-104.9l-6568.36 0c-98.4,0 -187.95,40.3 -252.55,104.9 -64.6,64.59 -104.89,154.15 -104.89,252.54l0 6469.96c0,98.39 40.29,187.95 104.89,252.55 64.6,64.59 154.15,104.89 252.55,104.89l1262.46 0 0 194.96 -1262.46 0c-152.08,0 -290.37,-62.13 -390.32,-162.08 -99.96,-99.95 -162.08,-238.25 -162.08,-390.32l0 -6469.96c0,-152.07 62.12,-290.37 162.08,-390.32 99.95,-99.95 238.24,-162.08 390.32,-162.08l6568.36 0z"/>
   <g>
    <path class="fil4" d="M6508.78 4146.65l-303.56 -303.56c-13.06,-13.06 -16.77,-31.68 -9.7,-48.75 7.07,-17.07 22.85,-27.61 41.33,-27.61l667.07 0c12.33,0 22.93,4.39 31.64,13.11l366.61 366.82c17.4,17.41 17.4,45.82 0,63.24l-473.07 473.33 -1399.55 1400.32c-17.43,17.44 -45.85,17.44 -63.28,0l-842.97 -843.43c-13.06,-13.07 -31.68,-16.77 -48.75,-9.71 -17.08,7.08 -27.62,22.86 -27.62,41.33l0 747.6c0,24.64 -20.09,44.73 -44.73,44.73l-337.78 0c-24.63,0 -44.73,-20.09 -44.73,-44.73l0 -747.59c0,-18.47 -10.54,-34.25 -27.62,-41.33 -17.07,-7.06 -35.69,-3.36 -48.75,9.71l-842.95 843.42c-17.43,17.44 -45.85,17.44 -63.28,0l-1399.55 -1400.32 -473.07 -473.33c-17.4,-17.42 -17.4,-45.83 0,-63.24l366.61 -366.82c8.71,-8.72 19.32,-13.11 31.64,-13.11l667.07 0c18.48,0 34.26,10.54 41.33,27.61 7.07,17.07 3.36,35.69 -9.7,48.75l-303.56 303.56c-17.41,17.41 -17.41,45.84 0,63.26l473.33 473.32 152.59 152.59 453.32 453.33c17.42,17.42 45.84,17.42 63.26,0l704.56 -704.56c17.42,-17.42 17.42,-45.82 0.01,-63.25l-52.7 -52.74c-17.42,-17.42 -45.85,-17.43 -63.27,-0.01l-238.53 238.53c-17.41,17.41 -45.84,17.41 -63.26,0l-5.49 -5.5c-17.42,-17.41 -45.84,-17.41 -63.26,0l-216.89 216.9c-17.42,17.41 -45.84,17.41 -63.26,0l-218.06 -218.07c-17.42,-17.41 -45.85,-17.41 -63.26,0l-6.67 6.67c-17.41,17.41 -45.84,17.41 -63.26,0l-497.2 -497.21c-17.41,-17.42 -17.41,-45.85 0,-63.26l497.2 -497.23c17.42,-17.42 45.84,-17.42 63.26,0l5.72 5.71c17.41,17.42 45.84,17.42 63.25,0l217.1 -217.09c17.41,-17.42 45.84,-17.42 63.25,0l217.85 217.84c17.41,17.42 45.84,17.42 63.26,0l6.46 -6.46c17.42,-17.42 45.85,-17.42 63.26,0l238.53 238.53c17.42,17.43 45.85,17.42 63.27,-0.01l52.7 -52.74c17.41,-17.42 17.41,-45.83 -0.01,-63.24l-704.56 -704.56c-17.42,-17.41 -45.84,-17.41 -63.26,0l-552.86 552.87c-8.71,8.7 -19.32,13.1 -31.63,13.1l-667.19 0c-18.47,0 -34.24,-10.53 -41.32,-27.6 -7.08,-17.07 -3.38,-35.68 9.69,-48.75l1283.3 -1284.03c17.43,-17.43 45.85,-17.43 63.28,0l842.95 843.42c13.06,13.07 31.68,16.77 48.75,9.71 17.08,-7.07 27.62,-22.85 27.62,-41.33l0 -764.72c0,-24.63 20.1,-44.73 44.73,-44.73l337.78 0c24.64,0 44.73,20.1 44.73,44.73l0 764.73c0,18.48 10.54,34.26 27.62,41.33 17.07,7.06 35.69,3.36 48.75,-9.71l842.97 -843.43c17.43,-17.43 45.85,-17.43 63.28,0l1283.3 1284.03c13.07,13.07 16.77,31.68 9.69,48.75 -7.08,17.07 -22.85,27.6 -41.32,27.6l-667.2 0c-12.31,0 -22.92,-4.4 -31.63,-13.1l-552.85 -552.87c-17.42,-17.41 -45.84,-17.41 -63.26,0l-704.55 704.57c-17.42,17.41 -17.42,45.83 0,63.24l52.69 52.73c17.43,17.43 45.85,17.43 63.27,0l238.52 -238.52c17.41,-17.42 45.84,-17.42 63.26,0l5.71 5.71c17.42,17.42 45.84,17.42 63.26,0l217.09 -217.09c17.42,-17.42 45.84,-17.42 63.26,0l217.83 217.84c17.42,17.42 45.83,17.42 63.26,0l6.47 -6.46c17.41,-17.42 45.84,-17.42 63.26,0l497.21 497.23c17.41,17.41 17.41,45.84 0,63.26l-497.21 497.21c-17.42,17.41 -45.85,17.41 -63.26,0l-5.5 -5.5c-17.41,-17.41 -45.84,-17.41 -63.26,0l-216.88 216.9c-17.41,17.41 -45.83,17.41 -63.26,0l-218.06 -218.07c-17.42,-17.41 -45.84,-17.41 -63.26,0l-6.66 6.67c-17.42,17.41 -45.85,17.41 -63.26,0l-238.53 -238.53c-17.42,-17.42 -45.85,-17.41 -63.26,0.01l-52.71 52.74c-17.42,17.43 -17.41,45.83 0.01,63.25l704.56 704.56c17.42,17.42 45.84,17.42 63.26,0l453.32 -453.33 -0.01 0 625.93 -625.91c17.41,-17.42 17.41,-45.85 0,-63.26z"/>
    <g>
     <g>
      <polygon class="fil5" points="2409.51,3484.59 3068.73,2825.37 4046.9,3803.55 3806.52,4044.07 4660.12,4044.07 4419.74,3803.55 5397.91,2825.37 6057.12,3484.59 6430.13,3484.59 5397.91,2451.79 4233.31,3617.02 3068.73,2451.79 2036.5,3484.59 "/>
      <polygon class="fil5" points="4046.9,4553 3068.73,5531.17 2369.57,4832.01 1996.58,4832.01 3068.73,5904.76 4233.31,4739.52 5397.91,5904.76 6470.06,4832.01 6097.07,4832.01 5397.91,5531.17 4419.74,4553 4660.12,4312.48 3806.52,4312.48 "/>
      <polygon class="fil5" points="2224.61,4687.05 1715.84,4178.27 1978.61,3915.5 1605.83,3915.5 1343.21,4178.27 1851.7,4687.05 "/>
      <polygon class="fil5" points="6860.8,3915.5 6488.03,3915.5 6750.8,4178.27 6242.03,4687.05 6614.94,4687.05 7123.43,4178.27 "/>
     </g>
     <g>
      <g>
       <rect class="fil6" transform="matrix(0.141761 -0.141762 0.141761 0.141762 3068.73 4178.27)" width="2469.45" height="2469.45"/>
       <rect class="fil6" transform="matrix(0.141761 -0.141762 0.141761 0.141762 2368.58 4178.27)" width="2469.45" height="2469.45"/>
       <rect class="fil6" transform="matrix(0.0848039 -0.0848044 0.0848039 0.0848044 2858.56 3826.23)" width="2469.45" height="2469.45"/>
       <rect class="fil6" transform="matrix(0.0848039 0.0848044 0.0848039 -0.0848044 2860.48 4530.32)" width="2469.45" height="2469.45"/>
      </g>
      <g>
       <rect class="fil6" transform="matrix(0.141761 -0.141762 0.141761 0.141762 5397.91 4178.27)" width="2469.45" height="2469.45"/>
       <rect class="fil6" transform="matrix(0.141761 -0.141762 0.141761 0.141762 4697.76 4178.27)" width="2469.45" height="2469.45"/>
       <rect class="fil6" transform="matrix(0.0848039 -0.0848044 0.0848039 0.0848044 5187.74 3826.23)" width="2469.45" height="2469.45"/>
       <rect class="fil6" transform="matrix(0.0848039 0.0848044 0.0848039 -0.0848044 5189.66 4530.32)" width="2469.45" height="2469.45"/>
      </g>
      <polygon class="fil6" points="2041.15,4687.05 1532.66,4178.27 1795.29,3915.5 1605.83,3915.5 1343.21,4178.27 1851.7,4687.05 "/>
      <polygon class="fil6" points="2186.03,4832.01 1996.58,4832.01 3068.73,5904.76 4168.47,4804.4 4168.47,5915.3 4298.16,5915.3 4298.16,4804.4 5397.91,5904.76 6470.06,4832.01 6280.61,4832.01 5397.91,5715.2 4328.05,4644.74 4233.32,4549.96 3068.73,5715.2 "/>
      <polygon class="fil6" points="5397.91,2451.79 4298.16,3552.14 4298.16,2424.11 4168.47,2424.11 4168.47,3552.14 3068.73,2451.79 2036.5,3484.59 2225.96,3484.59 3068.73,2641.35 4233.31,3806.59 5397.91,2641.35 6240.68,3484.59 6430.13,3484.59 "/>
      <polygon class="fil6" points="6671.35,3915.5 6933.97,4178.27 6425.48,4687.05 6614.94,4687.05 7123.43,4178.27 6860.8,3915.5 "/>
     </g>
    </g>
   </g>
  </g>
 </g>
</svg>
