<?xml version="1.0" encoding="UTF-8"?>
<!DOCTYPE svg PUBLIC "-//W3C//DTD SVG 1.1//EN" "http://www.w3.org/Graphics/SVG/1.1/DTD/svg11.dtd">
<!-- Creator: CorelDRAW Home & Student 2018 -->
<svg xmlns="http://www.w3.org/2000/svg" xml:space="preserve" width="84.6666mm" height="90.1698mm" version="1.1" style="shape-rendering:geometricPrecision; text-rendering:geometricPrecision; image-rendering:optimizeQuality; fill-rule:evenodd; clip-rule:evenodd"
viewBox="0 0 8466.66 9016.98"
 xmlns:xlink="http://www.w3.org/1999/xlink">
 <defs>
  <style type="text/css">
   <![CDATA[
    .fil5 {fill:#4D4D4D}
    .fil4 {fill:#B78EFF}
    .fil3 {fill:white}
    .fil6 {fill:#B78EFF;fill-rule:nonzero}
    .fil1 {fill:black;fill-opacity:0.301961}
    .fil0 {fill:black;fill-opacity:0.501961}
    .fil2 {fill:white;fill-opacity:0.549020}
   ]]>
  </style>
 </defs>
 <g id="Capa_x0020_1">
  <metadata id="CorelCorpID_0Corel-Layer"/>
  <g id="_931710176">
   <path class="fil0" d="M7517.53 -5.84c252.05,0 492.72,100.15 670.85,278.29 178.15,178.13 278.29,418.81 278.29,670.85l0 6470c0,252.04 -100.14,492.72 -278.29,670.85 -178.13,178.14 -418.8,278.29 -670.85,278.29l-1896.22 0 -144.11 309.05c-137.91,295.75 -490.51,424.15 -786.63,287.47l-1.42 -0.65c-95.61,-44.13 -173.84,-110.74 -231.38,-190.68 -163.36,227.2 -471.46,314.02 -733.64,190.31l-1.41 -0.66c-94.64,-44.66 -172.11,-111.29 -229.13,-190.97 -162.71,227.04 -470.04,314.06 -732.2,192.21l-1.41 -0.66c-233.82,-108.67 -363.42,-352.08 -339.95,-595.42l-1470.89 0c-252.05,0 -492.73,-100.15 -670.86,-278.29 -178.14,-178.14 -278.28,-418.82 -278.28,-670.85l0 -6470c0,-252.03 100.14,-492.71 278.28,-670.85 178.13,-178.14 418.81,-278.29 670.86,-278.29l6568.39 0z"/>
   <g>
    <path class="fil1" d="M7170.13 2545.91l26.64 0c20.35,0 37.59,13.07 43.07,32.67 5.5,19.6 -2.44,39.72 -19.84,50.29l-1105.76 672.07c-7.32,4.44 -14.67,6.51 -23.23,6.51l-161.32 0c-8.56,0 -15.91,2.06 -23.23,6.5l-454.14 276.04c-13.73,8.35 -21.5,22.15 -21.5,38.22l0 62.95c0,16.08 -7.77,29.88 -21.5,38.23l-206.17 125.31c-7.32,4.45 -14.67,6.51 -23.23,6.51l-204.74 0c-8.62,0 -16.01,2.08 -23.36,6.59l-140.53 86.07c-7.35,4.5 -14.74,6.58 -23.36,6.58l-104.27 0c-18.48,0 -34.26,10.55 -41.33,27.61 -7.07,17.07 -3.36,35.69 9.7,48.75l215.83 215.83c17.42,17.42 17.42,45.85 0,63.26l-215.83 215.82c-13.06,13.07 -16.76,31.68 -9.69,48.75 7.06,17.07 22.84,27.61 41.32,27.61l103.99 0c8.62,0 16.01,2.09 23.36,6.59l140.53 86.07c7.35,4.5 14.74,6.59 23.36,6.59l153.88 0c8.57,0 15.91,2.06 23.23,6.5l1990.28 1209.7c17.39,10.57 25.33,30.69 19.84,50.29 -5.49,19.6 -22.72,32.67 -43.07,32.67l-1966.3 0c-19.46,0 -36,-11.82 -42.31,-30.23 -6.31,-18.41 -0.48,-37.9 14.88,-49.83l137.93 -107.1c12.54,-9.73 18.68,-24.07 17.07,-39.86 -1.61,-15.79 -10.5,-28.6 -24.75,-35.61l-428.43 -210.96c-12.31,-6.06 -25.35,-6.32 -37.89,-0.76 -12.55,5.56 -21.1,15.4 -24.88,28.59l-205.57 718.93c-5.58,19.49 -22.75,32.43 -43.01,32.43l-564.61 0c-20.28,0 -37.44,-12.94 -43.01,-32.43l-205.59 -718.93c-3.76,-13.19 -12.32,-23.03 -24.87,-28.59 -12.55,-5.56 -25.58,-5.3 -37.89,0.76l-428.43 210.95c-14.24,7.01 -23.14,19.82 -24.74,35.61 -1.61,15.79 4.53,30.13 17.07,39.86l98.8 76.72 39.14 30.39c15.36,11.93 21.18,31.42 14.88,49.83 -6.31,18.41 -22.86,30.23 -42.32,30.23l-1966.3 0c-20.35,0 -37.58,-13.07 -43.07,-32.67 -5.49,-19.6 2.45,-39.72 19.84,-50.29l1990.28 -1209.7c7.32,-4.44 14.67,-6.5 23.23,-6.5l153.87 0c8.62,0 16.01,-2.09 23.36,-6.59l140.53 -86.07c7.35,-4.5 14.74,-6.59 23.36,-6.59l104 0c18.48,0 34.26,-10.54 41.32,-27.61 7.07,-17.07 3.37,-35.68 -9.69,-48.75l-215.83 -215.82c-17.42,-17.41 -17.42,-45.84 0,-63.26l215.83 -215.83c13.06,-13.06 16.77,-31.68 9.7,-48.75 -7.07,-17.06 -22.85,-27.61 -41.33,-27.61l-103.73 0c-8.62,0 -16,-2.08 -23.35,-6.58l-140.54 -86.07c-7.35,-4.51 -14.73,-6.59 -23.35,-6.59l-204.75 0c-8.56,0 -15.9,-2.06 -23.22,-6.51l-206.18 -125.31c-13.73,-8.35 -21.5,-22.16 -21.5,-38.23l0 -62.95c0,-16.08 -7.76,-29.87 -21.5,-38.22l-454.14 -276.04c-7.32,-4.44 -14.67,-6.5 -23.23,-6.5l-161.32 0c-8.57,0 -15.91,-2.07 -23.23,-6.51l-1105.76 -672.07c-17.4,-10.57 -25.33,-30.69 -19.84,-50.29 5.49,-19.61 22.72,-32.67 43.08,-32.67l26.64 0 -34.03 -20.68c-17.4,-10.57 -25.32,-30.68 -19.84,-50.28 5.49,-19.6 22.72,-32.67 43.08,-32.67l1138 0c7.17,0 13.32,1.42 19.75,4.6l1162.16 572.22c12.3,6.06 25.34,6.32 37.88,0.77 12.55,-5.57 21.1,-15.41 24.88,-28.6l234.56 -820.27 32.35 0c20.26,0 37.43,-12.94 43,-32.43l17.1 -59.81c5.58,-19.49 22.75,-32.43 43.01,-32.43l388.91 0c20.27,0 37.44,12.94 43.01,32.43l26.37 92.24 32.36 0c20.27,0 37.43,12.95 43,32.43l225.28 787.84c3.77,13.19 12.33,23.03 24.88,28.6 12.55,5.55 25.58,5.29 37.89,-0.77l1162.15 -572.22c6.44,-3.18 12.58,-4.6 19.76,-4.6l1138 0c20.35,0 37.59,13.07 43.07,32.67 5.49,19.6 -2.45,39.71 -19.83,50.28l-34.03 20.68z"/>
    <g>
     <g>
      <polygon class="fil2" points="4685.03,5297.1 4437.34,6163.32 4029.65,6163.32 3781.96,5297.1 2868.1,5747.07 3010.59,5857.71 1719.42,5857.71 3367.34,4856.1 3546.63,4856.1 3708.67,4756.86 4758.32,4756.86 4920.35,4856.1 5099.64,4856.1 6747.56,5857.71 5456.4,5857.71 5598.89,5747.07 "/>
      <polygon class="fil2" points="3708.94,3811.68 4758.59,3811.68 4920.62,3712.44 5150.78,3712.44 5282.05,3632.65 5282.05,3519.37 5875.5,3158.68 6061.87,3158.68 6825.27,2694.68 6638.89,2694.68 6809.41,2591.05 6067.15,2591.05 4718.89,3254.91 4451.49,2319.78 4385.41,2319.78 4349.76,2195.1 4117.77,2195.1 4082.12,2319.78 4016.04,2319.78 3748.65,3254.91 2400.38,2591.05 1658.13,2591.05 1828.64,2694.68 1642.26,2694.68 2405.66,3158.68 2592.03,3158.68 3185.49,3519.37 3185.49,3632.65 3316.75,3712.44 3546.91,3712.44 "/>
     </g>
     <g>
      <g>
       <rect class="fil3" transform="matrix(0.0922464 -0.0922464 0.0922464 0.0922464 4233.49 4284.27)" width="2469.45" height="2469.45"/>
       <rect class="fil3" transform="matrix(0.0922464 -0.0922464 0.0922464 0.0922464 3777.9 4284.27)" width="2469.45" height="2469.45"/>
       <rect class="fil3" transform="matrix(0.0551832 -0.0551832 0.0551832 0.0551832 4096.73 4055.19)" width="2469.45" height="2469.45"/>
       <rect class="fil3" transform="matrix(0.0551832 0.0551832 0.0551832 -0.0551832 4097.98 4513.35)" width="2469.45" height="2469.45"/>
      </g>
      <polygon class="fil3" points="4029.65,6163.32 3655.85,4856.1 4811.13,4856.1 4437.34,6163.32 "/>
      <polygon class="fil3" points="3170.31,5498.11 3661.11,5256.44 3546.63,4856.1 3367.34,4856.1 1719.42,5857.71 3010.59,5857.71 2638.63,5568.9 2755.11,5498.11 "/>
      <polygon class="fil3" points="5296.67,5498.11 4805.88,5256.44 4920.35,4856.1 5099.64,4856.1 6747.56,5857.71 5456.4,5857.71 5828.35,5568.9 5711.87,5498.11 "/>
      <polygon class="fil3" points="3626.83,3290.53 3506.19,3712.44 3316.75,3712.44 3185.49,3632.65 3185.49,3306.75 2941.86,3158.68 2405.66,3158.68 1642.26,2694.68 2416.7,2694.68 "/>
      <polygon class="fil3" points="4848.3,3707.48 3619.24,3707.48 4016.04,2319.78 4451.49,2319.78 "/>
      <polygon class="fil3" points="4840.7,3290.53 4961.34,3712.44 5150.78,3712.44 5282.05,3632.65 5282.05,3306.75 5525.67,3158.68 6061.87,3158.68 6825.27,2694.68 6050.84,2694.68 "/>
     </g>
    </g>
   </g>
   <path class="fil4" d="M3347.66 7231.91l-515.41 1105.31c-45.7,98 -3.08,215.11 94.93,260.82 98.83,46.08 215.98,4.91 262.23,-94.28l515.42 -1105.3c45.7,-98.01 3.07,-215.12 -94.93,-260.82 -98.84,-46.09 -215.99,-4.92 -262.24,94.27z"/>
   <path class="fil4" d="M4312.48 7232.3l-515.42 1105.3c-45.7,98.01 -3.07,215.12 94.94,260.83 98.83,46.08 215.98,4.91 262.23,-94.28l515.41 -1105.3c45.7,-98.01 3.08,-215.12 -94.93,-260.82 -98.83,-46.09 -215.98,-4.92 -262.23,94.27z"/>
   <path class="fil5" d="M5275.86 7231.91l-515.41 1105.31c-45.7,98 -3.08,215.11 94.93,260.82 98.83,46.08 215.98,4.91 262.24,-94.28l515.41 -1105.3c45.7,-98.01 3.07,-215.12 -94.93,-260.82 -98.84,-46.09 -215.99,-4.92 -262.24,94.27z"/>
   <path class="fil6" d="M7517.5 390.89c152.07,0 290.36,62.13 390.32,162.08 99.95,99.95 162.08,238.25 162.08,390.32l0 6469.96c0,152.07 -62.13,290.37 -162.08,390.32 -99.96,99.95 -238.25,162.08 -390.32,162.08l-1262.47 0 0 -194.96 1262.47 0c98.39,0 187.94,-40.3 252.54,-104.89 64.6,-64.6 104.89,-154.16 104.89,-252.55l0 -6469.96c0,-98.39 -40.29,-187.95 -104.89,-252.54 -64.6,-64.6 -154.15,-104.9 -252.54,-104.9l-6568.36 0c-98.4,0 -187.95,40.3 -252.55,104.9 -64.6,64.59 -104.89,154.15 -104.89,252.54l0 6469.96c0,98.39 40.29,187.95 104.89,252.55 64.6,64.59 154.15,104.89 252.55,104.89l1262.46 0 0 194.96 -1262.46 0c-152.08,0 -290.37,-62.13 -390.32,-162.08 -99.96,-99.95 -162.08,-238.25 -162.08,-390.32l0 -6469.96c0,-152.07 62.12,-290.37 162.08,-390.32 99.95,-99.95 238.24,-162.08 390.32,-162.08l6568.36 0z"/>
  </g>
 </g>
</svg>
