<?xml version="1.0" encoding="UTF-8"?>
<!DOCTYPE svg PUBLIC "-//W3C//DTD SVG 1.1//EN" "http://www.w3.org/Graphics/SVG/1.1/DTD/svg11.dtd">
<!-- Creator: CorelDRAW Home & Student 2018 -->
<svg xmlns="http://www.w3.org/2000/svg" xml:space="preserve" width="84.6666mm" height="90.1698mm" version="1.1" style="shape-rendering:geometricPrecision; text-rendering:geometricPrecision; image-rendering:optimizeQuality; fill-rule:evenodd; clip-rule:evenodd"
viewBox="0 0 8466.66 9016.98"
 xmlns:xlink="http://www.w3.org/1999/xlink">
 <defs>
  <style type="text/css">
   <![CDATA[
    .fil2 {fill:white}
    .fil1 {fill:white;fill-rule:nonzero}
    .fil0 {fill:black;fill-opacity:0.501961}
   ]]>
  </style>
 </defs>
 <g id="Capa_x0020_1">
  <metadata id="CorelCorpID_0Corel-Layer"/>
  <g id="_942318912">
   <path class="fil0" d="M7517.53 -5.84c252.05,0 492.72,100.14 670.85,278.28 178.15,178.13 278.29,418.81 278.29,670.85l0 6470.01c0,252.04 -100.14,492.72 -278.29,670.85 -178.13,178.14 -418.8,278.28 -670.85,278.28 -2396.89,0 -4388.32,0 -6568.39,0 -252.05,0 -492.73,-100.14 -670.86,-278.28 -178.14,-178.14 -278.28,-418.82 -278.28,-670.85l0 -6470.01c0,-252.03 100.14,-492.71 278.28,-670.85 178.13,-178.14 418.81,-278.28 670.86,-278.28l6568.39 0z"/>
   <g>
    <path class="fil1" d="M949.14 390.89l6568.36 0c152.07,0 290.36,62.12 390.32,162.08 99.95,99.95 162.08,238.24 162.08,390.32l0 6469.96c0,152.08 -62.13,290.37 -162.08,390.32 -99.96,99.96 -238.25,162.09 -390.32,162.09l-6568.36 0c-152.08,0 -290.37,-62.13 -390.32,-162.09 -99.96,-99.95 -162.08,-238.24 -162.08,-390.32l0 -6469.96c0,-152.08 62.12,-290.37 162.08,-390.32 99.95,-99.96 238.24,-162.08 390.32,-162.08zm6568.36 194.96l-6568.36 0c-98.4,0 -187.95,40.29 -252.55,104.89 -64.6,64.6 -104.89,154.15 -104.89,252.55l0 6469.96c0,98.4 40.29,187.95 104.89,252.55 64.6,64.6 154.15,104.89 252.55,104.89l6568.36 0c98.39,0 187.94,-40.29 252.54,-104.89 64.6,-64.6 104.89,-154.15 104.89,-252.55l0 -6469.96c0,-98.4 -40.29,-187.95 -104.89,-252.55 -64.6,-64.6 -154.15,-104.89 -252.54,-104.89z"/>
    <circle class="fil2" cx="4233.38" cy="4178.27" r="647.67"/>
   </g>
  </g>
 </g>
</svg>
