<?xml version="1.0" encoding="UTF-8"?>
<!DOCTYPE svg PUBLIC "-//W3C//DTD SVG 1.1//EN" "http://www.w3.org/Graphics/SVG/1.1/DTD/svg11.dtd">
<!-- Creator: CorelDRAW Home & Student 2018 -->
<svg xmlns="http://www.w3.org/2000/svg" xml:space="preserve" width="84.6666mm" height="90.1698mm" version="1.1" style="shape-rendering:geometricPrecision; text-rendering:geometricPrecision; image-rendering:optimizeQuality; fill-rule:evenodd; clip-rule:evenodd"
viewBox="0 0 8466.66 9016.98"
 xmlns:xlink="http://www.w3.org/1999/xlink">
 <defs>
  <style type="text/css">
   <![CDATA[
    .fil1 {fill:#FF81FF}
    .fil5 {fill:white}
    .fil2 {fill:#FF81FF;fill-rule:nonzero}
    .fil3 {fill:black;fill-opacity:0.301961}
    .fil0 {fill:black;fill-opacity:0.501961}
    .fil4 {fill:white;fill-opacity:0.549020}
   ]]>
  </style>
 </defs>
 <g id="Capa_x0020_1">
  <metadata id="CorelCorpID_0Corel-Layer"/>
  <g id="_852562784">
   <path class="fil0" d="M7517.53 -5.84c252.05,0 492.72,100.15 670.85,278.29 178.15,178.13 278.29,418.81 278.29,670.85l0 6470c0,252.04 -100.14,492.72 -278.29,670.85 -178.13,178.14 -418.8,278.29 -670.85,278.29l-1896.22 0 -144.11 309.05c-137.91,295.75 -490.51,424.15 -786.63,287.47l-1.42 -0.65c-95.61,-44.13 -173.84,-110.74 -231.38,-190.68 -163.36,227.2 -471.46,314.02 -733.64,190.31l-1.41 -0.66c-94.64,-44.66 -172.11,-111.29 -229.13,-190.97 -162.71,227.04 -470.04,314.06 -732.2,192.21l-1.41 -0.66c-233.82,-108.67 -363.42,-352.08 -339.95,-595.42l-1470.89 0c-252.05,0 -492.73,-100.15 -670.86,-278.29 -178.14,-178.14 -278.28,-418.82 -278.28,-670.85l0 -6470c0,-252.03 100.14,-492.71 278.28,-670.85 178.13,-178.14 418.81,-278.29 670.86,-278.29l6568.39 0z"/>
   <path class="fil1" d="M3347.66 7231.91l-515.41 1105.31c-45.7,98 -3.08,215.11 94.93,260.82 98.83,46.08 215.98,4.91 262.23,-94.28l515.42 -1105.3c45.7,-98.01 3.07,-215.12 -94.93,-260.82 -98.84,-46.09 -215.99,-4.92 -262.24,94.27z"/>
   <path class="fil1" d="M4312.48 7232.3l-515.42 1105.3c-45.7,98.01 -3.07,215.12 94.94,260.83 98.83,46.08 215.98,4.91 262.23,-94.28l515.41 -1105.3c45.7,-98.01 3.08,-215.12 -94.93,-260.82 -98.83,-46.09 -215.98,-4.92 -262.23,94.27z"/>
   <path class="fil1" d="M5275.86 7231.91l-515.41 1105.31c-45.7,98 -3.08,215.11 94.93,260.82 98.83,46.08 215.98,4.91 262.24,-94.28l515.41 -1105.3c45.7,-98.01 3.07,-215.12 -94.93,-260.82 -98.84,-46.09 -215.99,-4.92 -262.24,94.27z"/>
   <path class="fil2" d="M7517.5 390.89c152.07,0 290.36,62.13 390.32,162.08 99.95,99.95 162.08,238.25 162.08,390.32l0 6469.96c0,152.07 -62.13,290.37 -162.08,390.32 -99.96,99.95 -238.25,162.08 -390.32,162.08l-1262.47 0 0 -194.96 1262.47 0c98.39,0 187.94,-40.3 252.54,-104.89 64.6,-64.6 104.89,-154.16 104.89,-252.55l0 -6469.96c0,-98.39 -40.29,-187.95 -104.89,-252.54 -64.6,-64.6 -154.15,-104.9 -252.54,-104.9l-6568.36 0c-98.4,0 -187.95,40.3 -252.55,104.9 -64.6,64.59 -104.89,154.15 -104.89,252.54l0 6469.96c0,98.39 40.29,187.95 104.89,252.55 64.6,64.59 154.15,104.89 252.55,104.89l1262.46 0 0 194.96 -1262.46 0c-152.08,0 -290.37,-62.13 -390.32,-162.08 -99.96,-99.95 -162.08,-238.25 -162.08,-390.32l0 -6469.96c0,-152.07 62.12,-290.37 162.08,-390.32 99.95,-99.95 238.24,-162.08 390.32,-162.08l6568.36 0z"/>
   <g>
    <path class="fil3" d="M2542.16 4587.13l-165.18 165.18c-12.59,12.58 -30.21,16.49 -46.93,10.4l-1490.24 -542.41c-18.01,-6.56 -29.44,-22.87 -29.44,-42.03 0,-19.16 11.43,-35.48 29.44,-42.04l1490.24 -542.41c16.72,-6.09 34.34,-2.18 46.93,10.41l165.18 165.18 1.6 -1.61 7.79 7.79c17.42,17.41 45.84,17.41 63.26,0l96.97 -96.97c17.42,-17.42 45.84,-17.42 63.26,0l97.4 97.39c17.41,17.42 45.84,17.42 63.25,0l8.22 -8.21 3.11 3.11 110.91 -110.91c8.71,-8.71 13.1,-19.31 13.1,-31.63l0 -2045.73c0,-16.42 8.14,-30.53 22.37,-38.74 14.22,-8.21 30.5,-8.21 44.73,0l4495.77 2595.63c14.23,8.21 22.37,22.31 22.37,38.74 0,16.42 -8.14,30.53 -22.37,38.74l-4495.77 2595.62c-14.23,8.22 -30.51,8.22 -44.73,0 -14.23,-8.21 -22.37,-22.31 -22.37,-38.74l0 -2045.73c0,-12.31 -4.39,-22.92 -13.1,-31.62l-110.91 -110.92 -3.11 3.11 -7.66 -7.65c-17.42,-17.43 -45.83,-17.42 -63.26,0l-96.85 96.84c-17.42,17.42 -45.84,17.42 -63.26,0l-97.53 -97.52c-17.41,-17.41 -45.84,-17.41 -63.25,0l-8.34 8.33 -1.6 -1.6zm1452.65 -1233.14l0 197.26c0,24.63 20.09,44.73 44.73,44.73l626.92 0c20.53,0 37.9,-13.32 43.21,-33.16 5.31,-19.83 -3.06,-40.05 -20.84,-50.32l-484.3 -279.6c-14.23,-8.21 -30.51,-8.21 -44.73,0l-142.63 82.35c-14.22,8.21 -22.36,22.32 -22.36,38.74zm0 692.23l0 264.1c0,24.64 20.09,44.73 44.73,44.73l765.77 0c12.31,0 22.92,-4.39 31.63,-13.1l10.8 -10.8c17.41,-17.42 17.41,-45.85 0,-63.26l-58 -57.99c-17.41,-17.42 -17.41,-45.85 0,-63.26l58 -57.99c17.41,-17.42 17.41,-45.85 0,-63.26l-10.8 -10.8c-8.71,-8.71 -19.32,-13.11 -31.63,-13.11l-765.77 0c-24.64,0 -44.73,20.1 -44.73,44.74zm0 759.07l0 197.25c0,16.43 8.14,30.53 22.36,38.74l142.63 82.35c14.22,8.22 30.5,8.22 44.73,0l484.3 -279.6c17.78,-10.27 26.15,-30.49 20.84,-50.32 -5.31,-19.83 -22.68,-33.15 -43.21,-33.15l-626.92 0c-24.64,0 -44.73,20.09 -44.73,44.73zm-1739.34 -504.85l-90.54 -90.54c-17.42,-17.42 -17.42,-45.85 0,-63.26l90.54 -90.54 -2.79 -2.78 -227.82 82.91c-18,6.56 -29.43,22.88 -29.43,42.04 0,19.16 11.43,35.47 29.43,42.03l227.82 82.92 2.79 -2.78z"/>
    <g>
     <g>
      <polygon class="fil4" points="3846.03,5114.27 3846.03,4375.65 3846.03,4286.43 3846.03,4178.27 3846.03,4070.1 3846.03,3981.16 3846.03,3242.25 3706.37,3000.36 3706.37,3981.16 3706.37,4070.1 3706.37,4178.27 3706.37,4286.43 3706.37,4375.65 3706.37,5356.16 "/>
      <polygon class="fil4" points="4971.79,5013.7 5159.15,4905.54 5236.17,4861.07 6076.94,4375.65 5809.12,4375.65 5797.63,4375.65 5166.34,4740.12 5089.32,4784.59 4901.97,4892.76 4824.71,4937.36 4193.17,5301.99 4187.67,5311.51 4053.51,5543.87 4894.53,5058.31 "/>
      <polygon class="fil4" points="4971.79,3342.83 5159.15,3451 5236.17,3495.46 6076.94,3980.89 5809.12,3980.89 5797.63,3980.89 5166.34,3616.41 5089.32,3571.94 4901.97,3463.77 4824.71,3419.17 4193.17,3054.55 4187.67,3045.02 4053.51,2812.66 4894.53,3298.22 "/>
     </g>
     <g>
      <g>
       <rect class="fil5" transform="matrix(0.0810188 -0.0810187 0.0810188 0.0810187 5368.65 4178.27)" width="2469.45" height="2469.45"/>
       <rect class="fil5" transform="matrix(0.0810188 -0.0810187 0.0810188 0.0810187 4968.51 4178.27)" width="2469.45" height="2469.45"/>
       <rect class="fil5" transform="matrix(0.0484667 -0.0484666 0.0484667 0.0484666 5248.54 3977.07)" width="2469.45" height="2469.45"/>
       <rect class="fil5" transform="matrix(0.0484667 0.0484666 0.0484667 -0.0484666 5249.63 4379.47)" width="2469.45" height="2469.45"/>
      </g>
      <g>
       <rect class="fil5" transform="matrix(0.0810188 -0.0810187 0.0810188 0.0810187 2743.84 4178.27)" width="2469.45" height="2469.45"/>
       <rect class="fil5" transform="matrix(0.0810188 -0.0810187 0.0810188 0.0810187 2343.69 4178.27)" width="2469.45" height="2469.45"/>
       <rect class="fil5" transform="matrix(0.0484667 -0.0484666 0.0484667 0.0484666 2623.72 3977.07)" width="2469.45" height="2469.45"/>
       <rect class="fil5" transform="matrix(0.0484667 0.0484666 0.0484667 -0.0484666 2624.82 4379.47)" width="2469.45" height="2469.45"/>
      </g>
      <polygon class="fil5" points="3436.05,3960.56 3291.13,3960.56 3219.8,4031.89 3219.8,4324.64 3291.13,4395.97 3436.05,4395.97 "/>
      <polygon class="fil5" points="4929.83,3744.75 5080.08,3895.01 5003.92,3971.17 4885.46,3852.72 3227.94,3852.72 3109.48,3971.17 3033.32,3895.01 3183.57,3744.75 "/>
      <polygon class="fil5" points="4110.65,5267.05 3923.29,5158.88 3219.8,6377.36 3219.8,6593.69 3407.16,6485.52 "/>
      <polygon class="fil5" points="5809.12,4286.43 5809.12,4070.1 7216.1,4070.1 7403.45,4178.26 7216.1,4286.43 "/>
      <polygon class="fil5" points="3436.05,4725.77 3219.8,4725.77 3219.8,6198.93 3436.05,5824.38 "/>
      <polygon class="fil5" points="6628.91,4375.65 3777.53,6021.88 3561.2,6396.59 7061.57,4375.65 "/>
      <polygon class="fil5" points="4929.83,4611.78 5080.08,4461.53 5003.92,4385.36 4885.46,4503.82 3227.94,4503.82 3109.48,4385.36 3033.32,4461.53 3183.57,4611.78 "/>
      <polygon class="fil5" points="4110.65,3089.48 3923.29,3197.66 3219.8,1979.18 3219.8,1762.84 3407.16,1871.01 "/>
      <polygon class="fil5" points="3436.05,3630.77 3219.8,3630.77 3219.8,2157.61 3436.05,2532.16 "/>
      <polygon class="fil5" points="6628.91,3980.89 3777.53,2334.65 3561.2,1959.95 7061.57,3980.89 "/>
      <polygon class="fil5" points="1474.38,4178.27 2290.86,3881.1 2385.2,3975.44 2461.49,3899.14 2402.73,3840.37 2318.65,3756.29 2206.78,3797.02 1159.3,4178.27 2206.78,4559.52 2318.65,4600.24 2402.73,4516.16 2461.49,4457.4 2385.2,4381.1 2290.86,4475.44 "/>
     </g>
    </g>
   </g>
  </g>
 </g>
</svg>
