<?xml version="1.0" encoding="UTF-8"?>
<!DOCTYPE svg PUBLIC "-//W3C//DTD SVG 1.1//EN" "http://www.w3.org/Graphics/SVG/1.1/DTD/svg11.dtd">
<!-- Creator: CorelDRAW Home & Student 2018 -->
<svg xmlns="http://www.w3.org/2000/svg" xml:space="preserve" width="84.6666mm" height="90.1698mm" version="1.1" style="shape-rendering:geometricPrecision; text-rendering:geometricPrecision; image-rendering:optimizeQuality; fill-rule:evenodd; clip-rule:evenodd"
viewBox="0 0 8466.66 9016.98"
 xmlns:xlink="http://www.w3.org/1999/xlink">
 <defs>
  <style type="text/css">
   <![CDATA[
    .fil1 {fill:#FF81FF}
    .fil5 {fill:white}
    .fil2 {fill:#FF81FF;fill-rule:nonzero}
    .fil3 {fill:black;fill-opacity:0.301961}
    .fil0 {fill:black;fill-opacity:0.501961}
    .fil4 {fill:white;fill-opacity:0.549020}
   ]]>
  </style>
 </defs>
 <g id="Capa_x0020_1">
  <metadata id="CorelCorpID_0Corel-Layer"/>
  <g id="_931130040">
   <path class="fil0" d="M7517.53 -5.84c252.05,0 492.72,100.15 670.85,278.29 178.15,178.13 278.29,418.81 278.29,670.85l0 6470c0,252.04 -100.14,492.72 -278.29,670.85 -178.13,178.14 -418.8,278.29 -670.85,278.29l-1896.22 0 -144.11 309.05c-137.91,295.75 -490.51,424.15 -786.63,287.47l-1.42 -0.65c-95.61,-44.13 -173.84,-110.74 -231.38,-190.68 -163.36,227.2 -471.46,314.02 -733.64,190.31l-1.41 -0.66c-94.64,-44.66 -172.11,-111.29 -229.13,-190.97 -162.71,227.04 -470.04,314.06 -732.2,192.21l-1.41 -0.66c-233.82,-108.67 -363.42,-352.08 -339.95,-595.42l-1470.89 0c-252.05,0 -492.73,-100.15 -670.86,-278.29 -178.14,-178.14 -278.28,-418.82 -278.28,-670.85l0 -6470c0,-252.03 100.14,-492.71 278.28,-670.85 178.13,-178.14 418.81,-278.29 670.86,-278.29l6568.39 0z"/>
   <path class="fil1" d="M3347.66 7231.91l-515.41 1105.31c-45.7,98 -3.08,215.11 94.93,260.82 98.83,46.08 215.98,4.91 262.23,-94.28l515.42 -1105.3c45.7,-98.01 3.07,-215.12 -94.93,-260.82 -98.84,-46.09 -215.99,-4.92 -262.24,94.27z"/>
   <path class="fil1" d="M4312.48 7232.3l-515.42 1105.3c-45.7,98.01 -3.07,215.12 94.94,260.83 98.83,46.08 215.98,4.91 262.23,-94.28l515.41 -1105.3c45.7,-98.01 3.08,-215.12 -94.93,-260.82 -98.83,-46.09 -215.98,-4.92 -262.23,94.27z"/>
   <path class="fil1" d="M5275.86 7231.91l-515.41 1105.31c-45.7,98 -3.08,215.11 94.93,260.82 98.83,46.08 215.98,4.91 262.24,-94.28l515.41 -1105.3c45.7,-98.01 3.07,-215.12 -94.93,-260.82 -98.84,-46.09 -215.99,-4.92 -262.24,94.27z"/>
   <path class="fil2" d="M7517.5 390.89c152.07,0 290.36,62.13 390.32,162.08 99.95,99.95 162.08,238.25 162.08,390.32l0 6469.96c0,152.07 -62.13,290.37 -162.08,390.32 -99.96,99.95 -238.25,162.08 -390.32,162.08l-1262.47 0 0 -194.96 1262.47 0c98.39,0 187.94,-40.3 252.54,-104.89 64.6,-64.6 104.89,-154.16 104.89,-252.55l0 -6469.96c0,-98.39 -40.29,-187.95 -104.89,-252.54 -64.6,-64.6 -154.15,-104.9 -252.54,-104.9l-6568.36 0c-98.4,0 -187.95,40.3 -252.55,104.9 -64.6,64.59 -104.89,154.15 -104.89,252.54l0 6469.96c0,98.39 40.29,187.95 104.89,252.55 64.6,64.59 154.15,104.89 252.55,104.89l1262.46 0 0 194.96 -1262.46 0c-152.08,0 -290.37,-62.13 -390.32,-162.08 -99.96,-99.95 -162.08,-238.25 -162.08,-390.32l0 -6469.96c0,-152.07 62.12,-290.37 162.08,-390.32 99.95,-99.95 238.24,-162.08 390.32,-162.08l6568.36 0z"/>
   <g>
    <path class="fil3" d="M1507.93 6292.71l2685.73 -4651.86c8.21,-14.22 22.31,-22.36 38.74,-22.36 16.42,0 30.53,8.14 38.74,22.36l2704.21 4683.83c8.21,14.22 8.21,30.5 0,44.73 -8.21,14.22 -22.32,22.36 -38.74,22.36l-5408.4 0c-16.42,0 -30.52,-8.14 -38.74,-22.36 -8.21,-14.23 -8.21,-30.51 0,-44.73l18.46 -31.97z"/>
    <g>
     <g>
      <polygon class="fil4" points="5210.5,5588.63 4438.67,5588.63 4345.44,5588.63 4232.41,5588.63 4119.39,5588.63 4026.45,5588.63 3254.32,5588.63 3001.56,5734.56 4026.45,5734.56 4119.39,5734.56 4232.41,5734.56 4345.44,5734.56 4438.67,5734.56 5463.26,5734.56 "/>
      <polygon class="fil4" points="5105.41,4412.26 4992.38,4216.49 4945.91,4136 4438.67,3257.44 4438.67,3537.3 4438.67,3549.3 4819.53,4208.97 4866,4289.45 4979.02,4485.23 5025.63,4565.96 5406.65,5225.88 5416.6,5231.63 5659.4,5371.82 5152.02,4492.99 "/>
      <polygon class="fil4" points="3359.42,4412.26 3472.45,4216.49 3518.92,4136 4026.16,3257.44 4026.16,3537.3 4026.16,3549.3 3645.3,4208.97 3598.83,4289.45 3485.81,4485.23 3439.2,4565.96 3058.18,5225.88 3048.23,5231.63 2805.42,5371.82 3312.81,4492.99 "/>
     </g>
     <g>
      <polygon class="fil5" points="5370.14,5312.12 5257.11,5507.89 6530.36,6243 6756.41,6243 6643.38,6047.23 "/>
      <polygon class="fil5" points="4345.44,3537.29 4119.38,3537.3 4119.38,2067.08 4232.41,1871.3 4345.44,2067.08 "/>
      <polygon class="fil5" points="4438.67,2680.66 6158.9,5660.2 6550.45,5886.26 4438.67,2228.55 "/>
      <polygon class="fil5" points="3094.69,5312.12 3207.72,5507.89 1934.47,6243 1708.42,6243 1821.45,6047.23 "/>
      <polygon class="fil5" points="6343.9,6243 5952.52,6017.03 2512.31,6017.03 2120.92,6243 "/>
      <polygon class="fil5" points="4026.16,2680.66 2305.93,5660.2 1914.38,5886.26 4026.16,2228.55 "/>
      <polygon class="fil5" points="3988.2,5317.76 3642.86,4715.33 3297.53,5317.76 "/>
      <polygon class="fil5" points="3729.73,4563.79 4161.93,5317.76 4232.41,5317.76 5167.28,5317.76 4232.41,3686.89 "/>
     </g>
    </g>
   </g>
  </g>
 </g>
</svg>
