<?xml version="1.0" encoding="UTF-8"?>
<!DOCTYPE svg PUBLIC "-//W3C//DTD SVG 1.1//EN" "http://www.w3.org/Graphics/SVG/1.1/DTD/svg11.dtd">
<!-- Creator: CorelDRAW Home & Student 2018 -->
<svg xmlns="http://www.w3.org/2000/svg" xml:space="preserve" width="84.6666mm" height="90.1698mm" version="1.1" style="shape-rendering:geometricPrecision; text-rendering:geometricPrecision; image-rendering:optimizeQuality; fill-rule:evenodd; clip-rule:evenodd"
viewBox="0 0 8466.66 9016.98"
 xmlns:xlink="http://www.w3.org/1999/xlink">
 <defs>
  <style type="text/css">
   <![CDATA[
    .fil1 {fill:#FF81FF}
    .fil5 {fill:white}
    .fil2 {fill:#FF81FF;fill-rule:nonzero}
    .fil3 {fill:black;fill-opacity:0.301961}
    .fil0 {fill:black;fill-opacity:0.501961}
    .fil4 {fill:white;fill-opacity:0.549020}
   ]]>
  </style>
 </defs>
 <g id="Capa_x0020_1">
  <metadata id="CorelCorpID_0Corel-Layer"/>
  <g id="_562878560">
   <path class="fil0" d="M7517.53 -5.84c252.05,0 492.72,100.15 670.85,278.29 178.15,178.13 278.29,418.81 278.29,670.85l0 6470c0,252.04 -100.14,492.72 -278.29,670.85 -178.13,178.14 -418.8,278.29 -670.85,278.29l-1896.22 0 -144.11 309.05c-137.91,295.75 -490.51,424.15 -786.63,287.47l-1.42 -0.65c-95.61,-44.13 -173.84,-110.74 -231.38,-190.68 -163.36,227.2 -471.46,314.02 -733.64,190.31l-1.41 -0.66c-94.64,-44.66 -172.11,-111.29 -229.13,-190.97 -162.71,227.04 -470.04,314.06 -732.2,192.21l-1.41 -0.66c-233.82,-108.67 -363.42,-352.08 -339.95,-595.42l-1470.89 0c-252.05,0 -492.73,-100.15 -670.86,-278.29 -178.14,-178.14 -278.28,-418.82 -278.28,-670.85l0 -6470c0,-252.03 100.14,-492.71 278.28,-670.85 178.13,-178.14 418.81,-278.29 670.86,-278.29l6568.39 0z"/>
   <path class="fil1" d="M3347.66 7231.91l-515.41 1105.31c-45.7,98 -3.08,215.11 94.93,260.82 98.83,46.08 215.98,4.91 262.23,-94.28l515.42 -1105.3c45.7,-98.01 3.07,-215.12 -94.93,-260.82 -98.84,-46.09 -215.99,-4.92 -262.24,94.27z"/>
   <path class="fil1" d="M4312.48 7232.3l-515.42 1105.3c-45.7,98.01 -3.07,215.12 94.94,260.83 98.83,46.08 215.98,4.91 262.23,-94.28l515.41 -1105.3c45.7,-98.01 3.08,-215.12 -94.93,-260.82 -98.83,-46.09 -215.98,-4.92 -262.23,94.27z"/>
   <path class="fil1" d="M5275.86 7231.91l-515.41 1105.31c-45.7,98 -3.08,215.11 94.93,260.82 98.83,46.08 215.98,4.91 262.24,-94.28l515.41 -1105.3c45.7,-98.01 3.07,-215.12 -94.93,-260.82 -98.84,-46.09 -215.99,-4.92 -262.24,94.27z"/>
   <path class="fil2" d="M7517.5 390.89c152.07,0 290.36,62.13 390.32,162.08 99.95,99.95 162.08,238.25 162.08,390.32l0 6469.96c0,152.07 -62.13,290.37 -162.08,390.32 -99.96,99.95 -238.25,162.08 -390.32,162.08l-1262.47 0 0 -194.96 1262.47 0c98.39,0 187.94,-40.3 252.54,-104.89 64.6,-64.6 104.89,-154.16 104.89,-252.55l0 -6469.96c0,-98.39 -40.29,-187.95 -104.89,-252.54 -64.6,-64.6 -154.15,-104.9 -252.54,-104.9l-6568.36 0c-98.4,0 -187.95,40.3 -252.55,104.9 -64.6,64.59 -104.89,154.15 -104.89,252.54l0 6469.96c0,98.39 40.29,187.95 104.89,252.55 64.6,64.59 154.15,104.89 252.55,104.89l1262.46 0 0 194.96 -1262.46 0c-152.08,0 -290.37,-62.13 -390.32,-162.08 -99.96,-99.95 -162.08,-238.25 -162.08,-390.32l0 -6469.96c0,-152.07 62.12,-290.37 162.08,-390.32 99.95,-99.95 238.24,-162.08 390.32,-162.08l6568.36 0z"/>
   <g>
    <path class="fil3" d="M3340.12 4204.91l-125.41 162.3c-10.09,13.05 -12.24,29.28 -5.92,44.51 6.33,15.24 19.35,25.17 35.72,27.23l638.75 80.47 6.8 -6.81c17.42,-17.43 17.42,-45.84 -0.01,-63.26l-239.47 -239.45c-17.41,-17.42 -17.41,-45.85 0,-63.26l271.65 -271.65 -22.37 -22.38c-10.1,-10.11 -23.05,-14.54 -37.22,-12.75l-617.02 77.73c-16.36,2.06 -29.39,11.99 -35.72,27.21 -6.32,15.24 -4.17,31.47 5.92,44.52l124.3 160.88c12.63,16.33 12.63,38.37 0,54.71zm285.98 1491.56l-1068.62 355.58c-6.72,2.24 -12.92,2.83 -19.95,1.91l-948.63 -124.79c-22.39,-2.95 -38.89,-21.78 -38.89,-44.36l0 -26.94 -12.52 -1.64c-22.4,-2.95 -38.9,-21.77 -38.9,-44.36l0 -701.59c0,-12.28 4.36,-22.85 13.03,-31.55l446.82 -448.9c4.85,-4.88 9.94,-8.14 16.4,-10.49l1096.91 -399.24c18.01,-6.55 29.44,-22.87 29.44,-42.03 0,-19.16 -11.43,-35.48 -29.44,-42.03l-1095.8 -398.85c-6.46,-2.35 -11.55,-5.6 -16.4,-10.48l-446.82 -448.9c-8.67,-8.71 -13.03,-19.27 -13.03,-31.56l0 -701.59c0,-22.58 16.5,-41.41 38.9,-44.35l12.52 -1.65 0 -26.94c0,-22.58 16.5,-41.41 38.9,-44.35l948.62 -124.79c7.03,-0.92 13.23,-0.34 19.95,1.9l1068.63 355.58c6.86,2.28 12.27,5.61 17.4,10.71l514.14 510.99c8.78,8.72 13.21,19.36 13.21,31.73l0 491.35 29.28 -29.29c17.42,-17.42 45.85,-17.42 63.26,0l30.15 30.15 0 -492.21c0,-12.37 4.43,-23.01 13.21,-31.73l514.14 -510.99c5.13,-5.1 10.54,-8.43 17.4,-10.71l1068.63 -355.58c6.72,-2.24 12.92,-2.82 19.95,-1.9l948.62 124.79c22.4,2.94 38.9,21.77 38.9,44.35l0 26.94 12.52 1.65c22.4,2.94 38.9,21.77 38.9,44.35l0 701.59c0,12.29 -4.36,22.85 -13.03,31.56l-446.82 448.9c-4.85,4.88 -9.94,8.13 -16.4,10.48l-1096.91 399.24c-18.02,6.56 -29.44,22.87 -29.44,42.04 0,19.16 11.42,35.47 29.44,42.03l1095.79 398.84c6.47,2.35 11.56,5.61 16.41,10.49l446.82 448.9c8.67,8.7 13.03,19.27 13.03,31.55l0 701.59c0,22.59 -16.5,41.41 -38.9,44.36l-12.52 1.64 0 26.94c0,22.58 -16.5,41.41 -38.9,44.36l-948.62 124.79c-7.03,0.92 -13.23,0.33 -19.95,-1.91l-1068.63 -355.58c-6.86,-2.28 -12.27,-5.61 -17.4,-10.71l-514.15 -510.99c-8.77,-8.71 -13.2,-19.36 -13.2,-31.73l0 -489.99 -27.93 27.93c-17.41,17.42 -45.84,17.42 -63.25,0l-31.52 -31.51 0 493.57c0,12.37 -4.42,23.02 -13.2,31.73l-514.14 510.99c-5.13,5.1 -10.54,8.43 -17.41,10.71zm955.05 -1177.05l638.75 -80.47c16.36,-2.06 29.39,-11.99 35.71,-27.22 6.33,-15.23 4.18,-31.47 -5.91,-44.52l-124.3 -160.87c-12.63,-16.34 -12.63,-38.38 0,-54.71l125.41 -162.31c10.09,-13.05 12.24,-29.27 5.92,-44.51 -6.33,-15.23 -19.36,-25.16 -35.72,-27.22l-638.75 -80.47 -6.23 6.24c-17.42,17.41 -17.42,45.84 0,63.26l240.02 240.02c17.41,17.41 17.41,45.84 0,63.26l-240.58 240.56c-17.43,17.42 -17.43,45.84 -0.01,63.26l5.69 5.7zm-1209.37 729.88l141.84 -47.19c6.88,-2.29 12.32,-5.65 17.46,-10.76l106.82 -106.53c8.74,-8.71 13.14,-19.34 13.14,-31.67l0 -94.63c0,-22.68 -16.64,-41.54 -39.14,-44.38l-592.41 -74.63c-7.38,-0.94 -13.9,-0.2 -20.89,2.35l-782.97 284.98c-6.47,2.35 -11.56,5.59 -16.41,10.47l-36.57 36.75 740.71 97.44c7.03,0.92 13.23,0.33 19.96,-1.91l47.22 -15.71c4.78,-1.59 9.08,-2.29 14.12,-2.29l373 0c5.04,0 9.34,-0.7 14.12,-2.29zm142.95 -2094.87l-141.84 -47.19c-4.78,-1.59 -9.08,-2.3 -14.12,-2.3l-373 0c-5.04,0 -9.34,-0.7 -14.12,-2.29l-47.22 -15.71c-6.73,-2.24 -12.93,-2.82 -19.96,-1.9l-740.71 97.43 36.58 36.75c4.85,4.88 9.93,8.13 16.4,10.48l782.97 284.98c6.99,2.55 13.51,3.28 20.89,2.35l592.41 -74.64c22.5,-2.83 39.14,-21.7 39.14,-44.37l0 -94.63c0,-12.34 -4.4,-22.96 -13.14,-31.68l-106.81 -106.52c-5.14,-5.13 -10.58,-8.47 -17.47,-10.76zm1579.01 -47.19l-141.84 47.19c-6.89,2.29 -12.32,5.64 -17.46,10.76l-106.82 106.52c-8.74,8.72 -13.14,19.34 -13.14,31.68l0 94.63c0,22.67 16.64,41.54 39.14,44.37l592.41 74.64c7.38,0.93 13.9,0.2 20.89,-2.35l782.97 -284.98c6.47,-2.35 11.55,-5.6 16.4,-10.48l36.58 -36.75 -740.71 -97.43c-7.03,-0.92 -13.23,-0.34 -19.96,1.9l-47.22 15.71c-4.78,1.59 -9.08,2.29 -14.12,2.29l-373 0c-5.04,0 -9.34,0.71 -14.12,2.3zm-142.95 2094.87l141.84 47.19c4.78,1.59 9.08,2.29 14.12,2.29l373 0c5.04,0 9.34,0.7 14.12,2.29l47.22 15.71c6.73,2.24 12.93,2.83 19.96,1.91l740.71 -97.44 -36.58 -36.75c-4.85,-4.88 -9.93,-8.12 -16.4,-10.47l-782.97 -284.98c-6.99,-2.55 -13.51,-3.29 -20.9,-2.35l-592.4 74.63c-22.5,2.84 -39.14,21.7 -39.14,44.38l0 94.63c0,12.33 4.4,22.96 13.14,31.67l106.81 106.53c5.14,5.12 10.58,8.47 17.47,10.76z"/>
    <g>
     <g>
      <polygon class="fil4" points="6644.57,3050.07 6604.56,3090.27 6604.56,3012.6 5537.45,2872.22 5285.17,2956.17 5464.01,2956.17 5537.44,2931.73 6554.97,3065.58 6554.97,3138.64 6556.41,3138.64 6341.32,3354.75 5473.85,3670.48 4665.71,3568.67 4665.71,3223.08 4861.66,3027.65 5190.91,2918.1 5190.91,2881.46 4853.92,2881.46 4802.45,2898.58 4443.44,3256.62 4443.44,3765.55 4573.86,3635.13 4573.86,3686.11 5453.46,3796.93 5639.94,3729.06 5468.51,3950.91 6418,3605.32 6818.16,3203.29 6818.16,3138.64 6730.01,3138.64 6818.17,3050.07 6818.16,2635.91 6766.74,2629.15 6766.74,2562.97 5932.31,2453.21 4909.09,2793.67 4819.63,2881.46 5069.3,2881.46 5234.21,2826.58 5411.9,2844.57 5518.5,2809.09 6644.57,2957.22 "/>
      <polygon class="fil4" points="1822.06,3050.07 1862.07,3090.27 1862.07,3012.6 2929.18,2872.22 3181.46,2956.17 3002.62,2956.17 2929.19,2931.73 1911.66,3065.58 1911.66,3138.64 1910.22,3138.64 2125.31,3354.75 2992.78,3670.48 3800.92,3568.67 3800.92,3223.08 3604.97,3027.65 3275.72,2918.1 3275.72,2881.46 3612.71,2881.46 3664.18,2898.58 4023.19,3256.62 4023.19,3765.55 3892.77,3635.13 3892.77,3686.11 3013.17,3796.93 2826.69,3729.06 2998.12,3950.91 2048.63,3605.32 1648.47,3203.29 1648.47,3138.64 1736.62,3138.64 1648.46,3050.07 1648.47,2635.91 1699.89,2629.15 1699.89,2562.97 2534.32,2453.21 3557.54,2793.67 3647,2881.46 3397.33,2881.46 3232.42,2826.58 3054.73,2844.57 2948.13,2809.09 1822.06,2957.22 "/>
      <polygon class="fil4" points="6643.46,5306.47 6603.45,5266.27 6603.45,5343.94 5536.34,5484.31 5284.06,5400.36 5462.9,5400.36 5536.33,5424.8 6553.85,5290.96 6553.85,5217.9 6555.3,5217.9 6340.21,5001.79 5472.74,4686.05 4664.6,4787.86 4664.6,5133.45 4860.55,5328.88 5189.8,5438.43 5189.8,5475.08 4852.8,5475.08 4801.34,5457.96 4442.33,5099.91 4442.33,4590.99 4572.75,4721.4 4572.75,4670.42 5452.35,4559.6 5638.83,4627.47 5467.4,4405.62 6416.89,4751.21 6817.05,5153.24 6817.05,5217.9 6728.9,5217.9 6817.06,5306.47 6817.05,5720.62 6765.63,5727.39 6765.63,5793.56 5931.2,5903.33 4907.98,5562.86 4818.52,5475.08 5068.19,5475.08 5233.1,5529.96 5410.79,5511.96 5517.39,5547.44 6643.46,5399.31 "/>
      <polygon class="fil4" points="1820.95,5306.47 1860.96,5266.27 1860.96,5343.94 2928.07,5484.31 3180.35,5400.36 3001.51,5400.36 2928.08,5424.8 1910.55,5290.96 1910.55,5217.9 1909.11,5217.9 2124.2,5001.79 2991.67,4686.05 3799.81,4787.86 3799.81,5133.45 3603.86,5328.88 3274.61,5438.43 3274.61,5475.08 3611.6,5475.08 3663.07,5457.96 4022.08,5099.91 4022.08,4590.99 3891.66,4721.4 3891.66,4670.42 3012.06,4559.6 2825.58,4627.47 2997.01,4405.62 2047.51,4751.21 1647.36,5153.24 1647.36,5217.9 1735.51,5217.9 1647.35,5306.47 1647.36,5720.62 1698.78,5727.39 1698.78,5793.56 2533.21,5903.33 3556.43,5562.86 3645.89,5475.08 3396.22,5475.08 3231.31,5529.96 3053.62,5511.96 2947.02,5547.44 1820.95,5399.31 "/>
     </g>
     <g>
      <g>
       <polygon class="fil5" points="4233.32,4178.27 4435.29,3976.28 4637.28,4178.27 4435.29,4380.25 "/>
       <polygon class="fil5" points="3829.35,4178.27 4031.33,3976.28 4233.32,4178.27 4031.33,4380.25 "/>
       <polygon class="fil5" points="4112.05,3975.14 4232.88,3854.32 4353.71,3975.14 4232.88,4095.98 "/>
       <polygon class="fil5" points="4113.16,4381.39 4233.99,4502.22 4354.82,4381.39 4233.99,4260.56 "/>
      </g>
      <g>
       <polygon class="fil5" points="5285.17,2956.17 5464.01,2956.17 5537.44,2931.73 6554.97,3065.58 6554.97,3138.64 6604.56,3138.64 6604.56,3012.6 5537.45,2872.22 "/>
       <polygon class="fil5" points="6356.77,3468.15 5639.94,3729.06 5468.51,3950.91 6418,3605.32 6818.16,3203.29 6818.16,3138.64 6684.75,3138.64 "/>
       <polygon class="fil5" points="5190.91,2918.1 5190.91,2881.46 4853.92,2881.46 4802.45,2898.58 4443.44,3256.62 4443.44,3765.55 4573.86,3635.13 4573.86,3314.68 4861.66,3027.65 "/>
       <polygon class="fil5" points="6661.33,2959.42 6661.33,3050.07 6818.16,3050.08 6818.16,2635.91 5939.32,2520.3 5085.53,2804.39 5079.03,2810.88 5234.21,2826.58 5411.9,2844.57 5518.5,2809.09 "/>
       <polygon class="fil5" points="3181.46,2956.17 3002.62,2956.17 2929.19,2931.73 1911.66,3065.58 1911.66,3138.64 1862.07,3138.64 1862.07,3012.6 2929.18,2872.22 "/>
       <polygon class="fil5" points="2109.86,3468.15 2826.69,3729.06 2998.12,3950.91 2048.63,3605.32 1648.47,3203.29 1648.47,3138.64 1781.88,3138.64 "/>
       <polygon class="fil5" points="3275.72,2918.1 3275.72,2881.46 3612.71,2881.46 3664.18,2898.58 4023.19,3256.62 4023.19,3765.55 3892.77,3635.13 3892.77,3314.68 3604.97,3027.65 "/>
       <polygon class="fil5" points="1805.3,2959.42 1805.3,3050.07 1648.47,3050.08 1648.47,2635.91 2527.31,2520.3 3381.1,2804.39 3387.6,2810.88 3232.42,2826.58 3054.73,2844.57 2948.13,2809.09 "/>
       <polygon class="fil5" points="5284.06,5400.36 5462.9,5400.36 5536.33,5424.8 6553.85,5290.96 6553.85,5217.9 6603.45,5217.9 6603.45,5343.94 5536.34,5484.31 "/>
       <polygon class="fil5" points="6355.66,4888.38 5638.83,4627.47 5467.4,4405.62 6416.89,4751.21 6817.05,5153.24 6817.05,5217.9 6683.64,5217.9 "/>
       <polygon class="fil5" points="5189.8,5438.43 5189.8,5475.08 4852.8,5475.08 4801.34,5457.96 4442.33,5099.91 4442.33,4590.99 4572.75,4721.4 4572.75,5041.86 4860.55,5328.88 "/>
       <polygon class="fil5" points="6660.22,5397.11 6660.22,5306.47 6817.05,5306.46 6817.05,5720.62 5938.21,5836.23 5084.42,5552.14 5077.92,5545.66 5233.1,5529.96 5410.79,5511.96 5517.39,5547.44 "/>
       <polygon class="fil5" points="3180.35,5400.36 3001.51,5400.36 2928.08,5424.8 1910.55,5290.96 1910.55,5217.9 1860.96,5217.9 1860.96,5343.94 2928.07,5484.31 "/>
       <polygon class="fil5" points="2108.75,4888.38 2825.58,4627.47 2997.01,4405.62 2047.51,4751.21 1647.36,5153.24 1647.36,5217.9 1780.77,5217.9 "/>
       <polygon class="fil5" points="3274.61,5438.43 3274.61,5475.08 3611.6,5475.08 3663.07,5457.96 4022.08,5099.91 4022.08,4590.99 3891.66,4721.4 3891.66,5041.86 3603.86,5328.88 "/>
       <polygon class="fil5" points="1804.19,5397.11 1804.19,5306.47 1647.36,5306.46 1647.36,5720.62 2526.2,5836.23 3379.99,5552.14 3386.49,5545.66 3231.31,5529.96 3053.62,5511.96 2947.02,5547.44 "/>
      </g>
     </g>
    </g>
   </g>
  </g>
 </g>
</svg>
