<?xml version="1.0" encoding="UTF-8"?>
<!DOCTYPE svg PUBLIC "-//W3C//DTD SVG 1.1//EN" "http://www.w3.org/Graphics/SVG/1.1/DTD/svg11.dtd">
<!-- Creator: CorelDRAW Home & Student 2018 -->
<svg xmlns="http://www.w3.org/2000/svg" xml:space="preserve" width="147.997mm" height="84.6666mm" version="1.1" style="shape-rendering:geometricPrecision; text-rendering:geometricPrecision; image-rendering:optimizeQuality; fill-rule:evenodd; clip-rule:evenodd"
viewBox="0 0 14799.72 8466.66"
 xmlns:xlink="http://www.w3.org/1999/xlink">
 <defs>
  <style type="text/css">
   <![CDATA[
    .fil0 {fill:black}
    .fil1 {fill:#E73F6F}
    .fil3 {fill:#FF6994}
    .fil2 {fill:#FFF158}
   ]]>
  </style>
 </defs>
 <g id="Capa_x0020_1">
  <metadata id="CorelCorpID_0Corel-Layer"/>
  <g id="_926743080">
   <polygon class="fil0" points="3925.77,1493.01 3925.77,464.01 10873.97,464.01 10873.97,1493.01 14021.42,1493.01 11729.19,5500.95 10873.97,5500.95 10873.97,5895.23 7399.87,8002.64 3925.77,5895.23 3925.77,5500.95 3070.55,5500.95 778.32,1493.01 "/>
   <g>
    <g>
     <polygon class="fil1" points="9318.76,2273.22 7399.87,3437.23 5480.98,2273.22 5480.98,2016.62 7399.87,2016.62 9318.76,2016.62 "/>
     <polygon class="fil1" points="7399.87,4441.58 9318.76,3277.58 9318.76,5074.32 7399.87,6238.33 5480.98,5074.32 5480.98,3277.58 "/>
    </g>
    <g>
     <polygon class="fil1" points="13118.75,2016.62 10350.36,2016.62 10350.36,2383.49 12908.94,2383.49 "/>
     <polygon class="fil1" points="10350.36,3000.66 10350.36,4977.33 11425.46,4977.33 12555.95,3000.66 "/>
     <polygon class="fil1" points="4449.38,3000.66 4449.38,4977.33 3374.28,4977.33 2243.79,3000.66 "/>
     <polygon class="fil1" points="1680.99,2016.62 4449.38,2016.62 4449.38,2383.49 1890.8,2383.49 "/>
    </g>
   </g>
   <path class="fil2" d="M10014.43 1321.68l0 4092.24 -2614.56 1585.98 -2614.56 -1585.98 0 -4092.24 5229.12 0zm-2614.56 6068.54l2950.49 -1789.78 0 -4612.82 -5900.98 0 0 4612.82 2950.49 1789.78z"/>
   <g>
    <polygon class="fil3" points="5480.98,2273.22 7399.87,3437.23 7399.87,2016.62 5480.98,2016.62 "/>
    <polygon class="fil3" points="7399.87,4441.58 5480.98,3277.58 5480.98,5074.32 7399.87,6238.33 "/>
   </g>
  </g>
 </g>
</svg>
