<?xml version="1.0" encoding="UTF-8"?>
<!DOCTYPE svg PUBLIC "-//W3C//DTD SVG 1.1//EN" "http://www.w3.org/Graphics/SVG/1.1/DTD/svg11.dtd">
<!-- Creator: CorelDRAW Home & Student 2018 -->
<svg xmlns="http://www.w3.org/2000/svg" xml:space="preserve" width="114.215mm" height="84.6666mm" version="1.1" style="shape-rendering:geometricPrecision; text-rendering:geometricPrecision; image-rendering:optimizeQuality; fill-rule:evenodd; clip-rule:evenodd"
viewBox="0 0 11421.52 8466.66"
 xmlns:xlink="http://www.w3.org/1999/xlink">
 <defs>
  <style type="text/css">
   <![CDATA[
    .fil0 {fill:black;fill-rule:nonzero}
    .fil1 {fill:#E73F6F;fill-rule:nonzero}
   ]]>
  </style>
 </defs>
 <g id="Capa_x0020_1">
  <metadata id="CorelCorpID_0Corel-Layer"/>
  <g id="_823329696">
   <g>
    <path class="fil0" d="M3113.77 2981.07c704.44,1406.29 1408.12,2812.97 2112.17,4219.46l-4445.21 -2028.71 0 -3876.57 2333.04 1685.82z"/>
    <polygon class="fil0" points="5519.08,6819.74 3869.96,3525.35 7561.69,3525.35 5715.79,7212.75 "/>
    <path class="fil0" d="M8361.79 2949.35l2289.15 -1654.1 0 3876.57 -4445.24 2028.71c231.15,-461.69 2036.31,-4164.65 2156.09,-4251.18z"/>
   </g>
   <g>
    <polygon class="fil1" points="2768.85,3274.83 1222.52,2157.47 1222.52,4889.61 4274.4,6282.41 "/>
    <polygon class="fil1" points="4583.09,3967.14 5715.82,6229.99 6848.59,3967.14 "/>
    <polygon class="fil1" points="10209.16,2157.47 8662.82,3274.83 7157.28,6282.41 10209.16,4889.61 "/>
   </g>
  </g>
 </g>
</svg>
