<?xml version="1.0" encoding="UTF-8"?>
<!DOCTYPE svg PUBLIC "-//W3C//DTD SVG 1.1//EN" "http://www.w3.org/Graphics/SVG/1.1/DTD/svg11.dtd">
<!-- Creator: CorelDRAW Home & Student 2018 -->
<svg xmlns="http://www.w3.org/2000/svg" xml:space="preserve" width="147.997mm" height="84.6666mm" version="1.1" style="shape-rendering:geometricPrecision; text-rendering:geometricPrecision; image-rendering:optimizeQuality; fill-rule:evenodd; clip-rule:evenodd"
viewBox="0 0 14799.72 8466.66"
 xmlns:xlink="http://www.w3.org/1999/xlink">
 <defs>
  <style type="text/css">
   <![CDATA[
    .fil0 {fill:black}
    .fil2 {fill:#E73F6F}
    .fil3 {fill:#FF6994}
    .fil1 {fill:#FFF158}
   ]]>
  </style>
 </defs>
 <g id="Capa_x0020_1">
  <metadata id="CorelCorpID_0Corel-Layer"/>
  <g id="_914531232">
   <path class="fil0" d="M10631.88 5373.35c0,49.33 0,98.67 0,148.01 0,191.74 -95.15,360.76 -259.09,460.2l-2693.75 1634.02c-174.5,105.84 -383.81,105.84 -558.31,0l-2693.76 -1634.02c-163.94,-99.44 -259.1,-268.46 -259.1,-460.2 0,-49.34 0,-98.68 0,-148.01 -1066.58,-909.57 -2133.16,-1819.12 -3199.74,-2728.68 -173.73,-148.15 -234.74,-381.42 -155.79,-595.65 78.96,-214.28 276.68,-352.14 505.05,-352.14 950.15,0 1900.33,0 2850.48,0 0,-128.98 0,-257.94 0,-386.92 0,-296.66 241.59,-538.25 538.25,-538.25l5387.52 0c296.65,0 538.24,241.59 538.24,538.25 0,128.98 0,257.94 0,386.92 950.16,0 1900.33,0 2850.49,0 228.36,0 426.08,137.86 505.05,352.14 78.95,214.23 17.93,447.5 -155.8,595.65 -1066.58,909.56 -2133.16,1819.11 -3199.74,2728.68z"/>
   <path class="fil1" d="M7399.89 7107.48l2652.79 -1609.17 0 -4147.4 -5305.61 0 0 4147.4 2652.82 1609.17zm2350.74 -5456.22l0 3679.34 -2350.74 1425.96 -2350.77 -1425.96 0 -3679.34 4701.51 0z"/>
   <g>
    <polygon class="fil2" points="4276.31,2276.08 4276.31,4704.62 1428.53,2276.08 "/>
    <polygon class="fil2" points="10523.44,2276.08 10523.44,4704.62 13371.22,2276.08 "/>
   </g>
   <g>
    <polygon class="fil2" points="9125.17,2506.81 7399.89,3553.38 5674.6,2506.81 5674.6,2276.1 7399.89,2276.1 9125.17,2276.1 "/>
    <polygon class="fil2" points="7399.89,4456.4 9125.17,3409.84 9125.17,5025.3 7399.89,6071.86 5674.6,5025.3 5674.6,3409.84 "/>
   </g>
   <g>
    <polygon class="fil3" points="5674.6,2506.81 7399.89,3553.38 7399.89,2276.1 5674.6,2276.1 "/>
    <polygon class="fil3" points="7399.89,4456.4 5674.6,3409.84 5674.6,5025.3 7399.89,6071.86 "/>
   </g>
  </g>
 </g>
</svg>
