<?xml version="1.0" encoding="UTF-8"?>
<!DOCTYPE svg PUBLIC "-//W3C//DTD SVG 1.1//EN" "http://www.w3.org/Graphics/SVG/1.1/DTD/svg11.dtd">
<!-- Creator: CorelDRAW Home & Student 2018 -->
<svg xmlns="http://www.w3.org/2000/svg" xml:space="preserve" width="147.997mm" height="84.6666mm" version="1.1" style="shape-rendering:geometricPrecision; text-rendering:geometricPrecision; image-rendering:optimizeQuality; fill-rule:evenodd; clip-rule:evenodd"
viewBox="0 0 14799.72 8466.66"
 xmlns:xlink="http://www.w3.org/1999/xlink">
 <defs>
  <style type="text/css">
   <![CDATA[
    .fil0 {fill:black}
    .fil2 {fill:#5F36E3}
    .fil3 {fill:#999999}
    .fil4 {fill:#C4C4C4}
    .fil1 {fill:#FFF158}
   ]]>
  </style>
 </defs>
 <g id="Capa_x0020_1">
  <metadata id="CorelCorpID_0Corel-Layer"/>
  <g id="_699576664">
   <path class="fil0" d="M10631.87 5377.48c0,49.33 0,98.67 0,148.01 0,191.74 -95.15,360.76 -259.09,460.2l-2693.76 1634.02c-174.49,105.84 -383.81,105.84 -558.3,0l-2693.77 -1634.02c-163.94,-99.44 -259.09,-268.46 -259.09,-460.2 0,-49.34 0,-98.68 0,-148.01 -1066.58,-909.57 -2133.16,-1819.12 -3199.74,-2728.68 -173.73,-148.15 -234.74,-381.42 -155.79,-595.65 78.96,-214.28 276.68,-352.14 505.04,-352.14 950.16,0 1900.33,0 2850.49,0 0,-128.98 0,-257.94 0,-386.92 0,-296.66 241.59,-538.24 538.25,-538.24l5387.51 0c296.66,0 538.25,241.58 538.25,538.24 0,128.98 0,257.94 0,386.92 950.16,0 1900.33,0 2850.49,0 228.36,0 426.08,137.86 505.04,352.14 78.95,214.23 17.94,447.5 -155.79,595.65 -1066.58,909.56 -2133.16,1819.11 -3199.74,2728.68z"/>
   <path class="fil1" d="M7399.87 7111.61l2652.8 -1609.17 0 -4147.4 -5305.61 0 0 4147.4 2652.81 1609.17zm2350.75 -5456.22l0 3679.34 -2350.75 1425.96 -2350.76 -1425.96 0 -3679.34 4701.51 0z"/>
   <g>
    <polygon class="fil2" points="4276.3,2280.21 4276.3,4708.75 1428.52,2280.21 "/>
    <polygon class="fil2" points="10523.43,2280.21 10523.43,4708.75 13371.21,2280.21 "/>
   </g>
   <g>
    <polygon class="fil3" points="9125.16,2510.94 7399.87,3557.51 5674.58,2510.94 5674.58,2280.23 7399.87,2280.23 9125.16,2280.23 "/>
    <polygon class="fil3" points="7399.87,4460.53 9125.16,3413.97 9125.16,5029.43 7399.87,6076 5674.58,5029.43 5674.58,3413.97 "/>
   </g>
   <g>
    <polygon class="fil4" points="5674.58,2510.94 7399.87,3557.51 7399.87,2280.23 5674.58,2280.23 "/>
    <polygon class="fil4" points="7399.87,4460.53 5674.58,3413.97 5674.58,5029.43 7399.87,6076 "/>
   </g>
  </g>
 </g>
</svg>
